<?xml version="1.0" standalone="no"?>
<!DOCTYPE svg PUBLIC "-//W3C//DTD SVG 20010904//EN"
 "http://www.w3.org/TR/2001/REC-SVG-20010904/DTD/svg10.dtd">
<svg version="1.0" xmlns="http://www.w3.org/2000/svg"
 width="150.000000pt" height="150.000000pt" viewBox="0 0 150.000000 150.000000"
 preserveAspectRatio="xMidYMid meet">
<metadata>
Created by potrace 1.11, written by Peter Selinger 2001-2013
</metadata>
<g transform="translate(0.000000,150.000000) scale(0.100000,-0.100000)"
fill="#000000" stroke="none">
<path d="M330 1480 c-20 -20 -28 -56 -10 -45 6 4 8 10 5 15 -3 5 5 18 17 29
12 12 19 21 15 21 -4 0 -16 -9 -27 -20z"/>
<path d="M370 1483 c0 -5 7 -18 15 -29 13 -18 14 -18 8 4 -5 22 -23 41 -23 25z"/>
<path d="M382 1401 c1 -18 5 -34 9 -37 8 -4 0 58 -7 65 -3 3 -3 -10 -2 -28z"/>
<path d="M410 1405 c0 -8 4 -15 10 -15 5 0 7 7 4 15 -4 8 -8 15 -10 15 -2 0
-4 -7 -4 -15z"/>
<path d="M311 1368 c-1 -12 -8 -15 -28 -13 -105 14 -103 15 -104 -14 -1 -14
-3 -35 -4 -46 -1 -11 -5 -56 -9 -100 -4 -44 -8 -96 -11 -115 -4 -36 -15 -167
-20 -230 -1 -19 -5 -69 -9 -110 -4 -41 -9 -95 -11 -120 -10 -116 -17 -198 -20
-230 -2 -19 -6 -71 -10 -115 -3 -44 -8 -99 -11 -123 -5 -36 -3 -42 13 -43 10
-1 29 -2 43 -4 14 -1 61 -5 105 -9 44 -4 100 -8 125 -11 59 -6 173 -16 230
-20 25 -2 74 -6 110 -9 36 -4 90 -8 120 -11 121 -10 177 -15 225 -20 28 -2 82
-7 120 -10 39 -3 91 -8 118 -10 43 -5 47 -4 48 17 1 13 3 32 4 43 2 11 6 60
10 110 3 50 8 104 10 120 2 17 7 66 10 110 3 44 8 96 10 115 2 19 7 76 10 125
4 50 8 101 10 115 2 14 6 57 10 95 6 79 12 150 21 245 3 36 7 86 9 111 3 31 0
46 -8 46 -11 0 -109 9 -202 18 -22 2 -80 7 -130 10 -49 3 -101 8 -115 10 -22
4 -65 8 -215 20 -16 1 -70 6 -120 10 -49 5 -101 9 -115 10 -138 10 -180 18
-180 34 -1 13 -3 12 -12 -4 -11 -19 -11 -19 -19 0 -6 16 -8 17 -8 3z"/>
</g>
</svg>
