<?xml version="1.0" standalone="no"?>
<!DOCTYPE svg PUBLIC "-//W3C//DTD SVG 20010904//EN"
 "http://www.w3.org/TR/2001/REC-SVG-20010904/DTD/svg10.dtd">
<svg version="1.0" xmlns="http://www.w3.org/2000/svg"
 width="128.000000pt" height="128.000000pt" viewBox="0 0 128.000000 128.000000"
 preserveAspectRatio="xMidYMid meet">
<metadata>
Created by potrace 1.11, written by Peter Selinger 2001-2013
</metadata>
<g transform="translate(0.000000,128.000000) scale(0.100000,-0.100000)"
fill="#000000" stroke="none">
<path d="M502 969 c-86 -21 -163 -127 -142 -197 15 -51 22 -62 55 -82 38 -24
95 -26 135 -5 50 26 92 105 57 105 -8 0 -19 -11 -25 -25 -17 -37 -67 -64 -110
-59 -104 13 -72 152 47 201 49 21 145 24 232 7 41 -8 79 -16 86 -19 8 -3 -10
-47 -54 -132 -115 -223 -165 -283 -269 -323 -145 -55 -313 -1 -341 110 -5 19
-8 41 -7 48 1 6 2 21 3 32 0 11 19 38 40 59 30 30 37 42 27 50 -19 16 -70 -20
-91 -65 -36 -77 -17 -179 44 -232 64 -55 208 -81 320 -57 118 26 183 76 236
182 16 32 32 60 35 63 10 10 29 73 24 81 -3 5 -1 9 3 9 5 0 17 21 26 48 10 26
26 61 36 78 l19 32 68 -19 c63 -17 119 -24 170 -21 24 2 50 47 33 58 -6 3 -19
-2 -29 -11 -21 -19 -59 -17 -157 6 -49 11 -72 29 -39 29 8 0 16 6 19 14 12 31
-27 35 -58 6 l-21 -20 -85 25 c-95 29 -223 39 -287 24z"/>
</g>
</svg>
