<?xml version="1.0" encoding="UTF-8"?>
<svg width="39px" height="113px" viewBox="0 0 39 113" version="1.1" xmlns="http://www.w3.org/2000/svg" xmlns:xlink="http://www.w3.org/1999/xlink">
    <!-- Generator: Sketch 49.2 (51160) - http://www.bohemiancoding.com/sketch -->
    <title>ribbon-small</title>
    <desc>Created with Sketch.</desc>
    <defs></defs>
    <g id="ribbon-small" stroke="none" stroke-width="1" fill="none" fill-rule="evenodd">
        <g id="Group-4-Copy" transform="translate(0.000000, -287.000000)">
            <g id="Group" transform="translate(2.000000, 0.000000)">
                <rect id="Rectangle-2" fill="#E1E0E0" x="0" y="0" width="35" height="389"></rect>
                <rect id="Rectangle-2-Copy" fill="#1CA5FC" x="5" y="0" width="9" height="389"></rect>
                <rect id="Rectangle-2-Copy-2" fill="#1CA5FC" x="21" y="0" width="9" height="389"></rect>
            </g>
            <g id="Group-2" opacity="0.0628962862" transform="translate(2.000000, 32.000000)" fill="#000000">
                <rect id="Rectangle-3-Copy-46" x="0" y="258" width="35" height="3"></rect>
                <rect id="Rectangle-3-Copy-45" x="0" y="264" width="35" height="3"></rect>
                <rect id="Rectangle-3-Copy-44" x="0" y="270" width="35" height="3"></rect>
                <rect id="Rectangle-3-Copy-43" x="0" y="276" width="35" height="3"></rect>
                <rect id="Rectangle-3-Copy-42" x="0" y="282" width="35" height="3"></rect>
                <rect id="Rectangle-3-Copy-41" x="0" y="288" width="35" height="3"></rect>
                <rect id="Rectangle-3-Copy-40" x="0" y="294" width="35" height="3"></rect>
                <rect id="Rectangle-3-Copy-39" x="0" y="300" width="35" height="3"></rect>
                <rect id="Rectangle-3-Copy-38" x="0" y="306" width="35" height="3"></rect>
                <rect id="Rectangle-3-Copy-37" x="0" y="312" width="35" height="3"></rect>
                <rect id="Rectangle-3-Copy-36" x="0" y="318" width="35" height="3"></rect>
                <rect id="Rectangle-3-Copy-35" x="0" y="324" width="35" height="3"></rect>
                <rect id="Rectangle-3-Copy-34" x="0" y="330" width="35" height="3"></rect>
                <rect id="Rectangle-3-Copy-33" x="0" y="336" width="35" height="3"></rect>
                <rect id="Rectangle-3-Copy-32" x="0" y="342" width="35" height="3"></rect>
                <rect id="Rectangle-3-Copy-31" x="0" y="348" width="35" height="3"></rect>
                <rect id="Rectangle-3-Copy-30" x="0" y="354" width="35" height="3"></rect>
            </g>
            <g id="Group-3" transform="translate(0.000000, 389.000000)">
                <polygon id="Rectangle-4" fill="#D8D8D8" points="2 0 6 0 4 11 0 11"></polygon>
                <polygon id="Rectangle-4-Copy-2" fill="#1CA5FC" points="7.16666667 0 11.1666667 0 10.1666667 11 6.16666667 11"></polygon>
                <polygon id="Rectangle-4-Copy-3" fill="#1CA5FC" points="12.3333333 0 16.3333333 0 16.3333333 11 12.3333333 11"></polygon>
                <polygon id="Rectangle-4-Copy-4" fill="#D8D8D8" points="17.5 0 21.5 0 21.5 11 17.5 11"></polygon>
                <polygon id="Rectangle-4-Copy-5" fill="#1CA5FC" points="22.6666667 0 26.6666667 0 26.6666667 11 22.6666667 11"></polygon>
                <polygon id="Rectangle-4-Copy-6" fill="#1CA5FC" points="27.8333333 0 31.8333333 0 32.8333333 11 28.8333333 11"></polygon>
                <polygon id="Rectangle-4-Copy" fill="#D8D8D8" transform="translate(36.000000, 5.500000) scale(-1, 1) translate(-36.000000, -5.500000) " points="35 0 39 0 37 11 33 11"></polygon>
            </g>
        </g>
    </g>
</svg>