<?xml version="1.0" encoding="UTF-8" standalone="no"?>
<svg width="188px" height="100px" viewBox="0 0 188 100" version="1.1" xmlns="http://www.w3.org/2000/svg" xmlns:xlink="http://www.w3.org/1999/xlink" xmlns:sketch="http://www.bohemiancoding.com/sketch/ns">
    <!-- Generator: Sketch 3.4 (15575) - http://www.bohemiancoding.com/sketch -->
    <title>Cisco_logo</title>
    <desc>Created with Sketch.</desc>
    <defs></defs>
    <g id="Page-1" stroke="none" stroke-width="1" fill="none" fill-rule="evenodd" sketch:type="MSPage">
        <g id="Artboard-1" sketch:type="MSArtboardGroup" transform="translate(-967.000000, -316.000000)" fill="#002A2E">
            <g id="hero-img" sketch:type="MSLayerGroup" transform="translate(123.500000, 59.000000)">
                <g id="Cisco_logo" transform="translate(843.000000, 255.000000)" sketch:type="MSShapeGroup">
                    <g id="layer1">
                        <path d="M61.8875105,101.037655 L53.6774124,101.037655 L53.6774124,68.2418288 L61.8875105,68.2418288 L61.8875105,101.037655 L61.8875105,101.037655 Z" id="path268"></path>
                        <g id="g270" transform="translate(95.248072, 51.430014) scale(1, -1) translate(-95.248072, -51.430014) translate(0.248072, 0.930014)">
                            <g id="g272-Clipped">
                                <g id="g272" transform="translate(0.084850, 0.088527)">
                                    <g id="g278" transform="translate(102.755253, 0.017368)">
                                        <path d="M24.9997123,24.1848472 C24.6642348,24.3578563 22.0194233,25.9359094 18.0925153,25.9359094 C12.7846881,25.9359094 9.10223674,22.2109702 9.10223674,17.1884625 C9.10223674,12.3153717 12.6260515,8.43315151 18.0925153,8.43315151 C21.9518076,8.43315151 24.6382287,9.977127 24.9997123,10.1737283 L24.9997123,1.37123303 C23.9698742,1.08026311 21.1638254,0.204732019 17.5177825,0.204732019 C8.28304734,0.204732019 0.176973168,6.62179825 0.176973168,17.1884625 C0.176973168,26.9818282 7.51066876,34.1643289 17.5177825,34.1643289 C21.3666723,34.1643289 24.2221325,33.2180213 24.9997123,32.9873424 L24.9997123,24.1848472 L24.9997123,24.1848472 Z" id="path280"></path>
                                    </g>
                                    <g id="g282" transform="translate(17.057119, 0.017368)">
                                        <path d="M24.9997123,24.1848472 C24.669436,24.3578563 22.0298257,25.9359094 18.1029177,25.9359094 C12.7846881,25.9359094 9.10483734,22.2109702 9.10483734,17.1884625 C9.10483734,12.3153717 12.6312527,8.43315151 18.1029177,8.43315151 C21.96221,8.43315151 24.6460305,9.977127 24.9997123,10.1737283 L24.9997123,1.37123303 C23.9802766,1.08026311 21.1794291,0.204732019 17.5125813,0.204732019 C8.28304734,0.204732019 0.187375573,6.62179825 0.187375573,17.1884625 C0.187375573,26.9818282 7.52107116,34.1643289 17.5125813,34.1643289 C21.3770747,34.1643289 24.2273337,33.2180213 24.9997123,32.9873424 L24.9997123,24.1848472 L24.9997123,24.1848472 Z" id="path284"></path>
                                    </g>
                                    <g id="g286" transform="translate(136.385188, 0.123994)">
                                        <path d="M17.1979085,25.7063412 C12.3269823,25.7063412 8.70954595,21.8424704 8.70954595,17.0820978 C8.70954595,12.3112397 12.3269823,8.44999028 17.1979085,8.44999028 C22.0636335,8.44999028 25.6914723,12.3112397 25.6914723,17.0820978 C25.6914723,21.8424704 22.0636335,25.7063412 17.1979085,25.7063412 M34.3904835,17.0820978 C34.3904835,7.70028401 27.2050222,0.0983673153 17.1979085,0.0983673153 C7.1907948,0.0983673153 0.0157358888,7.70028401 0.0157358888,17.0820978 C0.0157358888,26.4481834 7.1907948,34.0579641 17.1979085,34.0579641 C27.2050222,34.0579641 34.3904835,26.4481834 34.3904835,17.0820978" id="path288"></path>
                                    </g>
                                    <g id="g290" transform="translate(72.388358, 0.185236)">
                                        <path d="M20.30166,25.9599235 C20.1794317,25.9992438 16.7232326,26.9612794 13.883376,26.9612794 C10.5936154,26.9612794 8.80440175,25.8498268 8.80440175,24.2743951 C8.80440175,22.2769259 11.2177597,21.5796467 12.5674718,21.1497452 L14.8325955,20.4236311 C20.1612275,18.7145105 22.5901891,15.0367556 22.5901891,11.0418173 C22.5901891,2.80291245 15.4021272,0.0347662294 9.11907451,0.0347662294 C4.75266497,0.0347662294 0.661919165,0.84476356 0.258825967,0.93126813 L0.258825967,8.47813646 C0.981793121,8.29464192 4.42498921,7.25920844 8.01121836,7.25920844 C12.096763,7.25920844 13.9743971,8.46240836 13.9743971,10.3209459 C13.9743971,11.9828822 12.3490213,12.9422965 10.3127505,13.5871488 C9.81603565,13.7549152 9.06966308,13.9908367 8.55994523,14.1586032 C3.98808819,15.6160741 0.175606727,18.3239293 0.175606727,23.7527463 C0.175606727,29.8867067 4.73186016,34.0048485 12.2996099,34.0048485 C16.296734,34.0048485 20.0572035,33.0270847 20.30166,32.9615509 L20.30166,25.9599235 L20.30166,25.9599235 Z" id="path292"></path>
                                    </g>
                                    <g id="g294" transform="translate(0.148917, 55.991431)">
                                        <path d="M8.38980427,12.8531706 C8.38980427,15.1127748 6.55898097,16.9450989 4.31466207,16.9450989 C2.07034318,16.9450989 0.236919278,15.1127748 0.236919278,12.8531706 L0.236919278,4.24465527 C0.236919278,1.97194431 2.07034318,0.136998902 4.31466207,0.136998902 C6.55898097,0.136998902 8.38980427,1.97194431 8.38980427,4.24465527 L8.38980427,12.8531706 L8.38980427,12.8531706 Z" id="path296"></path>
                                    </g>
                                    <g id="g298" transform="translate(22.538274, 55.959086)">
                                        <path d="M8.38980427,24.1848472 C8.38980427,26.4444514 6.55898097,28.2820181 4.31466207,28.2820181 C2.06774257,28.2820181 0.236919278,26.4444514 0.236919278,24.1848472 L0.236919278,4.27568948 C0.236919278,2.00297852 2.06774257,0.170654461 4.31466207,0.170654461 C6.55898097,0.170654461 8.38980427,2.00297852 8.38980427,4.27568948 L8.38980427,24.1848472 L8.38980427,24.1848472 Z" id="path300"></path>
                                    </g>
                                    <g id="g302" transform="translate(44.927891, 47.826346)">
                                        <path d="M8.38980427,47.7770024 C8.38980427,50.0366066 6.55898097,51.8715521 4.31466207,51.8715521 C2.06774257,51.8715521 0.236919278,50.0366066 0.236919278,47.7770024 L0.236919278,4.22850517 C0.236919278,1.95579421 2.06774257,0.1208488 4.31466207,0.1208488 C6.55898097,0.1208488 8.38980427,1.95579421 8.38980427,4.22850517 L8.38980427,47.7770024 L8.38980427,47.7770024 Z" id="path304"></path>
                                    </g>
                                    <g id="g306" transform="translate(67.317507, 55.959086)">
                                        <path d="M8.38980427,24.1848472 C8.38980427,26.4444514 6.55898097,28.2820181 4.31466207,28.2820181 C2.06774257,28.2820181 0.236919278,26.4444514 0.236919278,24.1848472 L0.236919278,4.27568948 C0.236919278,2.00297852 2.06774257,0.170654461 4.31466207,0.170654461 C6.55898097,0.170654461 8.38980427,2.00297852 8.38980427,4.27568948 L8.38980427,24.1848472 L8.38980427,24.1848472 Z" id="path308"></path>
                                    </g>
                                    <g id="g310" transform="translate(89.933213, 55.991431)">
                                        <path d="M8.13822917,12.8531706 C8.13822917,15.1127748 6.32040888,16.9450989 4.08649238,16.9450989 C1.84217348,16.9450989 0.0113501881,15.1127748 0.0113501881,12.8531706 L0.0113501881,4.24465527 C0.0113501881,1.97194431 1.84217348,0.136998902 4.08649238,0.136998902 C6.32040888,0.136998902 8.13822917,1.97194431 8.13822917,4.24465527 L8.13822917,12.8531706 L8.13822917,12.8531706 Z" id="path312"></path>
                                    </g>
                                    <g id="g314" transform="translate(112.332972, 55.959086)">
                                        <path d="M8.13822917,24.1848472 C8.13822917,26.4444514 6.32040888,28.2820181 4.07608998,28.2820181 C1.83437168,28.2820181 0.0113501881,26.4444514 0.0113501881,24.1848472 L0.0113501881,4.27568948 C0.0113501881,2.00297852 1.83437168,0.170654461 4.07608998,0.170654461 C6.32040888,0.170654461 8.13822917,2.00297852 8.13822917,4.27568948 L8.13822917,24.1848472 L8.13822917,24.1848472 Z" id="path316"></path>
                                    </g>
                                    <g id="g318" transform="translate(134.737672, 47.826346)">
                                        <path d="M8.13822917,47.7770024 C8.13822917,50.0366066 6.32040888,51.8715521 4.07608998,51.8715521 C1.82917048,51.8715521 0.0113501881,50.0366066 0.0113501881,47.7770024 L0.0113501881,4.22850517 C0.0113501881,1.95579421 1.82917048,0.1208488 4.07608998,0.1208488 C6.32040888,0.1208488 8.13822917,1.95579421 8.13822917,4.22850517 L8.13822917,47.7770024 L8.13822917,47.7770024 Z" id="path320"></path>
                                    </g>
                                    <g id="g322" transform="translate(156.885856, 55.959086)">
                                        <path d="M8.38980427,24.1848472 C8.38980427,26.4444514 6.57198398,28.2820181 4.27565306,28.2820181 C2.03133416,28.2820181 0.213513867,26.4444514 0.213513867,24.1848472 L0.213513867,4.27568948 C0.213513867,2.00297852 2.03133416,0.170654461 4.27565306,0.170654461 C6.57198398,0.170654461 8.38980427,2.00297852 8.38980427,4.27568948 L8.38980427,24.1848472 L8.38980427,24.1848472 Z" id="path324"></path>
                                    </g>
                                    <g id="g326" transform="translate(179.491419, 55.991431)">
                                        <path d="M8.13822917,12.8531706 C8.13822917,15.1127748 6.31520767,16.9450989 4.07348938,16.9450989 C1.82917048,16.9450989 0.00614898558,15.1127748 0.00614898558,12.8531706 L0.00614898558,4.24465527 C0.00614898558,1.97194431 1.82917048,0.136998902 4.07348938,0.136998902 C6.31520767,0.136998902 8.13822917,1.97194431 8.13822917,4.24465527 L8.13822917,12.8531706 L8.13822917,12.8531706 Z" id="path328"></path>
                                    </g>
                                </g>
                            </g>
                        </g>
                    </g>
                </g>
            </g>
        </g>
    </g>
</svg>