<?xml version="1.0" encoding="UTF-8"?>
<svg width="125px" height="64px" viewBox="0 0 125 64" version="1.1" xmlns="http://www.w3.org/2000/svg" xmlns:xlink="http://www.w3.org/1999/xlink">
    <!-- Generator: Sketch 46.2 (44496) - http://www.bohemiancoding.com/sketch -->
    <title>dno</title>
    <desc>Created with Sketch.</desc>
    <defs></defs>
    <g id="Slides" stroke="none" stroke-width="1" fill="none" fill-rule="evenodd">
        <g id="1-copy-12" transform="translate(-115.000000, -309.000000)" fill-rule="nonzero">
            <g id="dno" transform="translate(115.000000, 309.000000)">
                <path d="M123.369648,52.674647 C108.539913,58.9304479 86.8440964,62.3756995 62.6687582,62.3756995 C38.49342,62.3756995 16.7974793,58.9304479 1.96749537,52.674647 L1.96749537,11.8129728 C16.7974793,5.5565709 38.49342,2.11167987 62.6687582,2.11167987 C86.8440964,2.11167987 108.539913,5.5565709 123.369648,11.8129728 L123.369648,52.674647 Z" id="path3005" fill="#FFFFFF" transform="translate(62.668572, 32.243690) scale(-1, 1) rotate(-180.000000) translate(-62.668572, -32.243690) "></path>
                <path d="M3.84330865,50.4160998 C18.3451279,56.0624376 39.1435295,60.304282 62.4501891,60.304282 C85.7570975,60.304282 106.555997,56.0624376 121.057194,50.4160998 L121.057194,13.4248953 C106.557614,7.77831709 85.7592123,3.69583938 62.4501891,3.69583938 C39.1415391,3.69583938 18.3431375,7.77831709 3.84330865,13.4248953 L3.84330865,50.4160998 Z M123.730156,53.3509215 C108.710464,59.4867769 86.9473476,64.0000012 62.4501891,64.0000012 C37.9532794,64.0000012 16.1900388,59.4867769 1.17022186,53.3509215 L-2.33012543e-09,52.8728217 L-2.33012543e-09,10.9678129 L1.17022186,10.4898332 C16.1881728,4.35349712 37.9511646,4.27189661e-09 62.4501891,4.27189661e-09 C86.9495868,4.27189661e-09 108.711957,4.35349712 123.730156,10.4898332 L124.900005,10.9678129 L124.900005,52.8728217 L123.730156,53.3509215 Z" id="path3009" fill="#002A2E" transform="translate(62.450002, 32.000001) scale(-1, 1) rotate(-180.000000) translate(-62.450002, -32.000001) "></path>
                <path d="M26.5638621,38.891922 L30.1818841,38.891922 C34.4252601,38.891922 37.2749935,36.1362976 37.2749935,31.9680071 C37.2749935,27.9096868 34.4252601,25.1862722 30.1818841,25.1862722 L26.5638621,25.1862722 L26.5638621,38.891922 Z M30.1818841,45.6492591 L19.0038831,45.6492591 L19.0038831,18.4276131 L30.1818841,18.4276131 C38.8268717,18.4276131 45.1014354,24.1524323 45.1014354,32.1124706 C45.1014354,39.9553276 38.8268717,45.6492591 30.1818841,45.6492591 L30.1818841,45.6492591 Z" id="path3013" fill="#002A2E" transform="translate(32.052659, 32.038436) scale(-1, 1) rotate(-180.000000) translate(-32.052659, -32.038436) "></path>
                <polygon id="path3017" fill="#002A2E" transform="translate(61.535296, 32.038436) scale(-1, 1) rotate(-180.000000) translate(-61.535296, -32.038436) " points="66.6644557 31.5876785 55.5888351 45.6493192 48.920424 45.6493192 48.920424 18.427553 56.4040221 18.427553 56.4040221 33.0017869 67.8982455 18.427553 74.1501685 18.427553 74.1501685 45.6493192 66.6644557 45.6493192"></polygon>
                <path d="M92.8798637,24.7028121 C88.6877401,24.7028121 85.2899044,27.9871346 85.2899044,32.0366813 C85.2899044,36.0889924 88.6877401,39.3712718 92.8798637,39.3712718 C97.0706189,39.3712718 100.468828,36.0889924 100.468828,32.0366813 C100.468828,27.9871346 97.0706189,24.7028121 92.8798637,24.7028121 M92.918303,46.0865438 C84.531319,46.0865438 77.9630492,39.9145124 77.9630492,31.9664927 C77.9630492,23.9965992 84.3582799,17.9887419 92.8421707,17.9887419 C101.227662,17.9887419 107.797549,24.159331 107.797549,32.1108361 C107.797549,40.0788067 101.400079,46.0865438 92.918303,46.0865438" id="path3021" fill="#002A2E" transform="translate(92.880299, 32.037643) scale(-1, 1) rotate(-180.000000) translate(-92.880299, -32.037643) "></path>
                <polygon id="path3025" fill="#002A2E" transform="translate(47.754457, 53.048786) scale(-1, 1) rotate(-180.000000) translate(-47.754457, -53.048786) " points="46.0209558 55.2865289 49.455116 55.2865289 49.455116 54.5833207 46.8347744 54.5833207 46.8347744 53.420401 49.1570559 53.420401 49.1570559 52.7169524 46.8347744 52.7169524 46.8347744 51.514732 49.4879574 51.514732 49.4879574 50.811043 46.0209558 50.811043"></polygon>
                <path d="M50.5360691,51.4637251 L51.0255794,52.0258349 C51.4689376,51.6554217 51.9190133,51.4442549 52.4880146,51.4442549 C52.99096,51.4442549 53.3085507,51.6747717 53.3085507,52.0072061 L53.3085507,52.0193449 C53.3085507,52.3390396 53.1229474,52.5122276 52.2631011,52.7035637 C51.2769898,52.9338401 50.7212993,53.2150753 50.7212993,54.0397916 L50.7212993,54.0524111 C50.7212993,54.8195583 51.3829778,55.3504198 52.3025356,55.3504198 C52.9776493,55.3504198 53.5135604,55.1519927 53.9831668,54.7879493 L53.5466505,54.1937498 C53.1299137,54.4934937 52.7130525,54.6531007 52.2893493,54.6531007 C51.8131498,54.6531007 51.5351179,54.4171756 51.5351179,54.1230805 L51.5351179,54.1099802 C51.5351179,53.7650464 51.7468451,53.6110881 52.6404034,53.4064114 C53.619424,53.176736 54.1222449,52.8375711 54.1222449,52.0967447 L54.1222449,52.0837646 C54.1222449,51.2460682 53.4407869,50.747056 52.467862,50.747056 C51.759907,50.747056 51.0917597,50.9846637 50.5360691,51.4637251" id="path3037" fill="#002A2E" transform="translate(52.329157, 53.048738) scale(-1, 1) rotate(-180.000000) translate(-52.329157, -53.048738) "></path>
                <polygon id="path3041" fill="#002A2E" transform="translate(56.715779, 53.048834) scale(-1, 1) rotate(-180.000000) translate(-56.715779, -53.048834) " points="56.3052617 54.557649 54.8366065 54.557649 54.8366065 55.286577 58.5949506 55.286577 58.5949506 54.557649 57.1257978 54.557649 57.1257978 50.8110911 56.3052617 50.8110911"></polygon>
                <polygon id="path3043" fill="#002A2E" transform="translate(62.066430, 53.378108) scale(-1, 1) rotate(-180.000000) translate(-62.066430, -53.378108) " points="60.8339469 53.7583761 63.298914 53.7583761 63.298914 52.9978391 60.8339469 52.9978391"></polygon>
                <polygon id="path3047" fill="#002A2E" transform="translate(66.198258, 53.032897) scale(-1, 1) rotate(-180.000000) translate(-66.198258, -53.032897) " points="66.2972173 54.4877488 65.463246 54.2637221 65.2915753 54.9028712 66.5422834 55.2865049 67.1049403 55.2865049 67.1049403 50.7792899 66.2972173 50.7792899"></polygon>
                <path d="M71.1891104,53.847518 L71.1891104,53.8598972 C71.1891104,54.3264592 70.8120569,54.6843731 70.2224054,54.6843731 C69.6471842,54.6843731 69.3032208,54.3138397 69.3032208,53.8536475 L69.3032208,53.8400665 C69.3032208,53.3742256 69.6731836,53.0413104 70.2491512,53.0413104 C70.8381807,53.0413104 71.1891104,53.4123245 71.1891104,53.847518 M71.2215785,52.8628342 C70.9639481,52.5620087 70.6061764,52.3828114 70.1292305,52.3828114 C69.1438656,52.3828114 68.4882826,52.9390321 68.4882826,53.8030492 L68.4882826,53.8148274 C68.4882826,54.6911035 69.1905152,55.362222 70.2164342,55.362222 C70.798373,55.362222 71.1759241,55.2021343 71.5059548,54.8886892 C71.8432006,54.5564952 72.0618941,54.063973 72.0618941,53.1818078 L72.0618941,53.169669 C72.0618941,51.7308024 71.3274421,50.7343403 70.0768585,50.7343403 C69.435457,50.7343403 68.9855056,50.9571651 68.5947682,51.2708506 L69.0383752,51.8720209 C69.3888073,51.5905453 69.6996806,51.4498075 70.0972599,51.4498075 C70.9175473,51.4498075 71.2147366,52.2682741 71.2215785,52.8628342" id="path3051" fill="#002A2E" transform="translate(70.275088, 53.048281) scale(-1, 1) rotate(-180.000000) translate(-70.275088, -53.048281) "></path>
                <polygon id="path3055" fill="#002A2E" transform="translate(74.443626, 53.048786) scale(-1, 1) rotate(-180.000000) translate(-74.443626, -53.048786) " points="75.1446145 54.5954595 72.8157399 54.5954595 72.8157399 55.2865289 76.0715119 55.2865289 76.0715119 54.692089 73.9879522 50.811043 73.0667772 50.811043"></polygon>
                <polygon id="path3059" fill="#002A2E" transform="translate(77.819356, 53.032897) scale(-1, 1) rotate(-180.000000) translate(-77.819356, -53.032897) " points="77.9186885 54.4877488 77.0850904 54.2637221 76.9127978 54.9028712 78.163257 55.2865049 78.7259139 55.2865049 78.7259139 50.7792899 77.9186885 50.7792899"></polygon>
            </g>
        </g>
    </g>
</svg>