<?xml version="1.0" encoding="UTF-8" standalone="no"?>
<svg width="465px" height="211px" viewBox="0 0 465 211" version="1.1" xmlns="http://www.w3.org/2000/svg" xmlns:xlink="http://www.w3.org/1999/xlink" xmlns:sketch="http://www.bohemiancoding.com/sketch/ns">
    <!-- Generator: Sketch 3.4 (15575) - http://www.bohemiancoding.com/sketch -->
    <title>Ghost-Logo</title>
    <desc>Created with Sketch.</desc>
    <defs></defs>
    <g id="Page-1" stroke="none" stroke-width="1" fill="none" fill-rule="evenodd" sketch:type="MSPage">
        <g id="Ghost-Logo" sketch:type="MSLayerGroup">
            <g id="Logo" sketch:type="MSShapeGroup">
                <g id="Group">
                    <g>
                        <rect id="Rectangle-6" fill="#FFFFFF" x="0" y="0" width="465" height="211"></rect>
                        <rect id="Rectangle-path" fill="#002A2E" x="0.197" y="159.302" width="31.703" height="15.852"></rect>
                        <rect id="Rectangle-path" fill="#002A2E" x="47.75" y="159.302" width="31.683" height="15.852"></rect>
                        <rect id="Rectangle-path" fill="#002A2E" x="0.173" y="127.599" width="79.27" height="15.852"></rect>
                        <rect id="Rectangle-path" fill="#002A2E" x="0.197" y="95.898" width="47.559" height="15.851"></rect>
                        <rect id="Rectangle-path" fill="#002A2E" x="63.602" y="95.898" width="15.851" height="15.851"></rect>
                    </g>
                    <g transform="translate(114.000000, 61.000000)" id="Shape" fill="#002A2E">
                        <path d="M195.575,34.807 C170.117,34.807 156.969,52.81 156.969,75.018 C156.969,97.227 169.793,115.232 195.575,115.232 C221.357,115.232 234.181,97.227 234.181,75.018 C234.182,52.81 221.032,34.807 195.575,34.807 L195.575,34.807 Z M214.835,75.09 L214.835,75.09 C214.817,89.371 210.005,100.938 195.575,100.938 C181.145,100.938 176.332,89.372 176.317,75.09 L176.317,75.09 L176.317,75.055 L176.317,75.019 L176.317,75.019 C176.332,60.739 181.146,49.173 195.576,49.173 C210.005,49.173 214.817,60.739 214.835,75.019 L214.835,75.019 L214.835,75.055 C214.835,75.067 214.835,75.078 214.835,75.09 L214.835,75.09 Z"></path>
                        <path d="M81.584,114.153 L81.584,2.975 C81.584,2.975 96.248,0.892 97.385,0.739 C98.673,0.565 100.383,1.482 100.383,3.295 L100.383,44.509 C103.426,41.616 106.777,39.284 110.429,37.507 C114.084,35.732 118.37,34.843 123.294,34.843 C127.557,34.843 131.334,35.566 134.632,37.013 C137.932,38.457 140.685,40.489 142.892,43.1 C145.099,45.715 146.774,48.835 147.916,52.463 C149.057,56.091 149.628,60.087 149.628,64.451 L149.628,114.152 L130.828,114.152 L130.828,64.451 C130.828,59.682 129.724,55.99 127.517,53.375 C125.309,50.763 121.998,49.456 117.582,49.456 C114.335,49.456 111.292,50.192 108.452,51.665 C105.609,53.137 102.92,55.139 100.383,57.678 L100.383,114.153 L81.584,114.153 L81.584,114.153 Z"></path>
                        <path d="M332.565,115.224 C319.628,115.224 311.52,107.695 311.52,93.649 L311.52,52.021 L296.94,52.021 C296.94,52.021 300.039,41.303 300.284,40.459 C300.53,39.616 301.171,38.71 302.458,38.531 C303.745,38.352 311.502,37.27 311.502,37.27 L315.085,14.476 C315.085,14.476 325.612,12.992 327.281,12.743 C328.857,12.507 330.286,13.642 330.286,15.359 L330.286,37.27 L348.726,37.27 L348.726,52.021 L330.286,52.021 L330.286,93.088 C330.286,98.695 333.7,100.838 336.972,100.838 C338.972,100.838 341.711,99.776 343.755,98.828 C345.018,98.244 346.975,98.677 347.481,100.44 C347.928,102.002 350.305,110.293 350.305,110.293 C348.254,111.617 341.771,115.224 332.565,115.224 L332.565,115.224 Z"></path>
                        <path d="M286.609,52.267 C282.945,51.077 276.058,49.172 269.507,49.172 C262.832,49.172 257.58,51.478 257.58,57.028 C257.58,63.96 268.899,65.978 276.647,68.804 C281.827,70.693 295.718,74.376 295.718,89.316 C295.718,107.464 280.647,115.223 264.57,115.223 C248.491,115.223 238.992,109.243 238.992,109.243 C238.992,109.243 241.486,100.433 241.991,98.694 C242.448,97.129 244.267,96.58 245.426,97.025 C249.564,98.62 257.036,100.837 265.482,100.837 C274.033,100.837 278.17,98.226 278.17,92.66 C278.17,85.252 266.623,82.988 258.986,80.579 C253.725,78.921 239.8,75.054 239.8,58.623 C239.8,42.437 254.013,34.843 269.203,34.843 C282.061,34.843 288.368,37.532 293.079,39.932 C293.079,39.932 290.454,49.081 290.064,50.444 C289.604,52.064 288.275,52.807 286.609,52.267 L286.609,52.267 Z"></path>
                        <path d="M74.245,37.523 C74.245,35.772 72.749,34.77 71.322,34.933 C65.013,35.656 60.512,38.625 57.6,41.389 C51.882,36.909 43.945,34.77 35.037,34.77 C17.177,34.77 3.223,43.39 3.223,62.186 C3.223,72.976 7.816,80.411 15.11,84.788 C9.693,87.352 6.085,92.793 6.085,98.142 C6.085,107.09 13.154,109.892 13.154,109.892 C13.154,109.892 0.794,115.891 0.794,127.893 C0.794,143.257 14.933,149.469 32.21,149.469 C57.114,149.469 74.248,139.183 74.248,120.296 C74.248,108.672 65.353,102.255 45.969,101.492 C34.466,101.038 27.015,100.624 25.169,100.013 C22.73,99.203 21.531,97.25 21.531,95.094 C21.531,92.714 23.486,90.448 26.568,88.892 C29.256,89.368 32.093,89.603 35.039,89.603 C52.914,89.603 66.854,81.008 66.854,62.187 C66.854,57.623 66.03,53.661 64.532,50.276 C67.158,48.875 70.389,47.889 74.247,47.889 C74.245,47.889 74.245,39.12 74.245,37.523 L74.245,37.523 Z M25.026,114.25 C25.026,114.25 34.405,114.605 43.777,115.039 C54.306,115.526 57.587,117.795 57.587,123.247 C57.587,129.908 48.437,136.387 35.65,136.387 C23.512,136.387 17.449,132.164 17.449,125.133 C17.449,121.099 19.579,116.586 25.026,114.25 L25.026,114.25 Z M35.071,76.483 C26.61,76.483 20.009,71.989 20.009,62.186 C20.009,52.382 26.616,47.888 35.071,47.888 C43.527,47.888 50.133,52.37 50.133,62.186 C50.133,72.002 43.535,76.483 35.071,76.483 L35.071,76.483 Z"></path>
                    </g>
                </g>
            </g>
        </g>
    </g>
</svg>