<?xml version="1.0" encoding="UTF-8" standalone="no"?>
<svg width="788px" height="362px" viewBox="0 0 788 362" version="1.1" xmlns="http://www.w3.org/2000/svg" xmlns:xlink="http://www.w3.org/1999/xlink" xmlns:sketch="http://www.bohemiancoding.com/sketch/ns">
    <!-- Generator: Sketch 3.4 (15575) - http://www.bohemiancoding.com/sketch -->
    <title>invision-logo-gray</title>
    <desc>Created with Sketch.</desc>
    <defs>
        <path id="path-1" d="M0.06,0 L787.484,0 L787.484,263.94 L0.06,263.94"></path>
    </defs>
    <g id="Page-1" stroke="none" stroke-width="1" fill="none" fill-rule="evenodd" sketch:type="MSPage">
        <g id="invision-logo-gray" sketch:type="MSLayerGroup">
            <rect id="Rectangle-1" fill="#FFFFFF" sketch:type="MSShapeGroup" x="0" y="0" width="788" height="362"></rect>
            <g id="Group-3" transform="translate(0.000000, 98.000000)">
                <mask id="mask-2" sketch:name="Clip 2" fill="white">
                    <use xlink:href="#path-1"></use>
                </mask>
                <g id="Clip-2"></g>
                <path d="M240.068,0 L23.932,0 C10.715,0 0,10.715 0,23.932 L0,240.068 C0,253.285 10.715,264 23.932,264 L240.068,264 C253.285,264 264,253.285 264,240.068 L264,23.932 C264,10.715 253.285,0 240.068,0" id="Fill-1" fill="#002A2E" sketch:type="MSShapeGroup" mask="url(#mask-2)"></path>
            </g>
            <path d="M513.94,302.948 L539.211,302.948 L539.211,192.697 L513.94,192.697 L513.94,302.948 Z M748.226,190.396 C731.101,190.396 720.872,199.376 713.77,209.815 L713.77,192.697 L688.506,192.697 L688.506,302.948 L713.77,302.948 L713.77,240.717 C713.77,223.596 724.003,213.366 738.622,213.366 C753.659,213.366 762.217,223.177 762.217,240.299 L762.217,302.948 L787.484,302.948 L787.484,232.785 C787.484,207.102 773.075,190.396 748.226,190.396 L748.226,190.396 Z M614.59,283.529 C594.958,283.529 580.968,267.448 580.968,247.819 C580.968,228.403 593.914,212.528 614.171,212.528 C634.006,212.528 647.999,228.606 647.999,248.238 C647.999,267.657 635.05,283.529 614.59,283.529 L614.59,283.529 Z M614.59,190.396 C580.762,190.396 555.701,216.494 555.701,248.238 C555.701,279.765 580.549,305.452 614.171,305.452 C648.212,305.452 673.27,279.35 673.27,247.819 C673.27,216.082 648.415,190.396 614.59,190.396 L614.59,190.396 Z M301.798,273.711 L272.147,192.697 L245,192.697 L290.315,303.779 L313.075,303.779 L358.179,192.697 L331.66,192.697 L301.798,273.711 L301.798,273.711 Z M462.997,237.799 C450.048,233.616 438.142,230.278 438.142,222.346 L438.142,221.927 C438.142,215.454 443.781,210.859 453.595,210.859 C458.382,210.859 463.74,211.957 469.278,213.9 L469.274,213.886 C469.274,213.886 469.329,213.913 469.433,213.961 C469.909,214.13 470.393,214.319 470.876,214.501 C474.872,215.765 485.653,217.454 494.737,203.346 C483.041,195.616 468.011,190.812 454.22,190.812 C432.298,190.812 414.966,203.548 414.966,224.434 L414.966,224.853 C414.966,245.941 433.132,252.623 449.419,257.218 C462.369,261.184 474.065,264.106 474.065,272.667 L474.065,273.083 C474.065,280.394 467.798,284.988 456.94,284.988 C449.72,284.988 441.814,283.083 433.936,279.37 C431.669,278.414 419.875,274.38 409.791,288.721 C423.531,299.451 440.744,305.036 456.315,305.036 C479.278,305.036 497.241,293.556 497.241,270.37 L497.241,269.954 C497.241,250.12 479.075,242.809 462.997,237.799 L462.997,237.799 Z M370.699,302.948 L395.966,302.948 L395.966,192.697 L370.699,192.697 L370.699,302.948 Z" id="Fill-4" fill="#002A2E" sketch:type="MSShapeGroup"></path>
            <path d="M88.229,181.062 C97.005,181.062 104.356,174.183 104.356,165.168 C104.356,156.159 97.005,149.282 88.229,149.282 C79.454,149.282 72.103,156.159 72.103,165.168 C72.103,174.183 79.454,181.062 88.229,181.062" id="Fill-5" fill="#FFFFFF" sketch:type="MSShapeGroup"></path>
            <path d="M54.789,266.161 C53.842,270.193 53.366,274.547 53.366,278.099 C53.366,292.094 60.956,301.385 77.083,301.385 C90.459,301.385 101.302,293.441 109.109,280.616 L104.342,299.749 L130.902,299.749 L146.082,238.865 C149.876,223.449 157.228,215.448 168.376,215.448 C177.151,215.448 182.606,220.905 182.606,229.914 C182.606,232.525 182.368,235.368 181.42,238.452 L173.592,266.437 C172.406,270.469 171.934,274.504 171.934,278.295 C171.934,291.581 179.758,301.299 196.123,301.299 C210.116,301.299 221.262,292.291 227.429,270.708 L216.995,266.679 C211.776,281.139 207.27,283.753 203.713,283.753 C200.155,283.753 198.257,281.383 198.257,276.642 C198.257,274.508 198.733,272.139 199.443,269.287 L207.034,242.022 C208.93,235.62 209.643,229.943 209.643,224.727 C209.643,204.331 197.309,193.687 182.368,193.687 C168.376,193.687 154.145,206.308 147.032,219.591 L152.248,195.749 L111.694,195.749 L106.001,216.749 L124.975,216.749 L113.292,263.527 C104.116,283.923 87.262,284.254 85.147,283.78 C81.674,282.997 79.454,281.678 79.454,277.165 C79.454,274.561 79.927,270.821 81.113,266.311 L98.902,195.749 L53.842,195.749 L48.15,216.749 L66.884,216.749 L54.789,266.161" id="Fill-6" fill="#FFFFFF" sketch:type="MSShapeGroup"></path>
        </g>
    </g>
</svg>