<?xml version="1.0" encoding="UTF-8"?>
<svg width="188px" height="49px" viewBox="0 0 188 49" version="1.1" xmlns="http://www.w3.org/2000/svg" xmlns:xlink="http://www.w3.org/1999/xlink">
    <!-- Generator: Sketch 46.2 (44496) - http://www.bohemiancoding.com/sketch -->
    <title>iwt</title>
    <desc>Created with Sketch.</desc>
    <defs>
        <polygon id="path-1" points="0.0398984772 21.9999145 0.0398984772 0.562649354 130.439272 0.562649354 130.439272 21.9999145"></polygon>
    </defs>
    <g id="Slides" stroke="none" stroke-width="1" fill="none" fill-rule="evenodd">
        <g id="1-copy-12" transform="translate(-280.000000, -317.000000)">
            <g id="iwt" transform="translate(280.000000, 317.000000)">
                <path d="M59.4652444,41.9196049 C60.132561,41.4426368 59.2781003,42.2110854 59.9725035,42.1141577 C60.0771565,42.6287811 60.5105429,41.9928237 60.6453605,41.9196049 C61.1052179,41.6671744 61.4838154,41.7801405 61.8254766,41.529802 C62.1240454,41.3094484 62.8424572,41.2153099 63.0049771,41.1399992 C63.0462227,41.1197769 63.1293294,41.1413938 63.173653,41.1399992 C63.3491007,41.1295394 63.2727656,40.9768259 63.342329,40.9454464 C64.0785934,40.6163106 64.2010989,40.7306713 64.5218295,40.3610908 C64.8610282,39.969196 65.3966052,39.4866493 65.3652093,38.9964321 C65.072181,39.0117732 64.839482,38.9545928 64.6892742,38.803274 C64.6628032,39.0319956 64.7194389,39.3562502 64.5218295,39.3876296 C63.5805684,39.2321269 63.4426727,39.345093 62.3302733,39.3876296 C62.2490133,39.6177458 62.1505164,39.8290343 61.9941526,39.9719853 C61.8088552,39.6560985 61.3717752,40.2007068 60.9827124,40.3610908 C60.700765,40.4782409 60.4286673,40.5668007 60.1405638,40.5563409 C59.9503417,40.9210402 59.940492,41.492844 59.2990309,41.3352493 C59.2904124,41.6037181 59.3778284,41.7627075 59.4652444,41.9196049 Z M59.7927466,38.0376148 C59.9411076,38.0662049 59.8666193,38.1861443 59.7927466,38.1861443 C59.8506136,38.4058006 59.960807,38.1275693 60.1861187,38.1861443 C60.7296985,37.5383324 61.8624129,37.7287012 62.8024428,37.444194 C62.8116769,37.4427993 62.8529225,37.318676 62.9329512,37.2970591 C63.0154424,37.2726528 63.1139393,37.3242546 63.1951992,37.2970591 C63.379881,37.2329055 63.7430883,37.0529965 64.1099893,37.2970591 C64.3550004,37.2768367 64.5483005,37.1987367 64.6344853,37 C64.7945428,37.0488125 64.7803839,37.3458716 64.8961178,37.444194 C65.1171202,37.6331681 65.4083017,37.3702778 65.4181514,37.5927235 C65.4280011,37.7747245 65.8743152,37.8388781 65.8115234,38.3332792 C66.1808868,38.2105505 66.1501065,38.5417784 66.4652966,38.4818087 C66.5176231,38.5620007 66.4006581,38.8618491 66.4652966,38.9273973 C66.5096203,38.9706312 66.6893771,38.8764928 66.7263135,38.9273973 C66.7657122,38.9762098 66.6832211,39.1819197 66.7263135,39.2230617 C66.8328132,39.3220814 66.8174231,39.3360278 66.8574375,39.5194235 C66.9134576,39.7690646 67.2132576,40.8778062 66.7263135,41.1497617 C66.7275447,41.5040011 66.43821,41.512369 66.2030486,41.7424852 C66.1248667,41.8184932 66.0811587,41.7215655 66.0725402,41.8896201 C66.0725402,41.9014745 65.7912084,42.1873764 65.8115234,42.1866791 C65.74196,42.1901657 65.6280729,42.0597666 65.681015,42.0395442 C65.5209575,42.1016059 65.5271136,42.2529247 65.4181514,42.3345113 C65.2870274,42.4342283 65.14236,42.3826265 65.0260106,42.4830409 C64.8284011,42.6517927 64.7194389,42.8644759 64.5021301,43.0743697 C64.0096456,43.257068 63.1884276,43.0687911 63.0640752,43.6684878 C62.7513475,43.5346021 62.3709032,43.4460422 62.01693,43.6684878 C61.9485977,43.7117218 62.0341669,43.8072549 61.8864216,43.8177147 C61.7245173,43.8260825 61.3637723,44.0548041 61.1015243,44.1133791 C60.7931059,44.1817166 60.438517,43.9815853 60.054379,44.1133791 C60.0051306,44.1315095 59.8918591,44.2633033 59.9251018,44.260514 C59.6191458,44.2835256 59.1186584,43.8149254 59.008465,44.4076489 C59.0109274,44.6307918 59.1666756,44.4222926 59.1383578,44.4076489 C59.3187302,44.5017873 59.4344641,44.9250616 59.6622382,45.1495992 C59.7059462,45.1935305 59.8875499,45.1007867 59.9251018,45.1495992 C60.115324,45.4152788 60.0032838,45.4452636 60.4477511,45.2981287 C60.4077367,45.4766431 60.6613662,45.3706502 60.7093835,45.4466583 C60.7346233,45.4864056 60.6736784,45.7207057 60.7093835,45.7423227 C60.8177301,45.8120549 61.1476947,45.645395 61.2320327,45.7423227 C61.242498,45.7562691 61.2197206,45.8866683 61.2320327,45.8908522 C61.347151,45.9292049 61.5170582,45.8378558 61.6254048,45.8908522 C61.6832717,45.9194424 61.6174019,46.0296192 61.7546819,46.0407764 C62.0723345,46.063788 62.2687127,45.9577951 62.5401948,45.8908522 C62.5900589,46.488457 63.2807684,46.0449603 63.7178485,46.0407764 C64.321142,46.0310139 64.8604126,46.3224944 65.1577502,46.7799374 C65.1879149,46.9410188 64.9582939,47.0686286 64.7637625,47.2241314 C64.7182077,47.2638787 64.5390665,47.1767135 64.5021301,47.2241314 C64.472581,47.266668 64.4030176,47.6494977 64.3728529,47.66972 C64.3174484,47.7073754 64.2084862,47.489811 64.1099893,47.5225851 C64.0564316,47.5386235 64.0182641,47.8043031 63.9794809,47.8182495 C63.7837183,47.8858897 63.5288575,47.7757129 63.3244764,47.8182495 C63.1631878,47.8510236 62.8547693,48.0853237 62.410302,47.966779 C62.3007242,47.9367942 62.2804092,47.830104 62.1486696,47.8182495 C62.1880683,47.8224334 62.0797217,48.0532469 62.01693,47.966779 C62.0113895,47.9570165 62.0224704,47.8182495 62.01693,47.8182495 C61.7713033,47.8182495 61.6192487,48.172489 61.6254048,47.66972 C61.3194487,47.7052834 60.5998057,47.8287093 60.3160115,47.5225851 C60.2107429,47.405435 60.0993183,47.4228681 59.9251018,47.3726609 C59.8112148,47.3412814 59.8376858,47.2415644 59.7927466,47.2241314 C59.4966403,47.1153492 59.1266613,47.1913573 58.8779566,47.0769965 C58.8219365,47.049801 58.8847282,46.9368348 58.7474482,46.928467 C58.6200178,46.9207964 58.6452576,46.748558 58.6163242,46.6321052 C58.2007903,46.8650107 58.2580417,46.5735302 57.8308113,46.1879113 C57.625199,46.0024237 57.4232803,45.8594727 57.1770381,45.7423227 C57.194275,45.4766431 57.0169806,45.4306199 57.0459141,45.1495992 C56.8156775,44.9166937 56.7750476,44.4690132 56.3915252,44.4076489 C56.3915252,44.1628889 56.3915252,43.916037 56.3915252,43.6684878 C56.1385113,43.5101958 56.2093059,42.9858098 56,42.7787053 C56.2339302,42.4872248 56.0621762,42.1552996 56.1305084,41.8896201 C56.1409737,41.8456888 56.2542451,41.8826468 56.2610168,41.7424852 C56.2640948,41.6636878 56.3601293,41.5395645 56.3915252,41.4454261 C56.4592418,41.2494787 56.4229211,41.0340063 56.5226492,40.8527026 C56.6777819,40.5765632 57.1111683,40.409206 57.3081621,40.1107523 C57.4429797,39.906437 57.5359362,39.6533092 57.5691789,39.3708939 C57.6806035,39.2760582 58.0087214,39.3409091 58.0924437,39.2230617 C58.1047558,39.206326 58.0770536,39.0835974 58.0924437,39.0759268 C58.2758942,38.9789991 58.4316425,39.0333902 58.6163242,38.9273973 C58.682194,38.8890446 58.600934,38.7865383 58.7474482,38.7788678 C58.9155085,38.7691053 58.9099681,38.5389891 59.008465,38.4818087 C59.2467044,38.3444363 59.7182583,38.502031 59.7927466,38.0376148 L59.7927466,38.0376148 Z" id="Fill-1" fill="#002A2E"></path>
                <path d="M38.9635598,38.2592684 L38.9635598,38.2605459 L38.9635598,38.2592684 Z M53.8892507,42.7054403 C53.9256089,42.6677555 53.9929388,42.5968569 53.9929388,42.4754989 C53.9929388,42.3886322 53.9491743,42.3247596 53.9175293,42.2774939 C53.9013701,42.253861 53.8912706,42.2372541 53.8858842,42.225757 C53.9377282,42.1765751 54.0245838,42.0737403 53.988899,41.9230009 C53.9579272,41.8003655 53.8306737,41.7626807 53.7465113,41.7390478 C53.7451647,41.7390478 53.7438182,41.7377704 53.7431449,41.7377704 C53.7290056,41.6860336 53.7215993,41.6164124 53.714193,41.5410427 C53.7040935,41.4407628 53.6919741,41.3289857 53.6636956,41.2063503 L53.6468631,41.1322581 L53.5781866,41.0945733 C53.5088368,41.0568884 53.4428535,41.0128163 53.3775435,40.9706604 C53.2172984,40.8646319 53.0388742,40.7490225 52.7978331,40.6902597 C52.7803274,40.6040317 52.7372362,40.5465463 52.7076111,40.5063066 C52.6705796,40.4545698 52.6611535,40.4417953 52.6853922,40.3638707 L52.748009,40.1633107 L52.5278403,40.1454264 C52.187151,40.1211548 52.0141132,39.9384791 51.8148167,39.7276996 C51.7320009,39.6389166 51.6464919,39.549495 51.5454971,39.4670993 L51.5010594,39.4313307 L51.4020844,39.4255821 C51.2775241,39.4255821 51.1953817,39.4683768 51.1347848,39.4990356 C51.090347,39.5220298 51.0708214,39.5316107 51.038503,39.5316107 L51.018304,39.5316107 C51.0122443,39.5213911 51.0061847,39.5105327 51.0007983,39.5009518 C50.9745396,39.4536861 50.9428946,39.3949233 50.8829709,39.355961 L50.8035217,39.31636 L50.7449447,39.31636 C50.7159928,39.31636 50.6789614,39.3221085 50.6412566,39.3278571 C50.6412566,39.3278571 50.63991,39.3278571 50.6392367,39.3278571 C50.5577676,39.2652619 50.4587926,39.2467389 50.3396187,39.2537648 L50.2904679,39.255681 C50.2763286,39.255681 50.2621893,39.2550423 50.24805,39.2524874 C50.2453569,39.2429065 50.2419904,39.2346031 50.2392972,39.2250222 C50.2116919,39.1490138 50.1800469,39.0615083 50.0871316,39.0270171 C49.9470854,38.9740028 49.7908801,38.9554798 49.6400611,38.936318 C49.3498693,38.9011881 49.1694251,38.8718067 49.1020952,38.710209 L49.0576575,38.602903 L48.4200434,38.6054579 C48.3412674,38.5952383 48.297503,38.5511662 48.2220935,38.4713255 C48.1742893,38.4202274 48.1258118,38.369768 48.0672348,38.3288896 L48.0254902,38.3001469 L47.9736462,38.2956758 C47.7602105,38.2803464 47.7083664,38.2247772 47.6881675,38.1851762 L47.6201643,38.0516825 L47.4706919,38.0976707 C47.1596278,38.1928409 46.5287467,38.0529599 46.2048899,37.803218 C46.0459914,37.71699 45.7807116,37.7495651 45.5295711,37.7981082 C45.4151102,37.8204636 45.2979562,37.8466514 45.2144672,37.8428191 C45.2097541,37.7898048 45.1868619,37.7278484 45.1114524,37.6946346 L45.0468157,37.6735567 L45.0057445,37.6735567 C44.9788125,37.6735567 44.9444743,37.6780277 44.9087894,37.6812214 C44.9034031,37.6824988 44.8973434,37.6837763 44.891957,37.6837763 C44.7963485,37.6205424 44.6872741,37.6205424 44.6394699,37.6205424 L44.545208,37.6218199 C44.5176028,37.6218199 44.5048101,37.6192649 44.5061567,37.6224586 C44.3486047,37.4755516 44.0738988,37.4142339 43.7574483,37.3433353 C43.6961781,37.3305608 43.6335612,37.3165088 43.5702711,37.3011794 C43.5547853,37.2417779 43.5325664,37.1913185 43.5130407,37.1466077 C43.4766826,37.064212 43.4591768,37.0169463 43.4726428,36.9620159 C43.5049612,36.8368256 43.5500722,36.8119152 43.7002178,36.7295196 C43.7392692,36.7071642 43.7823603,36.6822539 43.8294912,36.6554274 C43.8705625,36.6292396 43.912307,36.5953871 43.9533782,36.5608959 C43.964151,36.551315 43.9755971,36.5430116 43.9863699,36.5340694 C44.0738988,36.6056067 44.2287575,36.6043293 44.3034937,36.5174626 C44.3479314,36.4759454 44.5775264,36.3935497 44.6677484,36.3609747 C44.7135328,36.3430903 44.7471977,36.3143477 44.7714365,36.2734692 C44.7741297,36.2734692 44.7768229,36.2734692 44.7801893,36.2734692 C44.8340533,36.2766628 44.9013832,36.2817726 44.9532272,36.2817726 C45.0124775,36.2817726 45.1094325,36.2817726 45.1707027,36.2070417 C45.2164871,36.1565823 45.2387059,36.106123 45.2508253,36.0646058 C45.2535185,36.0646058 45.256885,36.0646058 45.2602515,36.0646058 C45.4925396,36.0518313 45.5706423,35.9681582 45.6346057,35.8774591 C45.6406654,35.8704331 45.6453785,35.8634071 45.6494183,35.8570198 C45.6500916,35.8570198 45.6500916,35.8570198 45.6500916,35.8570198 C45.6884696,35.8634071 45.7261744,35.8691556 45.7557995,35.8691556 C45.8500614,35.8691556 45.9045986,35.8282772 45.9308572,35.7963409 C46.0257924,35.68648 46.7846003,35.3837239 47.1158634,35.3422067 L47.214165,35.3307096 L47.2552363,35.2444816 C47.3299724,35.0892712 47.4747317,34.9819652 47.6268973,34.8676332 C47.795222,34.7411655 47.984419,34.600007 48.0968599,34.3783691 L48.108306,34.373898 C48.2786506,34.3042769 48.4388958,34.2384881 48.6354991,34.2110229 L48.7492866,34.1969709 L48.781605,34.0922198 C48.8213296,33.9663908 48.9115516,33.861001 49.015913,33.7396431 C49.0765099,33.6700219 49.1377801,33.5997621 49.1936639,33.52056 C49.2407948,33.4547713 49.2690734,33.3781241 49.2973519,33.3033932 C49.3667017,33.1200788 49.3976735,33.0836714 49.479816,33.0836714 L49.6656465,33.082394 L49.6575669,32.9054669 C49.6346747,32.443668 49.7551952,32.1179177 50.0245148,31.9128866 L50.0878049,31.8649822 L50.0911714,31.7870576 C50.1026175,31.5162378 49.9901766,31.3495303 49.8999545,31.2153978 C49.8231984,31.1023433 49.7626015,31.0129217 49.7652947,30.85835 L49.7666413,30.7702058 L49.6919051,30.718469 C49.53166,30.6073306 49.3525625,30.5613424 49.1216209,30.5747556 C48.7385138,30.1327572 48.2550852,29.6166666 47.4020154,29.4633723 C47.3979756,29.4116355 47.3838364,29.3477629 47.3286258,29.2960261 L47.241097,29.2372633 L47.1663608,29.2372633 C47.135389,29.2372633 47.0963377,29.2430118 47.0579597,29.2500378 C47.0559398,29.2500378 47.0545932,29.2500378 47.0539199,29.2500378 C47.0458403,29.244928 47.0377607,29.2404569 47.0296811,29.2347084 C46.966391,29.1919138 46.8606831,29.1216539 46.8236516,29.039897 L46.7596882,28.900016 L46.6055028,28.9447268 C46.5018147,28.9753856 46.3691748,28.9364234 46.2277821,28.8904351 C46.1692051,28.8712733 46.1119747,28.8540277 46.0554175,28.8399757 C45.9086384,28.8035683 45.6164266,28.4886764 45.5214915,28.4535465 C45.4218432,28.4171391 45.328928,28.3839253 45.2124473,28.3564601 C45.1774357,28.3481567 45.132998,28.3398532 45.0838472,28.3309111 C44.9020565,28.2976973 44.5977253,28.2421282 44.5909923,28.1022472 C44.5909923,28.1022472 44.2213512,28.0383746 44.1944193,28.0747819 C44.1681606,28.0575363 44.1412287,28.0492329 44.1203564,28.046678 L44.0584129,28.039652 C44.022728,28.039652 43.9271196,28.0479554 43.8651761,28.132906 C43.8247781,28.1233251 43.7803404,28.1118281 43.7385959,28.1022472 C43.6402942,28.0760594 43.5392994,28.0511491 43.4510972,28.0434844 C43.3332699,28.0339035 43.1999567,28.0383746 43.0720299,28.0422069 C42.9717084,28.046678 42.8767732,28.0498716 42.8013638,28.0434844 L42.7165281,28.0358197 C42.2654178,27.9949412 41.9496406,27.9783343 41.4581324,28.0447618 C41.4062884,28.0511491 41.3517511,28.0454005 41.2978872,28.0409295 C41.1948725,28.0313486 41.0938776,28.0287937 41.009042,28.0479554 C40.9295927,28.0658398 40.8790953,28.1054408 40.833311,28.1456805 C40.7868533,28.1456805 40.7605947,28.132906 40.7127904,28.1092731 C40.6420941,28.0747819 40.5444657,28.0256 40.3801808,28.0447618 C39.7122682,28.1175766 39.1709359,28.5321098 38.8167806,29.0092381 L38.7312717,29.1248475 L38.8975765,29.2864452 C38.9965514,29.3841703 39.083407,29.4678434 39.1440039,29.5163866 C39.1527568,29.5304386 39.1628563,29.5553489 39.1736291,29.5796205 C39.214027,29.6741519 39.2436522,29.743773 39.3231014,29.7757093 C39.3857182,29.8025358 39.4678607,29.8006197 39.572222,29.7846515 C39.5951142,29.7827353 39.6159865,29.778903 39.6368587,29.7776255 C39.7742117,29.8817379 39.9472495,29.8696021 40.121634,29.8261687 C40.2374414,29.7967873 40.3721012,29.7629348 40.5633181,29.7776255 C40.6070825,29.8485241 40.6777789,29.9111193 40.7760805,29.9111193 L40.8905414,29.8945124 L40.9444053,29.8306398 C40.9679707,29.8038133 40.9881697,29.7705995 41.0083687,29.7354696 C41.0124085,29.7284436 41.0171216,29.7201402 41.0204881,29.7131142 C41.0642525,29.7482441 41.132929,29.7916775 41.2467165,29.7916775 L41.2473898,29.7916775 C41.3618506,29.7872064 41.4857376,29.7539927 41.5948121,29.7246113 C41.6513692,29.7092818 41.7368781,29.6882039 41.7584237,29.6869264 C41.8223871,29.6952299 41.8681714,29.7226951 41.9301149,29.7603799 C42.0189904,29.8133942 42.1294114,29.879183 42.3078356,29.8932349 L42.3307278,29.8957898 L42.35362,29.8919575 C42.5212714,29.8638535 42.6121668,29.8600212 42.6794967,29.8568276 C42.7892444,29.8523565 42.8612874,29.8459692 43.0107597,29.792955 C43.0397116,29.851079 43.1070415,29.9864889 43.2881589,29.9960698 L43.3076846,29.9973473 L43.3265369,29.9947924 C43.5224669,29.965411 43.6436607,29.9992635 43.7897666,30.0420581 C43.9264463,30.0810204 44.0860181,30.1250925 44.3055136,30.1097631 C44.4294006,30.2247337 44.585606,30.2445343 44.696027,30.2560313 C44.7539307,30.263696 44.8084679,30.2688058 44.8360732,30.2822191 C44.8421328,30.2866902 44.8555988,30.3071294 44.8663716,30.3199039 C44.9034031,30.3716407 44.9599602,30.4482879 45.0636482,30.4929987 L45.1282849,30.5153541 L45.1693561,30.5153541 C45.1962881,30.5153541 45.2312996,30.510883 45.2663112,30.5064119 C45.2683311,30.5064119 45.270351,30.5064119 45.2730442,30.5051345 C45.3726924,30.6073306 45.5894947,30.8091681 45.7625325,30.8168328 C45.8285158,30.830246 45.9914541,30.8832603 46.0554175,30.9196677 C46.1018752,31.0787104 46.3058847,31.1579125 46.4876755,31.2281723 C46.5570253,31.2543601 46.6250284,31.2799091 46.6721594,31.3073744 C46.7112107,31.3310072 46.750262,31.375718 46.7960464,31.4261774 C46.8465438,31.4843015 46.9044475,31.5475353 46.9825502,31.6069369 C47.0478602,31.6548413 47.130676,31.6701707 47.2107985,31.6842227 C47.2168582,31.6867776 47.2256111,31.6880551 47.2330174,31.6893325 C47.2222446,31.7595924 47.2222446,31.8509302 47.306407,31.9141641 C47.331319,31.9333259 47.3737369,31.9556813 47.4356804,31.9556813 L47.4592458,31.9518489 C47.4713652,31.9627073 47.4834846,31.9729269 47.4969506,31.9837852 C47.5521611,32.0297735 47.6093915,32.0757618 47.6652753,32.1396344 C47.6571957,32.2514114 47.6672952,32.3644659 47.6773947,32.4660234 C47.6888408,32.5816328 47.6989403,32.6908549 47.6787413,32.7662246 C47.6464229,32.8843889 47.5622606,32.9629522 47.389896,33.1156077 L47.2949609,33.1999196 C47.2316708,33.2580436 47.1737671,33.3168064 47.1158634,33.3768467 C47.0350675,33.4592423 46.9583114,33.5384444 46.8748224,33.6004008 C46.8633763,33.6087042 46.8182652,33.6157302 46.7886401,33.62084 C46.718617,33.6316984 46.6304148,33.6457503 46.549619,33.7032357 C46.495755,33.7409205 46.4593969,33.7830764 46.4270786,33.8201225 C46.3981267,33.853975 46.3745612,33.8814402 46.3415696,33.9025182 C46.1247673,34.0436767 45.9207578,34.1497052 45.8163964,34.2008033 C45.7941776,34.2123003 45.7557995,34.2206038 45.7147283,34.2301847 C45.6500916,34.2455141 45.5706423,34.2640371 45.4905197,34.3055543 C45.432616,34.3349357 45.3841385,34.38795 45.3282547,34.4492677 C45.3053625,34.4760942 45.2831437,34.5022819 45.2925698,34.5022819 C45.2312996,34.5246374 45.1808022,34.5265535 45.0892336,34.5265535 C44.9626534,34.5201663 44.8569454,34.5329408 44.7155526,34.6223624 C44.6637086,34.6542987 44.6320636,34.6613247 44.5479012,34.679209 L44.4462331,34.700287 C44.3587042,34.721365 44.2462633,34.7782116 44.1041972,34.8497489 C43.9008609,34.9513063 43.6275016,35.0879937 43.4403245,35.1052393 C43.2349683,35.005598 43.2571871,34.7264748 43.3689548,34.2691469 C43.3938668,34.0730581 43.3420228,33.9663908 43.1750447,33.8929373 C43.1750447,33.8929373 43.1609054,33.875053 43.1508059,33.8118191 C43.1312802,33.6879063 43.1831243,33.4311384 43.2241955,33.222275 L43.259207,33.0434317 C43.2699798,32.9853076 43.2740196,32.9150478 43.2787327,32.8415943 C43.2847924,32.7566437 43.2948919,32.5956848 43.3144176,32.5675808 L43.4241653,32.5586386 L43.4645632,32.462191 C43.5615183,32.2335271 43.4073328,32.1019495 43.3083579,32.0393544 C43.3413495,31.9837852 43.3669349,31.9084155 43.3224971,31.8272973 C43.3123977,31.8106905 43.3016249,31.795361 43.2874856,31.7825865 C43.3487558,31.4676946 43.4147391,30.8609049 43.123874,30.4757531 C42.9898875,30.298826 42.7946308,30.1940749 42.5576295,30.1717195 C42.110559,30.1314797 41.9456008,30.3869702 41.7988216,30.6086081 C41.6931137,30.7702058 41.5927922,30.9209451 41.3840695,31.0084506 L41.24335,31.0672134 L41.2824013,31.2070944 C41.3544443,31.464501 41.3079867,31.697636 41.250083,31.9933661 C41.1935259,32.2833477 41.1288892,32.6103755 41.1679405,33.0306572 C41.1766934,33.121995 41.2029521,33.2069456 41.2278641,33.2893412 C41.2541228,33.3755692 41.2790349,33.4566874 41.277015,33.5243924 C41.277015,33.5307797 41.2776883,33.5441929 41.2776883,33.5607998 C41.2736485,33.5607998 41.2689354,33.5607998 41.2648956,33.5607998 L41.0898379,33.5652709 L41.0635792,33.7045131 C41.0501132,33.7754117 41.0790651,33.8399231 41.1154232,33.9197638 C41.1342756,33.9600035 41.1652473,34.0296247 41.1719803,34.0922198 C41.1874662,34.2218812 41.2143982,34.4396868 41.1585143,34.6364144 C41.1248494,34.6740992 41.0629059,34.7437204 41.0602127,34.861246 C41.0568462,34.9947397 41.0911844,35.1186526 41.1235028,35.2374556 C41.1800599,35.4437641 41.2069919,35.565122 41.1033038,35.6807315 L41.0756986,35.7228874 C41.0413603,35.7969796 40.9026607,35.8314708 40.6266082,35.8314708 L40.2623535,35.8269997 L40.1425062,35.8282772 L40.0980685,35.9330282 C40.0401648,36.0671607 40.0179459,36.0799352 39.8617406,36.1521113 C39.8280756,36.1674407 39.7223677,36.1763829 39.6516713,36.1840476 C39.5163382,36.1980995 39.3877381,36.2108741 39.299536,36.2651658 C39.1547767,36.35331 39.0059776,36.539818 38.8477524,36.7365456 C38.7649366,36.8393805 38.684814,36.9390217 38.6134443,37.0124752 C38.581126,37.0450502 38.5171626,37.0814576 38.4565657,37.1159488 C38.3562441,37.1727955 38.2417833,37.2373068 38.1663738,37.3388642 C38.0849047,37.4480864 38.0673989,37.5368693 38.0546062,37.5994644 C38.0424868,37.6582272 38.0397936,37.6722792 37.9832365,37.7144351 L37.869449,37.8019406 L37.9354323,37.9252147 C38.0828848,38.1992282 38.3569174,38.4183112 38.6888538,38.5243397 L38.756857,38.5332819 C38.8248602,38.5332819 38.8767042,38.5064554 38.9177755,38.477074 C38.9635598,38.5077328 39.0187703,38.5288108 39.0820604,38.5320044 L39.148717,38.5300883 C39.2362459,38.5441402 39.3029025,38.5639407 39.3621528,38.5818251 C39.4382355,38.6054579 39.5102785,38.6265359 39.5957875,38.6335619 C39.6745635,38.6418653 39.7991238,38.6482526 39.8758799,38.6303682 C39.905505,38.6220648 39.9250307,38.6118452 39.9593689,38.591406 C40.0165993,38.5588309 40.0543041,38.5383917 40.0771962,38.5275334 C40.1701115,38.5984319 40.2737995,38.6092903 40.3667148,38.6092903 L40.5121474,38.6067354 C40.5740909,38.6067354 40.6589265,38.6092903 40.7693476,38.6329231 C40.8440837,38.6469751 40.9013141,38.6821051 40.9679707,38.724261 C41.0554996,38.7798301 41.1625541,38.8468964 41.3120265,38.8551998 L41.3456914,38.9708092 L41.1679405,38.9957195 C41.1706337,39.0167975 41.1746735,39.0359593 41.1800599,39.0532049 L41.2002589,39.1496525 L41.2278641,39.1496525 C41.2615291,39.1962795 41.301927,39.2288545 41.3342454,39.255681 C41.3557909,39.2735654 41.3854161,39.2984757 41.3867627,39.3067791 C41.3955156,39.3853424 41.3908025,39.4658219 41.387436,39.5456626 C41.3820496,39.6363617 41.3780098,39.7276996 41.3860894,39.8171212 C41.3988821,39.955086 41.4332203,40.0406753 41.4601523,40.109019 C41.4790046,40.1575622 41.4904507,40.188221 41.4944905,40.2284608 C41.5018968,40.3044692 41.4837177,40.3376829 41.4534193,40.3932521 C41.4231208,40.4481825 41.3813763,40.5241909 41.3854161,40.628942 C41.3881093,40.7055891 41.4217742,40.7675455 41.4493795,40.8173662 C41.4769847,40.8671868 41.4931439,40.8978456 41.4938172,40.9374467 C41.4965104,41.060082 41.4931439,41.18144 41.4884308,41.3040754 C41.4823711,41.4893059 41.4763114,41.6815625 41.4944905,41.8731803 C41.50459,41.9792088 41.531522,42.0724628 41.5550874,42.1548585 C41.5779796,42.2359767 41.5981786,42.3068752 41.6022183,42.37969 C41.6136644,42.5853598 41.6190508,42.7878359 41.6251105,42.9883959 C41.6459828,43.7197372 41.6655084,44.4114775 41.9429076,45.0112412 L41.9671464,45.065533 L42.0210103,45.0923594 C42.1698094,45.1709227 42.3253414,45.2086076 42.4835667,45.2086076 C42.7468265,45.2086076 42.9818079,45.1044952 43.1898572,45.0099638 C43.2820992,44.9697241 43.3736679,44.9288456 43.4645632,44.8994642 L43.5514188,44.8713602 L43.5783507,44.7883259 C43.6766524,44.4855697 43.6860786,44.417226 43.6073026,44.1617356 C43.8214117,43.9036903 43.7796671,43.652671 43.7359027,43.3875997 C43.7210901,43.2956231 43.7035843,43.1953432 43.6948315,43.0810112 C43.6921383,43.0490749 43.6941582,43.0471587 43.7190702,43.0126675 C43.750042,42.9705116 43.8032326,42.899613 43.8032326,42.7840036 C43.8032326,42.7073565 43.7736074,42.6402902 43.7439823,42.5751402 C43.6995445,42.4754989 43.6530869,42.3707479 43.7056042,42.1912658 C43.7392692,42.153581 43.801886,42.0833211 43.8032326,41.9632406 C43.8045792,41.841244 43.7655278,41.7473513 43.7325362,41.6649556 C43.6874252,41.5538173 43.6497204,41.4592858 43.7035843,41.2689455 C43.7392692,41.2299832 43.8059258,41.1565297 43.8032326,41.0326168 C43.801886,40.9055103 43.7736074,40.7918171 43.7453289,40.6819562 C43.7224367,40.5899797 43.7008911,40.5011968 43.6948315,40.4085815 C43.6833854,40.2246284 43.6813655,40.0457851 43.6800189,39.8714129 C43.677999,39.5775989 43.6753058,39.2959208 43.6268283,39.029572 C43.8368975,39.0180749 44.0422537,39.0206298 44.2503031,39.0359593 C44.2933942,39.1049417 44.3647639,39.1643432 44.4617189,39.1643432 L44.5755065,39.1490138 L44.5768531,39.1464589 C44.5781997,39.1464589 44.5808929,39.1477363 44.5822395,39.1477363 C45.1094325,39.1994731 45.563236,39.2652619 45.9712552,39.3514899 C46.0937956,39.3776777 46.2149894,39.409614 46.3341633,39.4409116 C46.5018147,39.4856224 46.6755259,39.5328881 46.8485637,39.5584372 C46.914547,39.5686568 46.9610046,39.5731279 46.9980361,39.575044 C47.0155418,39.5775989 47.0290078,39.5775989 47.031701,39.5763215 C47.0337209,39.5775989 47.0444937,39.5846249 47.0754654,39.6140063 L47.3185264,39.7276996 L47.4336605,39.5686568 C47.4464532,39.5622695 47.4565526,39.5584372 47.4626123,39.5552435 C47.6289172,39.5156425 47.9507541,39.656801 48.2180537,39.7819913 C48.3796455,39.8560835 48.531811,39.9263434 48.6913829,39.9697767 C48.9809014,40.0125714 48.9068386,40.1249871 49.0300523,40.0496175 C49.0556376,40.0355655 49.0785298,40.0202361 49.1020952,40.0081003 C49.1727916,40.041314 49.2508943,40.0451464 49.2993718,40.0477013 C49.3121645,40.04834 49.3283237,40.0496175 49.3404431,40.0496175 C49.3438096,40.0579209 49.3471761,40.0675018 49.3505426,40.076444 C49.3794944,40.1511749 49.4091196,40.2290995 49.4905887,40.2687005 C49.5882171,40.3159662 49.6642999,40.2993594 49.7511554,40.2923334 C49.7760675,40.2897785 49.8023261,40.2878623 49.8279115,40.2878623 L49.6892119,40.6295807 L50.0736656,40.4807575 C50.3140333,40.3881423 50.1807202,40.5376042 50.3759768,40.6334131 C50.4803382,40.6838724 50.6136514,40.7975657 50.7759164,40.8326956 C50.7846693,40.9521373 51.1293984,41.2165699 51.0398496,41.3743353 L51.4869201,41.4018005 C51.4983662,41.4267108 51.5111589,41.4580084 51.5192384,41.4810025 C51.5454971,41.5467913 51.5717558,41.6164124 51.6283129,41.6707041 L51.7144951,41.7294669 L51.7872114,41.7294669 C51.7939444,41.7294669 51.8013507,41.7281895 51.808757,41.7281895 C51.8141434,41.7390478 51.8215497,41.7486287 51.8303026,41.7588483 L51.874067,41.8093077 C52.1662787,42.1446388 52.3211375,42.3739415 52.3352768,42.4933832 C52.3554757,42.6722265 52.3090181,42.9749827 52.2383217,43.1295544 C52.1757049,43.2694354 51.691603,43.7235696 51.4431557,43.8730315 C51.3886185,43.9056065 51.3529336,43.9477624 51.3374477,43.9745889 C51.3145556,43.9873634 51.2856037,44.0052478 51.2532854,44.0263257 C51.1792225,44.0735914 51.0566821,44.1534322 50.9859857,44.1572645 C50.9072097,44.1598195 50.8432463,44.1866459 50.797462,44.2351891 C50.7449447,44.2901196 50.7355185,44.3552696 50.7368651,44.412755 C50.7132996,44.4185035 50.6863677,44.4248908 50.6661687,44.4280844 C50.6055718,44.4402202 50.5368953,44.4536334 50.4722586,44.4868472 C50.4520596,44.498983 50.3948292,44.506009 50.3483716,44.51048 C50.2594961,44.5213384 50.1477285,44.5334742 50.0420206,44.5896821 C49.9645912,44.6286444 49.9228467,44.6874071 49.8925482,44.7308405 C49.8662895,44.7672479 49.8555168,44.7806611 49.838011,44.7883259 C49.7255701,44.836869 49.6198621,44.8617794 49.518194,44.8866897 C49.4044065,44.9147936 49.2879258,44.9422588 49.1768314,44.9997442 C49.1350869,45.0208221 49.1034418,45.051481 49.0818963,45.0904433 C48.9600292,45.1198247 48.9128982,45.2162723 48.8933726,45.291642 C48.7142751,45.3095263 48.565476,45.3695665 48.4092706,45.4321617 C48.3506936,45.4557946 48.2887501,45.4800661 48.2227668,45.503699 C48.1715961,45.5215833 48.1224453,45.5286093 48.0645416,45.5356353 C47.9783593,45.5477711 47.880731,45.5605456 47.7730031,45.6135599 C47.7157727,45.6397477 47.6693151,45.6889296 47.599292,45.7668541 C47.5817862,45.7853772 47.5656271,45.8058164 47.5514878,45.8185909 C47.4828113,45.8364753 47.3946091,45.8447787 47.3010206,45.8537209 C47.1811734,45.8645792 47.0559398,45.8773537 46.9636978,45.9067351 C46.9502318,45.9067351 46.9320528,45.904819 46.9132004,45.902264 C46.7819071,45.8894895 46.6869719,45.9003479 46.6250284,45.9718852 C46.6182955,45.9801886 46.6122358,45.9884921 46.608196,45.9967955 C46.522687,45.9929631 46.4607435,46.0153186 46.4035131,46.0791912 C46.3907204,46.0977142 46.3819675,46.1155985 46.3765811,46.1366765 C46.2069098,46.1577545 46.0298322,46.1577545 45.844675,46.1590319 C45.5942078,46.1615868 45.3100756,46.1628643 45.0010314,46.2158785 C44.9337015,46.2273756 44.8825308,46.2510085 44.8374198,46.2733639 C44.7882689,46.2957193 44.7532574,46.3123262 44.696027,46.3155198 L44.6542824,46.3167972 C44.5829128,46.3167972 44.5512677,46.303384 44.500097,46.2791124 C44.4899975,46.2746413 44.4785514,46.2701702 44.466432,46.263783 L44.4677786,46.242705 L44.3142665,46.217156 C44.3109,46.217156 44.3075335,46.217156 44.304167,46.2158785 L44.283968,46.3257394 C44.2698287,46.303384 44.2529963,46.2854997 44.2348172,46.2714477 L44.2327973,46.2133236 L44.0584129,46.2133236 L44.0584129,46.2146011 C44.0550464,46.2146011 44.0516799,46.2133236 44.0489867,46.2146011 L44.0536998,46.3876958 L44.0281144,46.4017478 L43.8914347,46.3302105 C43.8948012,46.3263781 43.912307,46.3167972 43.9345259,46.3155198 C43.9096138,46.3155198 43.8746023,46.3123262 43.8355509,46.31041 C43.7675477,46.3040227 43.6867519,46.2982742 43.6079759,46.2982742 C43.4591768,46.2982742 43.3426961,46.3231845 43.2598803,46.3736439 C43.2268887,46.3583144 43.1905305,46.3442625 43.1460928,46.3263781 L43.0578907,46.3123262 C43.0323053,46.3123262 42.997967,46.3155198 42.9636288,46.3206296 C42.9568958,46.3206296 42.9508361,46.321907 42.9447764,46.321907 C42.835702,46.2414276 42.6963291,46.2395114 42.4613478,46.2759188 C42.3893048,46.2867771 42.3058157,46.3001904 42.2081874,46.3091325 C42.0970931,46.1992717 41.9200154,46.2146011 41.7880489,46.2663379 C41.7220656,46.2925257 41.6682016,46.3123262 41.5699,46.3155198 C41.4204276,46.3110487 41.0332807,46.2803899 40.9201665,46.249731 C40.8817885,46.2075751 40.8238848,46.1577545 40.7383758,46.1577545 C40.6717192,46.1577545 40.6259349,46.1896908 40.5990029,46.2133236 C40.5256133,46.2050202 40.4421243,46.1852197 40.3593085,46.1666966 C40.252254,46.1411476 40.1472193,46.1181534 40.0610371,46.1111275 C39.9748548,46.1034627 39.8859793,46.10985 39.7964306,46.1143211 C39.7082284,46.1187922 39.619353,46.1264569 39.533844,46.1136824 C39.4806534,46.1047402 39.4584345,46.0881333 39.4092837,46.0530034 C39.3493601,46.00957 39.2672176,45.9520847 39.1204384,45.9118449 C38.9628865,45.8684116 38.7810958,45.8601081 38.587859,45.8505272 C38.4606055,45.8447787 38.3293122,45.837114 38.2141781,45.8198684 C38.1535812,45.7266144 38.065379,45.7023428 37.9960292,45.6997879 C37.8263579,45.690207 37.4028528,45.6569933 37.0210923,45.5241382 C36.9941604,45.4800661 36.9423164,45.4206646 36.8393016,45.3957543 C36.7901508,45.3836185 36.7463864,45.3753151 36.707335,45.3663729 C36.5699821,45.3389077 36.5073653,45.3261332 36.362606,45.2201047 C36.1895682,45.0936369 35.8690779,44.8592244 35.4199875,44.7755513 L35.2058784,44.7365891 L35.2058784,44.8636955 C35.1749067,44.8688053 35.1392218,44.8745539 35.103537,44.8892446 C35.0133149,44.9218196 34.9426185,44.9856922 34.873942,45.0457324 C34.8099786,45.1044952 34.7426487,45.1645355 34.6605063,45.1996654 L34.601256,45.2258532 L34.5736507,45.2826998 C34.5655711,45.2967518 34.515747,45.3178297 34.4760224,45.3344366 C34.4194652,45.356792 34.3555018,45.3829798 34.2969248,45.4283293 L34.189197,45.5120024 L34.1979499,45.5298868 C34.1568787,45.5720427 34.1124409,45.6161148 34.0962817,45.6288893 L34.1925635,45.7655767 L34.0181791,45.7310855 C34.0175058,45.7323629 34.0168325,45.7349178 34.0168325,45.7361953 L34,45.8141199 L34.0148126,45.8313655 C34.0410712,45.9648592 34.1817907,46.0370352 34.241041,46.0670554 C34.2565269,46.0747201 34.2706662,46.0804686 34.2619133,46.0670554 C34.2720128,46.0823848 34.2767259,46.1136824 34.281439,46.1488123 C34.2915384,46.217156 34.3050044,46.3136036 34.3884935,46.3985542 C34.5137271,46.5211896 34.6517534,46.5844234 34.7843933,46.643825 C34.8328708,46.6661804 34.8833682,46.6885358 34.9331923,46.7153623 C34.966184,46.7888158 35.0294741,46.8341653 35.1257558,46.8571595 L35.2031852,46.8648242 C35.2328104,46.8648242 35.2631088,46.8616305 35.2940806,46.8584369 C35.3014869,46.8571595 35.3075465,46.855882 35.3142795,46.8546046 C35.3317853,46.8724889 35.3533309,46.8967605 35.3674701,46.9133673 C35.4294137,46.9829885 35.4738514,47.0347253 35.5425279,47.0583582 C35.7182589,47.117121 35.9040894,47.1337278 36.0535618,47.1465023 C36.1175252,47.1541671 36.1740823,47.1586381 36.2279462,47.168219 C36.3053756,47.1797161 36.3484667,47.2212333 36.4238762,47.301074 C36.4669673,47.3483398 36.5161181,47.4000766 36.5800815,47.4447874 L36.6211528,47.4741688 L36.6723235,47.4780012 C36.8823928,47.494608 37.092462,47.5035502 37.3025313,47.515686 C37.8324176,47.541235 38.333352,47.5661453 38.7898487,47.6772837 C38.8039879,47.7015553 38.842366,47.7679828 38.9231619,47.7833122 L38.9972247,47.7903382 C39.0187703,47.7903382 39.0928332,47.7877833 39.1514102,47.7373239 C39.2308595,47.7935318 39.3365674,47.8682628 39.4772869,47.8880633 L39.527111,47.8912569 C39.572222,47.8912569 39.657731,47.8835922 39.7607457,47.8727338 C39.898772,47.8586819 40.074503,47.8407975 40.218589,47.8407975 C40.3377629,47.8407975 40.3721012,47.8535721 40.3747944,47.8618755 C40.4461641,47.9327741 40.5202269,47.9928143 40.6986512,47.9928143 C40.833311,47.9928143 40.9477718,47.9634329 41.0494399,47.9366064 C41.1403353,47.9129736 41.2265175,47.8906182 41.3389585,47.8906182 C41.3396318,47.8906182 41.3403051,47.8906182 41.3403051,47.8906182 C41.4534193,47.8938118 41.5651869,47.9136123 41.6836875,47.9366064 C41.8122876,47.9596006 41.9456008,47.9857883 42.0970931,47.9928143 C42.3037958,48.0036727 42.5145384,47.9998403 42.7394203,47.9966467 L43.1299336,47.9896207 L43.1312802,47.9845109 C43.142053,47.9870658 43.1541724,47.9908982 43.1662918,47.9915369 C43.214096,47.9972854 43.26594,47.9998403 43.3191306,47.9998403 C43.3790543,47.9998403 43.4396512,47.9966467 43.5251601,47.9928143 C43.6753058,47.9857883 43.7736074,47.9481035 43.8463237,47.9199996 C43.8968211,47.9001991 43.9224065,47.8906182 43.9614578,47.8906182 C44.0328275,47.8906182 44.0826516,47.9116961 44.1405554,47.9366064 C44.2018256,47.9634329 44.2725219,47.9928143 44.3613974,47.9928143 L44.4017953,47.9915369 C44.5593473,47.9755687 44.6717882,47.9174447 44.7714365,47.8669853 C44.8380931,47.8324941 44.9000366,47.8005578 44.995645,47.7788411 C45.0198838,47.7788411 45.0454691,47.7820347 45.0703812,47.7839509 C45.1484839,47.7922544 45.2286064,47.7960867 45.2871834,47.7833122 C45.3706725,47.7667053 45.4218432,47.727743 45.4561815,47.7015553 L45.4891731,47.6843097 C45.6467251,47.6651479 45.7786917,47.6638704 45.9019054,47.6613155 C46.1200542,47.6568444 46.3260837,47.6536508 46.5913635,47.5770037 L46.6957248,47.5214345 L46.7233301,47.4754463 C46.7287165,47.4767237 46.7354495,47.4767237 46.7415092,47.4780012 C46.8088391,47.4863046 46.8734758,47.4882208 46.9307062,47.4709752 C47.0485335,47.4352065 47.1178833,47.3400363 47.1643409,47.2774412 C47.1697273,47.2704152 47.1751137,47.2621118 47.1805001,47.2550858 C47.2491766,47.2384789 47.2390771,47.2384789 47.2889012,47.2691377 C47.3643107,47.3125711 47.5279223,47.3706952 47.7339518,47.2461436 C47.7730031,47.2212333 47.7972419,47.1931293 47.8134011,47.1631092 C47.9440211,47.1420313 48.1332181,47.0736876 48.2517187,46.9325291 C48.3951314,46.9785174 48.558743,46.94211 48.7014824,46.8993154 C48.8368155,46.8584369 48.9694554,46.8252232 49.1115214,46.8571595 L49.2131896,46.8801536 L49.2845593,46.8073388 C49.4070997,46.6815098 49.5915836,46.597198 49.7868403,46.5090538 C50.0817452,46.3761988 50.4103151,46.228653 50.563154,45.9003479 C50.6587624,45.9003479 50.718686,45.8473336 50.7543709,45.8141199 C50.8304536,45.7751576 50.8870107,45.7093688 50.9368349,45.6512447 C50.9543406,45.6314442 50.96646,45.6135599 50.9590537,45.6135599 C51.0216705,45.5873721 51.1381512,45.5841785 51.2505922,45.5809849 C51.4000645,45.5758751 51.5697359,45.5701265 51.7138218,45.5120024 C51.8181832,45.471124 51.8511748,45.3733989 51.8774335,45.2941969 C51.8787801,45.291642 51.8794534,45.2890871 51.8801267,45.2871709 C51.8895529,45.284616 51.8996524,45.2814224 51.9110984,45.2788674 C52.0733635,45.2328792 52.4234789,45.1325992 52.4746496,44.7921582 C52.7150174,44.7455312 52.8476573,44.5928757 52.9486521,44.4766276 C52.9850102,44.4319167 53.0220417,44.3878446 53.0664794,44.3514373 C53.1210166,44.3048103 53.1688209,44.2549896 53.2179717,44.2038915 C53.3209864,44.0959468 53.4017823,44.0109963 53.5350955,43.9765051 L53.6192578,43.9554271 L53.6542694,43.87878 C53.7088066,43.7567833 53.6724485,43.659697 53.621951,43.5856048 C53.6771616,43.5645268 53.7310255,43.5332292 53.759304,43.4725502 C53.7889292,43.4137875 53.799702,43.3511923 53.8104747,43.2911521 C53.8300004,43.1800137 53.8414465,43.1589358 53.8636654,43.1531872 L53.9633136,43.125722 L53.9882257,43.0292744 C54.0313168,42.8574571 53.9464811,42.7571771 53.8892507,42.7054403 L53.8892507,42.7054403 Z" id="Fill-2" fill="#002A2E"></path>
                <path d="M96.8467028,35.6232411 C96.6675269,35.7490242 96.3458966,35.7419378 96.3079087,36 C96.0122368,35.6232411 95.5494183,35.9379942 95.232853,35.7490242 C95.256912,35.7637875 95.0549433,35.3645884 94.9625063,35.2470727 C94.8213181,35.0669606 94.6396097,34.9943253 94.558569,34.8697232 C94.4705638,34.7350821 94.5326106,34.4120615 94.4243453,34.242579 C94.2863228,34.0270351 94.0242068,34.1274254 94.020408,33.8664106 C93.8925156,33.6325602 94.4237122,33.4465429 94.020408,33.3650496 C94.1615961,33.1075779 94.5281787,33.2020629 94.9625063,33.1134833 C95.1689068,33.0721461 95.4227922,32.8802234 95.9052377,33.1134833 C95.9628526,33.1412382 95.9900772,33.3437904 96.0388282,33.3650496 C96.0977094,33.3892614 96.2616902,33.325484 96.3079087,33.3650496 C96.4073102,33.448905 96.4092096,33.7441706 96.5776223,33.9921938 C96.624474,34.0612859 96.7979518,34.0565617 96.8467028,34.1167958 C96.8821582,34.1616762 96.8017506,34.3347019 96.8467028,34.3695432 C97.0442396,34.5195382 96.891022,34.6636278 96.8467028,35.1224706 C96.8505016,35.0823144 97.0626004,35.187429 96.9815597,35.2470727 C96.8758268,35.3267944 96.8277089,35.4307279 96.8467028,35.6232411" id="Fill-3" fill="#002A2E"></path>
                <g id="Group-9" transform="translate(0.000000, 27.000000)">
                    <mask id="mask-2" fill="white">
                        <use xlink:href="#path-1"></use>
                    </mask>
                    <g id="Clip-5"></g>
                    <path d="M97.8909137,19.4126667 C97.4779645,19.3473333 97.1089036,19.5013333 96.7597919,19.4126667 C96.7252132,19.4046667 96.7451624,19.2786667 96.6181523,19.2706667 C96.6427563,19.272 96.2018782,19.138 96.1938985,19.13 C96.1599848,19.0913333 96.2357919,18.87 96.1938985,18.8466667 C96.1061218,18.7953333 95.840797,18.914 95.7703096,18.8466667 C95.7011523,18.78 95.8414619,18.4846667 95.7703096,18.4206667 C95.7330711,18.388 95.5089746,18.462 95.4876954,18.4206667 C95.4497919,18.3513333 95.5069797,18.2146667 95.4876954,18.138 C95.4511218,17.9933333 95.3806345,18.0673333 95.3467208,17.996 C95.2183807,17.72 95.0215482,17.0326667 94.6405178,16.862 C94.974335,16.44 94.3306396,15.892 94.6405178,15.4453333 C94.6125888,15.2853333 94.4988782,15.3673333 94.4988782,15.4453333 C94.2116091,15.4893333 94.5274721,15.0366667 94.6405178,15.0206667 C94.3126853,14.6226667 94.8227208,14.2073333 94.4988782,13.746 C94.9590406,13.676 94.8107513,13.1746667 95.0641066,13.038 C95.4511218,12.8293333 96.1952284,13.0393333 96.4771777,13.3213333 C96.650736,13.4946667 97.0430711,13.8686667 97.3250203,14.0286667 C97.3389848,14.264 97.3050711,14.504 97.3250203,14.7366667 C97.3429746,14.944 97.4799594,15.1966667 97.4659949,15.4453333 C97.4520305,15.6926667 97.2977563,15.7526667 97.3250203,16.0133333 C97.3556091,16.314 97.5019036,16.716 97.6069695,17.0053333 C97.6009848,16.988 97.3875279,16.9806667 97.4659949,16.862 C97.2598528,16.9246667 97.4799594,16.9866667 97.4659949,17.1446667 C97.4799594,17.2006667 97.7452843,17.4026667 97.7492741,17.43 C97.7964873,17.7953333 97.490599,17.8733333 97.7492741,18.2786667 C97.8237513,18.3986667 98.0558274,19.0753333 97.8909137,19.4126667" id="Fill-4" fill="#002A2E" mask="url(#mask-2)"></path>
                    <path d="M81.2811777,12.672 C81.8603706,12.5 82.1383299,12.0766667 82.8252487,12.2073333 C82.8678071,11.6666667 83.473599,11.876 83.7528883,11.742 C83.8114061,11.7133333 83.8326853,11.466 83.9058325,11.4333333 C84.0341726,11.376 84.2363249,11.4766667 84.3699848,11.4333333 C84.5561777,11.374 84.5136193,11.1833333 84.678533,11.124 C84.8600711,11.0573333 85.1081066,11.1746667 85.2949645,11.124 C85.3721015,10.94 85.4605431,10.772 85.6048426,10.6586667 C86.1507868,10.59 86.6328934,10.108 87.1482487,9.73066667 C87.639,9.37266667 88.2055584,9.07933333 88.5380457,8.64733333 C88.5872538,8.58466667 88.5054619,8.41133333 88.5380457,8.33733333 C88.5619848,8.28266667 88.8106853,8.24866667 88.8459289,8.18466667 C88.9616345,7.97266667 88.9051117,7.77866667 89.002198,7.564 C89.0234772,7.51066667 89.1099239,7.52333333 89.1558071,7.40866667 C89.2302843,7.22133333 89.4583706,6.59866667 89.4630254,6.47933333 C89.4636904,6.47666667 89.3173959,6.48666667 89.3100812,6.47933333 C89.1172386,6.32266667 89.4583706,5.67466667 89.3100812,5.552 C88.8332944,5.514 89.0487462,4.78266667 88.3837716,4.93333333 C88.4895025,4.31133333 87.7340914,4.55333333 87.7653452,4.00533333 C87.456132,4.00533333 87.1482487,4.00533333 86.8390355,4.00533333 C86.8456853,3.79133333 86.7665533,3.664 86.6867563,3.53933333 C86.1208629,3.71866667 85.7358426,3.33333333 85.2949645,3.232 C85.0588985,3.17466667 84.8168477,3.09866667 84.678533,3.07533333 C84.5375584,3.05066667 84.4717259,3.26066667 84.3699848,3.232 C84.2742284,3.20333333 84.2482944,2.91 84.0607716,2.92066667 C83.9570355,2.926 83.8965228,3.07666667 83.9058325,3.07533333 C83.7375939,3.09133333 83.6631168,2.94 83.4436751,2.92066667 C83.1145127,2.89333333 82.6530203,2.77066667 82.3624264,2.76666667 C82.1669239,2.76333333 82.1476396,2.92333333 81.8982741,2.92066667 C81.6775025,2.91933333 81.6223096,2.728 81.2811777,2.76666667 C81.3057817,2.76333333 81.1960609,2.9 81.1282335,2.92066667 C80.8841878,2.99333333 80.669401,3.02733333 80.5098071,3.07533333 C80.3688325,3.11866667 80.1899543,3.04066667 80.0469848,3.07533333 C79.620736,3.40733333 79.4026244,2.98666667 78.965736,3.232 C78.9856853,3.328 78.9424619,3.44266667 78.965736,3.53933333 C79.0003147,3.67733333 79.0927462,3.634 79.1213401,3.69533333 C79.1818528,3.82933333 79.1818528,4.02466667 79.2749492,4.15866667 C79.3095279,4.20933333 79.5396091,4.11333333 79.5828325,4.15866667 C79.6366954,4.212 79.5356193,4.41 79.5828325,4.46866667 C79.6812487,4.58866667 79.8095888,4.656 79.8913807,4.77866667 C80.0004365,4.93466667 80.0981878,5.21333333 80.2012589,5.39733333 C79.8714315,5.62866667 80.3116447,5.776 80.0469848,6.172 C80.3309289,6.50266667 80.2537919,6.73466667 80.2012589,6.944 C80.0775736,7.44 80.380802,7.344 80.356198,7.72 C80.3435635,7.89066667 80.2491371,7.97266667 80.2012589,8.18466667 C80.1793147,8.28133333 80.2258629,8.396 80.2012589,8.492 C80.1912843,8.53266667 80.0449898,8.71333333 80.0469848,8.64733333 C80.0316904,9.15066667 80.4479645,9.87466667 80.0469848,10.1953333 C79.989797,10.2406667 80.2032538,10.4673333 80.2012589,10.5053333 C80.1952741,10.6246667 80.0496447,10.6473333 80.0469848,10.6586667 C79.9937868,10.9893333 80.2365025,10.9673333 80.0469848,11.124 C79.7976193,11.3293333 80.1520508,11.8386667 79.8913807,12.0533333 C79.6679492,12.2366667 80.3202893,12.5833333 80.0469848,12.8266667 C80.5330812,12.8266667 80.9486904,12.7706667 81.2811777,12.672 Z M79.8913807,15.922 C80.0709239,16.176 80.3508782,16.2926667 80.6647462,16.3853333 C81.0856751,16.5106667 81.561132,16.47 81.8982741,16.6953333 C82.0199645,16.776 82.2620152,16.8746667 82.5173655,17.0053333 C83.3459239,17.0133333 84.0574467,16.966 84.8328071,17.16 C84.9192538,17.182 84.9977208,17.3166667 84.9877462,17.314 C85.2391066,17.344 85.2504112,17.1746667 85.4499036,17.16 C85.4499036,17.16 86.747934,17.6146667 86.9946396,17.314 C87.1256396,17.1526667 87.2120863,17.298 87.7653452,17.314 C88.1862741,17.328 88.6537513,17.2046667 89.1558071,17.314 C89.4537157,17.38 89.4869645,17.458 90.0807868,17.314 C90.4298985,17.2306667 90.6938934,17.236 91.3163096,17.16 C91.5876193,17.1273333 91.647467,17.0066667 91.9340711,17.0053333 C92.2200102,17.0026667 92.4401168,17.1106667 92.7054416,17.16 C93.0020203,17.2133333 93.3138934,17.1773333 93.6324162,17.314 C93.5160457,17.7906667 94.0560051,17.612 93.9409645,18.0873333 C93.7594264,18.1146667 93.8106294,18.37 93.7860254,18.5533333 C93.3458122,18.9046667 93.0080051,18.7893333 92.0876802,18.8633333 C91.8263452,18.8046667 91.7977513,18.9833333 91.779132,19.172 C91.5304315,19.2146667 91.5138071,19.026 91.3163096,19.0166667 C91.0636193,19.0066667 91.0549746,19.1486667 90.8534873,19.172 C90.6553249,19.1953333 90.4292335,19.126 90.2363909,19.172 C90.1073858,19.202 90.0847766,19.3153333 89.9278426,19.3266667 C89.2342741,19.376 88.3006497,19.272 87.611736,19.3266667 C87.3124975,19.35 87.1854873,19.4806667 86.9946396,19.4806667 C86.5936599,19.4806667 86.511203,19.2146667 86.067665,19.3266667 C85.8369188,19.384 85.594203,19.5366667 85.2949645,19.172 C84.7629848,19.448 83.762198,19.1353333 82.9801878,19.0166667 C82.0272792,18.8726667 81.2007157,18.7366667 79.7377716,18.7073333 C79.5588934,19.12 79.9937868,19.0753333 79.8913807,19.4806667 C79.884731,19.5166667 79.7550609,19.7213333 79.7377716,19.6366667 C79.8082589,20.0053333 80.1221269,20.38 80.2012589,20.7186667 C80.2996751,21.146 80.3941015,21.4206667 80.2012589,21.958 C79.5775127,21.8633333 79.0821066,22.0886667 78.6578528,21.958 C78.5820457,21.9346667 78.5607665,21.6746667 78.5035787,21.6486667 C78.259533,21.538 78.0088376,21.5713333 77.8844873,21.1846667 C77.9097563,21.2593333 78.0540558,21.0986667 78.0400914,21.0286667 C78.0181472,20.9206667 77.6198274,20.8166667 77.577269,20.7186667 C77.5400305,20.6366667 77.6224873,20.488 77.577269,20.41 C77.4509239,20.19 77.0978223,20 77.4229949,19.6366667 C77.3179289,19.508 77.2035533,19.4793333 77.1137817,19.3266667 C77.080533,19.2706667 77.1616599,19.056 77.1137817,19.0166667 C76.8358223,18.7893333 76.9269239,17.762 76.8058985,17.16 C76.7507056,16.896 76.4946904,16.8633333 76.3410812,16.6953333 C76.2134061,16.5533333 76.1495685,16.388 76.033198,16.232 C75.8084365,15.932 75.4493503,15.6326667 75.4154365,15.1486667 C75.4646447,14.418 76.2526396,14.3713333 76.6496294,13.91 C76.7679949,13.772 76.7527005,13.4946667 76.9588426,13.4466667 C76.8823706,13.318 77.0625787,12.9286667 76.9588426,12.8266667 C76.6709086,12.5366667 77.2800254,12.6653333 77.1137817,11.8973333 C77.0891777,11.7866667 76.9382284,11.7306667 76.9588426,11.5886667 C77.0093807,11.2693333 77.238797,11.1353333 77.2680558,10.8153333 C77.2979797,10.4793333 77.1051371,10.41 77.1137817,10.1953333 C77.1184365,10.0966667 77.2015584,9.63133333 77.2680558,9.57533333 C77.4801827,9.40266667 77.2979797,9.35533333 77.2680558,8.80333333 C77.2667259,8.764 77.2421218,8.51266667 77.2680558,8.492 C77.2800254,8.48466667 77.4223299,8.50266667 77.4229949,8.492 C77.4535838,8.29666667 77.264731,8.22 77.2680558,8.18466667 C77.2939898,7.91 77.4256548,7.85266667 77.4229949,7.564 C77.4196701,7.262 77.2447817,6.892 77.2680558,6.63533333 C77.264066,6.682 77.4096954,6.534 77.4229949,6.47933333 C77.446269,6.384 77.394401,6.26666667 77.4229949,6.172 C77.4595685,6.048 77.5706193,6.01533333 77.577269,5.86066667 C77.5872437,5.582 77.4429442,5.35666667 77.4229949,5.08866667 C77.3864213,4.62866667 77.5367056,4.29533333 77.577269,3.84866667 C77.1430406,3.86733333 76.8039036,4.07933333 76.188802,4.00533333 C75.8164162,3.95933333 75.902198,3.79266667 75.5697107,4.00533333 C75.4972284,4.05066667 75.456,4.13533333 75.4154365,4.15866667 C75.1773756,4.30066667 74.7025838,4.29133333 74.644066,4.77866667 C74.4897919,4.77866667 74.3348528,4.77866667 74.1799137,4.77866667 C73.9232335,5.03533333 73.6658883,5.294 73.4078782,5.552 C72.7874569,5.44533333 72.5267868,5.69933333 72.0187462,5.70733333 C72.1603858,5.37866667 71.788665,5.5 71.709533,5.39733333 C71.6071269,5.262 71.6490203,5.06266667 71.5559239,4.93333333 C71.4814467,4.82933333 71.3178629,4.72133333 71.2480406,4.62266667 C71.1423096,4.47666667 71.2507005,4.242 70.9381624,4.314 C71.0432284,4.18466667 71.1576041,4.15733333 71.2480406,4.00533333 C71.2812893,3.948 71.1994975,3.73466667 71.2480406,3.69533333 C71.2706497,3.67733333 71.3876853,3.71733333 71.4003198,3.69533333 C71.5240051,3.492 71.5486091,3.22 71.709533,3.07533333 C71.762731,3.03 71.9768528,3.12733333 72.0187462,3.07533333 C72.1956294,2.86066667 72.3552234,2.57133333 72.9457208,2.61066667 C72.9696599,2.068 73.8906497,2.42333333 73.8726954,1.83866667 C74.0515736,1.96733333 74.2863096,2.04133333 74.644066,1.99066667 C74.9752234,2.038 74.8774721,1.74866667 75.1068883,1.682 C75.3449492,1.61466667 75.6368731,1.73666667 75.8795888,1.682 C76.1548883,1.62133333 76.2652741,1.44266667 76.4960203,1.37266667 C76.8504518,1.268 77.2095381,1.306 77.577269,1.21866667 C77.9064315,1.14066667 78.1564619,0.830666667 78.3998426,0.787333333 C78.599335,0.752 78.8161168,0.813333333 79.0176041,0.787333333 C79.3554112,0.743333333 79.6300457,0.686 80.2524619,0.632666667 C80.3488832,0.623333333 80.4672487,0.656 80.5610102,0.632666667 C80.8369746,0.563333333 80.9879239,0.518 81.4879848,0.632666667 C81.7945381,0.704 81.7812386,0.616666667 81.9501421,0.787333333 C81.9461523,0.783333333 82.9715431,0.860666667 83.0307259,0.787333333 C83.0752792,0.732666667 83.1869949,0.645333333 83.6491523,0.787333333 C83.8286954,0.844666667 83.998264,0.826666667 84.1126396,0.942666667 C84.390599,1.222 84.2409797,0.710666667 84.8846751,0.787333333 C85.1360355,0.817333333 85.4499036,1.16 85.7591168,1.21866667 C86.2412234,1.30866667 86.5151929,1.156 86.8390355,1.37266667 C86.9886548,1.47266667 87.0830812,1.47266667 87.3031878,1.52733333 C87.5266193,1.58333333 87.5119898,1.72266667 87.9196193,1.83866667 C87.9728173,1.85266667 88.1982437,1.79933333 88.2294975,1.83866667 C88.4017259,2.04933333 88.687665,2.268 89.002198,2.45733333 C89.2681878,2.61733333 89.0760102,2.85 89.6179645,2.61066667 C89.4537157,3.19 90.0029848,3.052 89.9278426,3.53933333 C90.8947157,3.44666667 90.8814162,4.33733333 91.4712487,4.62266667 C91.4845482,4.84266667 91.4965178,5.06266667 91.3163096,5.08866667 C91.6680812,5.35266667 91.8077259,5.832 92.2426193,6.01666667 C91.9533553,6.732 92.4806802,7.426 92.3975584,8.18466667 C92.3716244,8.41933333 92.3357157,8.89333333 92.2426193,9.112 C92.224665,9.15333333 91.9653249,9.074 91.9340711,9.112 C91.8702335,9.19133333 92.0112081,9.512 91.9340711,9.57533333 C91.8748883,9.62466667 91.6062386,9.81666667 91.6255228,10.1953333 C91.1394264,10.1213333 91.2757462,10.6693333 90.6992132,10.5053333 C90.521665,10.6366667 90.4897462,10.9646667 90.390665,11.124 C90.2902538,11.2826667 90.0349036,11.2853333 90.0807868,11.5886667 C89.4291117,11.7606667 88.9084365,12.064 88.5380457,12.5166667 C87.8983401,12.34 87.9375736,12.8426667 87.456132,12.8266667 C87.271269,12.78 87.3823198,13.0793333 87.3031878,13.1366667 C87.1615482,13.2366667 86.7419492,13.198 86.6867563,13.6 C85.7325178,13.4713333 85.648066,14.2106667 84.678533,14.0653333 C84.417198,13.9933333 84.4258426,14.4233333 84.2157107,14.5286667 C83.8366751,14.7186667 83.0094467,14.514 82.8252487,14.992 C82.4894365,14.702 81.7393452,14.932 81.5917208,15.3033333 C80.8589188,15.3426667 80.2079086,15.4633333 79.8913807,15.922 L79.8913807,15.922 Z" id="Fill-6" fill="#002A2E" mask="url(#mask-2)"></path>
                    <path d="M118.279036,16.2486667 C118.709274,16.1446667 119.028462,16.0686667 119.408162,15.824 C119.46402,15.7906667 119.504584,15.5626667 119.550467,15.5413333 C119.618294,15.5106667 119.779218,15.586 119.833746,15.5413333 C119.938812,15.4573333 120.007305,15.1773333 120.11636,15.1173333 C120.226081,15.0546667 120.427569,15.1693333 120.539949,15.1173333 C120.599132,15.0886667 120.635706,14.8513333 120.681589,14.8333333 C120.849162,14.764 121.102518,14.7866667 121.387127,14.6913333 C121.380477,14.694 121.941716,14.564 121.953685,14.5493333 C122.163817,14.2913333 122.725721,14.3746667 123.224452,14.2653333 C123.342817,14.2406667 123.363431,14.13 123.507731,14.1246667 C123.762416,14.1133333 123.804975,14.284 124.072959,14.2653333 C124.294396,14.2526667 124.324985,14.182 124.496548,14.1246667 C124.44202,14.142 124.57169,14.3333333 124.637523,14.2653333 C124.686066,14.2186667 124.601614,14.0413333 124.637523,13.9833333 C124.829036,14.1746667 124.882234,14.2473333 125.061777,14.4073333 C125.182137,14.514 125.366335,14.578 125.48603,14.6913333 C125.531249,14.7346667 125.439482,14.936 125.48603,14.974 C125.514624,14.9973333 125.599076,14.952 125.628335,14.974 C125.730076,15.056 126.012025,15.2106667 126.192234,15.4 C126.236787,15.4453333 126.14502,15.6433333 126.192234,15.682 C126.237452,15.72 126.589888,15.784 126.615822,15.824 C126.700274,15.952 126.331213,15.9493333 126.333873,15.966 C126.378426,16.25 126.663701,16.0926667 126.758792,16.2486667 C126.819305,16.3513333 126.692959,16.574 126.758792,16.6746667 C126.852553,16.8166667 126.92969,16.9686667 127.040741,17.0986667 C127.145807,17.224 127.367909,17.2633333 127.463665,17.3826667 C127.561416,17.504 127.505558,17.6993333 127.60597,17.8073333 C127.828736,18.0466667 128.104036,18.2073333 128.312173,18.3733333 C128.759701,18.5686667 128.786299,18.4046667 129.300325,18.3733333 C129.257766,18.5453333 129.532401,18.4426667 129.584934,18.5153333 C129.622838,18.5686667 129.537056,18.758 129.584934,18.7993333 C129.813685,19.0013333 130.521218,19.108 130.431447,19.7906667 C130.276508,19.7473333 130.218655,20.0546667 130.150162,20.0753333 C129.934046,20.134 129.878188,19.8773333 129.725909,19.932 C129.652761,19.9593333 129.55634,20.1586667 129.443294,20.216 C129.320274,20.2773333 129.127431,20.3466667 129.018376,20.3593333 C128.77832,20.384 128.149919,19.9546667 127.889914,20.216 C127.882599,20.2226667 127.889914,20.3593333 127.889914,20.3593333 C127.829401,20.3466667 127.561416,20.268 127.463665,20.216 C127.372563,20.1666667 127.263508,19.9766667 127.181716,19.932 C127.022787,19.8446667 126.900431,19.87 126.758792,19.7906667 C126.68365,19.75 126.776746,19.6573333 126.615822,19.65 C126.432289,19.6393333 126.567944,19.458 126.475513,19.366 C126.428964,19.3186667 126.237452,19.4126667 126.192234,19.366 C126.149675,19.32 126.240777,19.1226667 126.192234,19.0833333 C126.176939,19.0686667 126.059904,19.1 126.051924,19.0833333 C126.02732,19.0313333 126.092487,18.8333333 126.051924,18.7993333 C126.047934,18.7966667 125.550533,18.4766667 125.48603,18.3733333 C125.378305,18.2006667 125.423523,17.956 125.344391,17.8073333 C125.306487,17.736 125.212726,17.8253333 125.204081,17.6666667 C125.189452,17.3946667 124.57701,16.9013333 124.637523,16.534 C124.219254,16.7593333 124.310355,16.262 124.072959,16.2486667 C124.045695,16.2486667 123.954594,16.2653333 123.930655,16.2486667 C123.846868,16.1926667 123.576888,15.8426667 123.507731,15.824 C123.414635,15.7993333 123.353457,15.9833333 123.224452,15.966 C123.110741,15.952 122.901274,15.7253333 122.659888,15.966 C122.649249,15.9753333 122.671858,16.1066667 122.659888,16.1066667 C122.500294,16.1406667 122.184431,15.9833333 122.236299,15.966 C121.859924,16.096 121.928416,16.3773333 121.671071,16.3893333 C121.422371,16.426 121.349223,16.6353333 121.387127,16.9573333 C120.742102,17.16 120.504706,17.772 120.11636,18.2333333 C119.516553,18.104 119.404838,18.4646667 119.267853,18.7993333 C119.141508,18.712 119.015162,18.6286667 118.985239,18.7993333 C118.509117,18.8526667 118.382772,18.5546667 118.138726,18.3733333 C117.76368,18.5406667 117.304848,18.1026667 117.290218,18.3733333 C116.917832,18.2733333 117.010929,17.7093333 116.725655,17.5246667 C116.630563,17.388 116.153112,17.5466667 116.018787,17.3826667 C115.739497,17.0413333 115.536015,17.6273333 115.453558,17.5246667 C115.293299,17.3253333 115.15166,17.65 114.746025,17.6666667 C114.347706,18.0686667 114.024528,18.548 113.19331,18.5153333 C112.973203,18.676 112.898061,18.9766667 112.485112,18.9413333 C112.312218,18.9906667 112.328178,19.2706667 112.201832,19.366 C112.032929,19.4973333 111.602025,19.2593333 111.637934,19.65 C111.33936,19.656 111.058076,19.6406667 110.790091,19.65 C110.671726,19.6533333 110.651112,19.8006667 110.506812,19.7906667 C110.468244,19.7893333 110.371822,19.62 110.225528,19.65 C109.941584,19.7073333 109.769355,19.9026667 109.51733,19.932 C109.563878,19.9273333 109.442853,19.708 109.37569,19.7906667 C109.172208,20.0493333 109.063152,19.4846667 108.812457,19.7906667 C108.796497,19.8086667 108.829081,19.9246667 108.812457,19.932 C108.759924,19.9573333 108.563091,19.892 108.529178,19.932 C108.390198,20.1026667 108.46268,19.932 108.245898,19.932 C108.129528,19.932 108.106919,20.0886667 107.962619,20.0753333 C107.970599,20.0753333 107.917401,19.9373333 107.82231,19.932 C107.68067,19.926 107.538365,19.9386667 107.398056,19.932 C107.075543,20.0353333 106.675893,20.0586667 106.407909,20.216 C106.121305,20.238 106.177162,20.018 105.984985,19.932 C105.822731,19.8606667 105.556076,20.0206667 105.561396,19.7906667 C105.20098,19.7486667 104.905066,19.85 104.571914,19.7906667 C104.557284,19.7893333 104.54332,19.6546667 104.430939,19.65 C104.309249,19.6433333 104.121061,19.6873333 104.006685,19.65 C103.932208,19.6246667 103.777934,19.3826667 103.723406,19.366 C103.559822,19.3166667 103.314447,19.436 103.158843,19.366 C103.09434,19.3373333 103.069071,19.108 103.017203,19.0833333 C102.942726,19.048 102.805076,19.1246667 102.735254,19.0833333 C102.634178,19.0233333 102.539751,18.8593333 102.451975,18.7993333 C102.244503,18.66 101.936619,18.534 101.745772,18.3733333 C101.435228,18.1146667 101.306888,17.482 100.755624,17.5246667 C100.774244,16.75 100.329376,16.4413333 99.9084467,16.1066667 C100.172442,15.4426667 99.9948934,14.616 100.191061,13.9833333 C100.211675,13.9113333 100.447741,13.896 100.473675,13.8413333 C100.524878,13.7346667 100.408508,13.5133333 100.473675,13.4153333 C100.563447,13.2813333 100.790868,13.3813333 100.898594,13.2733333 C100.992355,13.18 100.932508,12.9333333 101.038904,12.8486667 C101.159264,12.7526667 101.364741,12.82 101.462492,12.7073333 C101.528325,12.6026667 101.672624,12.5166667 101.745772,12.4246667 C101.808944,12.344 101.877437,12.448 101.887411,12.284 C101.901376,11.9686667 102.281076,12.208 102.451975,11.9986667 C102.467934,11.9806667 102.43269,11.8686667 102.451975,11.858 C102.503843,11.828 102.69868,11.9026667 102.735254,11.858 C102.765843,11.8193333 102.83899,11.5953333 102.875563,11.574 C102.984619,11.5126667 103.188102,11.6286667 103.300482,11.574 C103.376954,11.5366667 103.376289,11.332 103.441457,11.2913333 C103.61036,11.1833333 103.862386,11.272 103.866376,11.008 C104.473497,11.004 104.953609,10.8686667 105.136477,10.4413333 C105.348604,10.3513333 105.403132,10.6393333 105.561396,10.5833333 C105.606614,10.5666667 105.674442,10.3046667 105.703036,10.2993333 C105.880584,10.2566667 106.087391,10.3306667 106.267599,10.2993333 C106.489701,10.2606667 106.677223,10.0126667 106.975132,10.2993333 C107.154675,10.4726667 107.334218,10.2406667 107.68067,10.4413333 C107.805685,10.5126667 107.850239,10.7773333 107.962619,10.866 C108.040421,10.9273333 108.317051,10.932 108.386873,11.008 C108.430096,11.0533333 108.33966,11.2513333 108.386873,11.2913333 C108.578386,11.4466667 108.857675,11.6093333 108.952766,11.9986667 C109.232721,12.236 109.131645,11.9866667 109.51733,11.9986667 C109.448838,12.4466667 109.772015,12.5 109.65897,12.9906667 C109.136964,13.15 108.72867,13.1773333 108.245898,13.1326667 C107.979909,13.108 107.910086,12.9033333 107.68067,12.8486667 C107.353503,12.772 107.163985,12.906 106.832827,12.8486667 C106.571492,12.87 106.746381,13.328 106.550213,13.4153333 C106.217061,13.4193333 106.133939,13.1706667 105.703036,13.2733333 C105.157756,13.3893333 105.014787,13.906 104.288635,13.8413333 C103.843102,14.2433333 103.772614,15.0233333 103.158843,15.258 C103.123599,15.6953333 103.015873,16.0586667 102.875563,16.3893333 C103.002574,16.642 103.448772,16.5726667 103.300482,17.0986667 C103.536548,17.0986667 103.771949,17.0986667 104.006685,17.0986667 C104.149655,17.5106667 104.40434,17.488 104.996168,17.6666667 C105.043381,17.6806667 105.249523,17.6313333 105.278117,17.6666667 C105.290751,17.682 105.261492,17.8006667 105.278117,17.8073333 C105.329985,17.832 105.526817,17.7666667 105.561396,17.8073333 C105.699046,17.9766667 105.687076,17.7666667 105.984985,17.8073333 C106.102685,17.824 106.123964,17.9386667 106.267599,17.9506667 C106.576812,17.974 106.62868,17.8126667 106.832827,17.8073333 C106.925259,17.806 107.516421,18.15 107.68067,17.9506667 C107.82231,17.776 107.744508,17.9573333 107.962619,17.9506667 C108.229939,17.9413333 108.425442,17.8633333 108.670817,17.8073333 C108.944787,17.746 109.339782,17.7906667 109.51733,17.5246667 C109.722142,17.69 110.053964,17.6786667 110.225528,17.6666667 C110.57464,17.6393333 110.374482,17.522 110.790091,17.3826667 C110.754183,17.396 110.980939,17.56 111.072041,17.5246667 C111.131223,17.5026667 111.170457,17.2553333 111.21235,17.2406667 C111.598036,17.1066667 112.151294,17.3086667 112.343472,16.8153333 C112.544959,16.8033333 112.743787,16.7926667 112.768391,16.9573333 C112.943944,16.9606667 112.955249,16.7473333 113.05167,16.6746667 C113.164716,16.5873333 113.343594,16.626 113.473929,16.534 C113.592959,16.448 113.596949,16.2906667 113.757873,16.2486667 C114.295173,16.2213333 114.293178,15.6533333 114.887665,15.682 C114.838457,15.3986667 114.916259,15.2393333 115.170944,15.258 C114.956157,14.764 115.101122,13.9113333 114.605716,13.7006667 C114.437477,13.2146667 114.644949,12.582 114.463411,11.858 C114.450112,11.8006667 114.322437,11.676 114.322437,11.716 C114.320442,11.3933333 114.476046,11.1773333 114.463411,10.866 C114.450112,10.482 114.215376,10.3726667 114.322437,9.874 C114.346376,9.75933333 114.467401,9.73333333 114.463411,9.59133333 C114.463411,9.61866667 114.327091,9.53 114.322437,9.448 C114.299827,9.008 114.508629,8.33733333 114.605716,7.88933333 C114.630985,7.77333333 114.521929,7.25 114.605716,7.182 C114.728071,7.082 114.841117,7.082 114.887665,6.89866667 C114.920914,6.768 114.748685,6.022 114.887665,5.90733333 C115.01135,5.806 115.121071,5.80733333 115.170944,5.624 C115.294629,5.16933333 115.188898,4.67066667 115.312584,4.20733333 C115.321228,4.172 115.446244,4.194 115.453558,4.06533333 C115.464863,3.84733333 115.533355,3.80866667 115.594533,3.64066667 C115.763437,3.17333333 116.06201,2.74866667 116.159096,2.08066667 C116.950416,1.99733333 117.49902,2.15733333 117.996421,2.36466667 C118.132741,2.458 117.973812,2.93866667 118.138726,3.074 C118.150695,3.08466667 118.275046,3.06133333 118.279036,3.074 C118.355508,3.324 118.062254,3.87133333 118.560985,3.78266667 C118.283025,4.022 118.509782,4.768 117.996421,4.77333333 C118.206553,5.43866667 117.602091,6.75666667 117.854782,7.466 C117.538919,7.668 117.585467,8.23466667 117.290218,8.45733333 C117.399939,9.18466667 117.044843,9.534 117.290218,10.0153333 C116.725655,9.91666667 117.274924,10.2213333 117.149244,10.724 C117.084076,10.988 117.054152,11.004 117.149244,11.574 C117.198452,11.8686667 117.221726,12.038 117.290218,12.284 C116.938447,12.5973333 117.004279,13.1226667 117.149244,13.7006667 C117.180497,13.824 117.245,13.944 117.290218,14.1246667 C117.314157,14.2253333 117.707822,14.4713333 117.431858,14.5493333 C117.494365,14.676 117.556208,14.802 117.713807,14.8333333 C117.574827,14.9233333 117.536259,15.358 117.713807,15.682 C117.769665,15.7853333 117.947878,15.642 117.996421,15.824 C118.019695,15.9126667 117.978467,16.018 117.996421,16.1066667 C118.161335,16.0846667 118.247782,16.1393333 118.279036,16.2486667" id="Fill-7" fill="#002A2E" mask="url(#mask-2)"></path>
                    <path d="M10.8324365,14.3013333 C10.8444061,14.3913333 10.9714162,14.3646667 11.0618528,14.3773333 C10.9587817,14.518 10.8317716,14.6606667 10.9082437,14.988 C10.9235381,15.052 10.9754061,15.0626667 10.9840508,15.14 C10.9907005,15.1993333 10.9042538,15.2186667 10.9082437,15.2933333 C10.9082437,15.284 10.9827208,15.324 10.9840508,15.3693333 C10.9900355,15.476 10.9281929,15.636 10.9082437,15.752 C10.9122335,15.73 10.9940254,15.7806667 10.9840508,15.828 C10.9813909,15.8433333 10.9062487,15.8333333 10.9082437,15.904 C10.9142284,16.0893333 11.0226193,16.284 10.9840508,16.5146667 C10.9428223,16.6833333 11.1303452,16.624 11.1369949,16.744 C11.1529543,16.964 11.1177107,17.132 10.9840508,17.2026667 C10.9381675,17.2746667 11.0585279,17.2646667 11.0618528,17.2786667 C11.0764822,17.3546667 10.9840508,17.346 10.9840508,17.3546667 C10.9893706,17.4113333 11.0465584,17.4413333 11.0618528,17.508 C11.0924416,17.6586667 10.9966853,17.826 11.1369949,17.9666667 C11.2759746,18.1046667 11.1050761,17.964 11.0618528,18.1946667 C11.0618528,18.1946667 11.2520355,18.482 11.1369949,18.5773333 C11.0399086,18.656 11.0778122,18.6673333 11.1369949,18.7293333 C11.2540305,18.8526667 10.977401,19.586 11.3657462,19.7986667 C11.2673299,20.2106667 10.9401624,20.3913333 10.8324365,20.7906667 C10.1016294,21.1306667 9.45327919,20.7713333 9.0808934,20.332 C9.03301523,20.2186667 9.18728934,20.19 9.15670051,20.104 C9.15071574,20.086 9.00442132,20.032 9.00442132,20.028 C8.9997665,19.9786667 9.07357868,19.94 9.0808934,19.8746667 C9.09884772,19.6953333 8.94922843,19.6566667 9.0808934,19.4173333 C9.13808122,19.18 8.87209137,19.2713333 8.92861421,19.0346667 C9.00708122,18.6386667 9.00442132,18.3646667 8.77633503,18.1186667 C8.86145178,17.852 8.86211675,17.5893333 8.77633503,17.2026667 C8.74574619,17.0633333 8.73377665,16.91 8.62405584,16.896 C8.72912183,16.8506667 8.63536041,16.6033333 8.77633503,16.592 C8.7271269,16.5246667 8.66461929,16.5186667 8.62405584,16.4386667 C8.58149746,16.3546667 8.67392893,16.2053333 8.54758376,16.2093333 C8.50037056,16.1373333 8.62139594,16.1473333 8.62405584,16.1333333 C8.63868528,16.06 8.54691878,16.0626667 8.54758376,16.0573333 C8.56287817,15.9246667 8.63004061,15.8926667 8.62405584,15.752 C8.61740609,15.6 8.54558883,15.4966667 8.54758376,15.3693333 C8.54957868,15.19 8.75638579,14.9493333 8.54758376,14.8346667 C8.54824873,14.684 8.75572081,14.7393333 8.69986294,14.5293333 C8.71249746,14.3386667 8.58349239,14.2913333 8.47177665,14.224 C8.48042132,14.1233333 8.61408122,13.8053333 8.47177665,13.9946667 C8.39796447,13.9933333 8.41259391,13.902 8.39530457,13.8426667 C8.44650761,13.8426667 8.49638071,13.8426667 8.54758376,13.8426667 C8.49039594,13.6233333 8.51101015,13.3493333 8.54758376,13.0786667 C8.56952792,12.9253333 8.54558883,12.9293333 8.62405584,12.8506667 C8.63536041,12.8366667 8.56354315,12.4266667 8.54758376,12.316 C8.52364467,12.1473333 8.53095939,12.004 8.47177665,11.8573333 C8.49638071,11.6793333 8.56287817,11.5413333 8.62405584,11.4 C8.5987868,11.222 8.53228934,11.0833333 8.47177665,10.9413333 C8.45847716,10.774 8.53428426,10.698 8.69986294,10.712 C8.65198477,10.5306667 8.59745685,10.3566667 8.39530457,10.3306667 C8.36471574,10.2393333 8.52896447,10.292 8.54758376,10.2546667 C8.56686802,10.2146667 8.45648223,10.162 8.47177665,10.1013333 C8.51367005,9.93666667 8.47975635,9.84733333 8.62405584,9.71866667 C8.48773604,9.49333333 8.56088325,9.24066667 8.54758376,9.03333333 C8.53827411,8.87466667 8.47975635,8.83333333 8.47177665,8.72666667 C8.47377157,8.75133333 8.54758376,8.688 8.54758376,8.65066667 C8.54758376,8.59533333 8.47244162,8.56666667 8.47177665,8.57333333 C8.47643147,8.532 8.52829949,8.47133333 8.54758376,8.42133333 C8.55888832,8.39466667 8.52696954,8.286 8.54758376,8.268 C8.65730457,8.178 8.56088325,8.168 8.54758376,7.88666667 C8.54758376,7.87666667 8.6513198,7.806 8.62405584,7.73466667 C8.61275127,7.70266667 8.54093401,7.74266667 8.54758376,7.65733333 C8.55755838,7.54266667 8.62605076,7.51933333 8.62405584,7.428 C8.62139594,7.29533333 8.56154822,7.26333333 8.54758376,7.124 C8.53428426,6.99533333 8.64001523,6.87133333 8.54758376,6.74133333 C8.51898985,6.61133333 8.60743147,6.59733333 8.69986294,6.58933333 C8.6878934,6.49933333 8.71648731,6.45266667 8.77633503,6.43466667 C8.66727919,6.27466667 8.56686802,6.18066667 8.54758376,5.97866667 C8.53428426,5.83933333 8.75904569,5.426 8.62405584,5.29066667 C8.5123401,5.17866667 8.45515228,5.35533333 8.54758376,5.06266667 C8.17386802,5.08333333 7.84803046,5.14266667 7.48162944,5.21333333 C7.26950254,5.256 6.81399492,5.234 6.56728934,5.368 C6.52805584,5.38866667 6.44759391,5.50733333 6.41501015,5.51866667 C6.33720812,5.54866667 5.78660914,5.524 5.73008629,5.596 C5.6775533,5.65933333 5.67555838,5.72866667 5.57780711,5.74933333 C5.24598477,5.81733333 4.79047716,5.72266667 4.51118782,5.90133333 C4.47727411,5.92333333 4.2731269,5.96066667 4.20662944,6.05333333 C4.01245685,5.842 3.71454822,6.07666667 3.44456853,6.132 C3.32686802,6.15266667 3.18522843,6.126 3.06420305,6.132 C3.08215736,6.13066667 3.02696447,6.256 2.98773096,6.208 C2.87003046,6.06 2.78823858,6.17466667 2.60670051,6.208 C2.47969036,6.23 2.25226904,6.12266667 2.14986294,6.28266667 C2.05277665,6.17733333 1.79077665,6.23666667 1.69369036,6.132 C1.59327919,6.14133333 1.4882132,6.118 1.38846701,6.132 C1.19296447,6.158 1.24350254,6.22466667 1.00810152,6.132 C0.985492386,6.12266667 0.992807107,6.06933333 0.931629442,6.05333333 C0.889071066,6.04333333 0.816588832,6.074 0.778685279,6.05333333 C0.722827411,6.026 0.674284264,5.936 0.626406091,5.90133333 C0.539959391,5.83733333 0.409624365,5.64266667 0.170233503,5.672 C0.19151269,5.49933333 0.151614213,5.38466667 0.0172893401,5.368 C-0.0591827411,5.208 0.140309645,5.26333333 0.170233503,5.21333333 C0.216781726,5.14 0.116370558,4.974 0.246040609,4.98533333 C0.283279188,4.74333333 0.109055838,4.71466667 0.170233503,4.45066667 C0.27928934,4.40733333 0.355096447,4.33333333 0.398319797,4.22266667 C1.20559898,4.16466667 2.28418782,4.38133333 2.7589797,3.99333333 C2.99903553,4.152 3.18456345,3.92133333 3.36809645,4.07066667 C3.45786802,4.05666667 3.43259898,3.93 3.44456853,3.84133333 C3.67797462,3.78466667 3.66866497,3.97133333 3.90207107,3.916 C4.12151269,3.98733333 4.03240609,3.59 4.28310152,3.84133333 C4.3702132,3.92866667 4.3283198,3.86733333 4.51118782,3.764 C4.60760914,3.70866667 4.73328934,3.75133333 4.73993909,3.61066667 C4.89886802,3.57866667 4.9414264,3.66333333 5.04449746,3.688 C5.12695431,3.66866667 5.09570051,3.53733333 5.19677665,3.536 C5.2845533,3.54533333 5.3317665,3.518 5.34905584,3.45866667 C5.48271574,3.60066667 5.58445685,3.35333333 5.65361421,3.61066667 C6.40769543,3.17133333 7.69375635,3.264 8.54758376,2.924 C8.56287817,2.62133333 8.56088325,2.384 8.62405584,2.16 C8.63004061,2.13866667 8.69653807,2.15533333 8.69986294,2.084 C8.70185787,2.04933333 8.88206599,1.87933333 8.85214213,1.85466667 C8.80625888,1.81866667 8.77101523,1.788 8.77633503,1.70133333 C8.88938071,1.61266667 9.11613706,1.63466667 9.0808934,1.396 C9.15204569,1.34866667 9.14406599,1.472 9.15670051,1.47333333 C9.22652284,1.48666667 9.23317259,1.396 9.23317259,1.396 C9.44130964,1.428 9.60622335,1.566 9.91809645,1.54933333 C9.99589848,1.828 10.2359543,1.94333333 10.5278782,2.00666667 C10.4101777,2.22333333 10.714736,2.17533333 10.7559645,2.236 C10.820467,2.33133333 10.7360152,2.48733333 10.8324365,2.54133333 C11.2520355,2.482 11.6782843,2.516 12.1271421,2.46533333 C12.3080152,2.444 12.4762538,2.34533333 12.6597868,2.31333333 C13.0308426,2.25 13.4697259,2.28266667 13.8786853,2.236 C14.0342893,2.218 14.1972081,2.20133333 14.487802,2.16 C14.5988528,2.14466667 14.6294416,2.08666667 14.7172183,2.084 C14.8528731,2.08133333 14.8768122,2.168 15.0217766,2.16 C15.0802944,2.15533333 15.5936548,1.97066667 15.7073655,2.084 C15.8323807,2.21066667 15.7632234,2.012 15.8596447,2.00666667 C15.9460914,2.00333333 16.0066041,2.102 16.2400102,2.084 C16.3843096,2.07266667 16.5665127,2.002 16.6975127,2.00666667 C16.6835482,2.00666667 16.7281015,2.082 16.7739848,2.084 C16.7912741,2.084 17.2501066,2.13866667 17.3066294,2.084 C17.3910812,2 17.3678071,2.10466667 17.5353807,2.084 C17.5353807,2.084 17.5553299,2.00933333 17.6105228,2.00666667 C17.685665,2.00333333 17.7681218,2.022 17.8386091,2.00666667 C18.2469036,1.932 19.3075381,2.062 20.0483198,2.00666667 C20.3342589,1.986 20.3867919,1.93866667 20.7345736,2.00666667 C20.7744721,2.016 21.6429289,2.24266667 21.8011929,2.084 C21.9202234,1.96533333 21.8523959,2.13333333 21.9528071,2.16 C22.0312741,2.182 22.112401,2.08666667 22.1044213,2.084 C22.321203,2.15533333 22.295269,2.32266667 22.4854518,2.236 C22.5526142,2.482 22.2354213,2.342 22.2580305,2.54133333 C22.2460609,2.628 22.2234518,2.84066667 22.1044213,2.848 C21.9694315,2.85466667 22.164269,2.972 22.1044213,3.076 C22.1070812,3.07 21.8523959,2.90066667 21.9528071,3.22933333 C21.8124975,3.26666667 21.6435939,3.28733333 21.4959695,3.38133333 C21.3177563,3.496 20.8050609,3.47133333 20.4286853,3.536 C20.2484772,3.56666667 20.2996802,3.64333333 20.1247919,3.688 C20.0602893,3.70333333 19.781,3.642 19.7437614,3.688 C19.6553198,3.79533333 19.7251421,3.67133333 19.439203,3.688 C19.3168477,3.69466667 19.308203,3.75533333 19.2111168,3.764 C18.889934,3.78866667 18.5009239,3.75133333 18.2203046,3.764 C18.1644467,3.76533333 18.1378477,3.858 18.0680254,3.84133333 C18.0460812,3.834 18.0720152,3.74466667 17.9928832,3.764 C17.921731,3.782 17.9297107,3.844 17.9157462,3.916 C17.6889898,3.76533333 17.4190102,3.942 17.1543503,3.99333333 C17.0313299,4.01666667 16.8950102,3.96866667 16.7739848,3.99333333 C16.6123959,4.02533333 16.4567919,4.13266667 16.3171472,4.14533333 C16.192132,4.15466667 16.1841523,4.05933333 16.0883959,4.07066667 C16.0923858,4.068 16.0624619,4.14266667 16.0112589,4.14533333 C15.956731,4.148 15.8835838,4.07066667 15.7818426,4.07066667 C15.8037868,4.07066667 15.745269,4.194 15.7073655,4.14533333 C15.6269036,4.04533333 15.1055635,4.05133333 14.7943553,4.07066667 C14.6700051,4.076 14.6646853,4.13133333 14.5649391,4.14533333 C14.1892284,4.20066667 13.7895787,4.17866667 13.4218477,4.22266667 C13.2715635,4.24066667 13.1073147,4.27933333 12.9650102,4.29866667 C12.8606091,4.31266667 12.8173858,4.38 12.7369239,4.37466667 C12.6757462,4.37066667 12.6591218,4.286 12.5846447,4.29866667 C12.4543096,4.31933333 12.3246396,4.42133333 12.2029492,4.45066667 C11.9436091,4.51133333 11.6669797,4.46466667 11.4415533,4.52666667 C11.3085584,4.564 11.239401,4.76133333 11.0618528,4.68 C11.0871218,4.832 11.0458934,4.91866667 10.9082437,4.90933333 C10.9734112,4.97133333 10.9547919,5.11933333 11.0618528,5.13866667 C11.0186294,5.274 10.9308528,5.38 10.9082437,5.51866667 C10.899599,5.578 11.004665,5.59866667 10.9840508,5.672 C10.9793959,5.69266667 10.9115685,5.67733333 10.9082437,5.74933333 C10.9049188,5.88066667 10.9734112,5.91533333 10.9840508,6.05333333 C10.9860457,6.06 10.8823096,6.13733333 10.9082437,6.208 C10.9208782,6.23933333 10.9880406,6.19933333 10.9840508,6.28266667 C10.9807259,6.404 10.9368376,6.50933333 10.9082437,6.664 C10.9128985,6.63866667 11.0279391,6.70666667 10.9840508,6.74133333 C10.9401624,6.77733333 10.8956091,6.802 10.8324365,6.81866667 C10.8417462,7.01333333 10.9720812,7.084 11.0618528,7.19866667 C11.1177107,7.43333333 10.8530508,7.34666667 10.9082437,7.58133333 C11.1197056,7.396 11.0399086,7.66666667 10.9082437,7.73466667 C10.9202132,7.92666667 11.0399086,7.938 11.0618528,8.116 C11.0798071,8.27466667 10.9049188,8.55266667 10.9840508,8.88 C10.9966853,9.09533333 10.7559645,9.05666667 10.7559645,9.26133333 C10.7280355,9.51933333 10.8876294,9.58733333 10.9840508,9.71866667 C10.8550457,9.886 10.8071675,10.122 10.9082437,10.4826667 C10.9421574,10.6026667 10.9381675,10.6886667 11.0618528,10.712 C11.0970964,10.9506667 10.8557107,10.914 10.8324365,11.0946667 C10.8304416,11.256 10.9660964,11.3613333 10.9840508,11.552 C10.9986802,11.69 10.9388325,11.9386667 10.9082437,12.0866667 C10.8796497,12.232 10.9035888,12.4333333 10.7559645,12.4693333 C10.872335,12.6406667 10.9887056,12.7373333 10.9082437,13.0786667 C10.8956091,13.1366667 10.8244569,13.16 10.8324365,13.2306667 C10.8557107,13.456 10.9940254,13.4946667 10.9840508,13.6893333 C10.9674264,13.7613333 11.0059949,13.8493333 10.9840508,13.9186667 C10.978066,13.942 10.9095736,14.2253333 10.8324365,14.3013333" id="Fill-8" fill="#002A2E" mask="url(#mask-2)"></path>
                </g>
                <path d="M18.028644,44.0977999 C18.0828278,44.0990774 18.1046335,44.1706175 18.1039727,44.1706175 C18.2440576,44.1853087 18.2751142,44.1029099 18.4079306,44.0977999 C18.5321568,44.0926899 18.5308353,44.2223563 18.6339166,44.0977999 C18.6689379,44.0543648 18.7356764,44.1680625 18.7099061,44.1706175 C18.8070405,44.1591199 18.814309,44.0856636 18.936553,44.0977999 C19.0475637,44.1061036 19.0726732,44.197445 19.2398501,44.1706175 C19.3468961,44.1533712 19.3667194,44.0505323 19.4664969,44.0237048 C19.6303698,44.1891412 19.7242003,43.9643009 19.9957801,44.0237048 C20.0413738,43.8371895 20.2845401,43.8672108 20.4503953,43.8039744 C20.460307,43.8014194 20.4431268,43.7388219 20.4503953,43.7311568 C20.5177947,43.6653655 20.7484062,43.7075231 20.8290211,43.6583392 C21.055668,43.5178141 21.4818698,43.5510291 21.8135803,43.5114265 C22.0303155,43.4041164 22.0679798,43.3006388 22.2675348,43.2188786 C22.2437468,43.2290987 22.2926444,43.302555 22.3415419,43.2916962 C22.3415419,43.2916962 22.3778847,43.2322924 22.4181922,43.2188786 C22.5179697,43.1888573 22.5642241,43.1211498 22.7208285,43.146061 C22.7895494,43.0163946 22.8899877,42.9212207 23.0234648,42.8535131 C23.2732389,42.8509581 23.4001083,42.7289567 23.7047269,42.7806955 C23.7113347,42.6644429 23.8613313,42.6248403 23.9313738,42.5609652 C24.0093456,42.4907026 24.0767449,42.4063875 24.1586814,42.3412349 C24.1890772,42.3176011 24.2756391,42.3597587 24.3106603,42.3412349 C24.3760774,42.3067424 24.368148,42.1361959 24.4613177,42.1215046 C24.6760706,42.1821859 24.6588903,42.0193045 24.8392827,42.048687 C24.8703393,41.8570617 25.0652688,41.8276792 25.0672511,41.6092264 C25.198746,41.6156139 25.3024881,41.5932576 25.3698875,41.5364088 C25.4458769,41.3575586 25.3936755,41.3811923 25.4458769,41.0969482 C25.5938912,41.1193045 25.5952128,41.0004968 25.6725238,40.951313 C25.713492,40.6855926 25.5595307,40.7207239 25.5205448,40.5859475 C25.4987392,40.5067424 25.5621739,40.3636622 25.5205448,40.2933996 C25.4901491,40.2391057 25.3434563,40.1899219 25.2932372,40.1464869 C25.169011,40.0366217 25.1637247,39.8833215 25.0672511,40.0008517 C25.0196751,40.056423 24.8373004,39.7785664 24.8392827,39.7811214 C24.8214417,39.7587651 24.716378,39.7932576 24.6886254,39.7811214 C24.5306994,39.7108588 24.5326818,39.6699787 24.3853283,39.6354862 C24.3245367,39.6207949 24.332466,39.5696948 24.3106603,39.5601136 C24.0516354,39.4636622 24.1415012,39.5958836 23.9313738,39.5601136 C23.9260876,39.5601136 23.93666,39.492406 23.9313738,39.4885735 C23.9141936,39.4674947 23.8078083,39.4981547 23.7800556,39.4885735 C23.6545078,39.4406671 23.4853486,39.3467708 23.4014298,39.3403833 C23.3346913,39.3391057 23.3432814,39.2726757 23.3261011,39.2688432 C23.2355746,39.2464869 23.1172953,39.2752307 23.0234648,39.2688432 C23.0069454,39.2675656 23.0247864,39.1934705 22.9481361,39.1960256 C22.909811,39.1985806 22.9078287,39.2860894 22.796818,39.2688432 C22.7921925,39.2688432 22.8001219,39.2011356 22.796818,39.1960256 C22.784924,39.1813343 22.6673055,39.1960256 22.6461606,39.1960256 C22.1406654,39.1685593 21.5016931,39.1468417 21.2076469,39.1960256 C20.9486219,39.2369056 20.7675688,39.4080908 20.5263848,39.4157559 C20.359208,39.520511 20.6221976,39.5946061 20.4503953,39.6354862 C20.3631726,39.69489 20.2462149,39.7312988 20.0724303,39.7083038 C20.0631794,39.8935415 19.9330062,39.9625266 19.8444619,40.0723918 C19.6072426,40.0391767 19.644907,40.2697658 19.4664969,40.2933996 C19.4664969,40.3911285 19.4664969,40.4869411 19.4664969,40.5859475 C19.2444755,40.5661462 19.2352246,40.751384 19.0118816,40.7328602 C18.9147473,40.7782115 19.0013092,40.941093 18.936553,41.0241306 C18.9200335,41.0452094 18.8110051,41.0132718 18.784574,41.0241306 C18.6788495,41.0720369 18.7984504,41.2278921 18.784574,41.2438609 C18.6808319,41.3684173 18.5024218,41.3645848 18.4079306,41.5364088 C18.4237892,41.5057488 18.5486763,41.6884315 18.4079306,41.6833215 C18.2182873,41.6731015 18.0920787,41.7203691 18.028644,41.8289567 C18.1905346,41.9733144 17.8674142,41.9573456 17.8013364,42.048687 C17.7075059,42.1770759 17.775566,42.3092974 17.7253469,42.4140525 C17.7127921,42.4421576 17.5892266,42.4536551 17.5753503,42.4868701 C17.5125764,42.6299503 17.5627955,42.8081618 17.4987,42.9263307 C17.4782159,42.9646558 17.3777777,43.0336409 17.3473819,43.0732434 C17.3037705,43.1288148 17.2106008,43.2284599 17.1960637,43.2916962 C17.1960637,43.2916962 17.361919,43.3817601 17.3473819,43.4386089 C17.344078,43.4545777 17.225138,43.4398864 17.2713924,43.5114265 C17.6097107,43.6519517 17.5158803,43.8569908 17.5753503,44.0237048 C17.7663151,44.0831086 17.8462693,44.0869411 18.028644,44.0977999 Z M16.7421092,39.7811214 C16.7004802,39.6169624 16.6165614,39.4023421 16.4381514,39.1219304 C16.4097379,39.0772179 16.3119428,39.0171753 16.2861724,38.9762952 C16.2722961,38.9481902 16.311282,38.8479063 16.2861724,38.83066 C16.222077,38.7776437 16.1943243,38.7393187 16.1368366,38.6850248 C16.1328719,38.6799148 15.9855184,38.600071 15.9855184,38.6109297 C15.9894831,38.4863733 16.1725186,38.3452094 16.3641442,38.3183818 C16.2240593,38.1765791 16.2247201,38.258978 16.2861724,38.0245564 C16.4586355,37.8910575 16.6674413,37.902555 16.8927666,37.8048261 C16.9324133,37.7888573 17.0738198,37.7665011 17.1200743,37.7320085 C17.1438623,37.7147622 17.1749188,37.5953158 17.1960637,37.5863733 C17.2971628,37.5442158 17.6295341,37.7058197 17.5753503,37.4394606 C17.9817288,37.6355571 18.59427,37.5467708 18.936553,37.2938254 C19.2154013,37.2938254 19.4909457,37.2938254 19.769794,37.2938254 C19.9885115,37.2369766 20.2045859,37.1788502 20.2990772,37 C20.495989,37.2146203 20.4160349,37.0408801 20.7523709,37.0740951 C21.043774,37.1015614 21.4878168,37.1296664 21.7356085,37.2197303 C21.7646828,37.2293116 21.8717288,37.199929 21.888909,37.2197303 C21.9748102,37.3219304 21.9219479,37.1903478 22.0402272,37.2197303 C22.0626936,37.2248403 22.0362625,37.3059617 22.1148951,37.2938254 C22.1016795,37.2951029 22.1578457,37.2280341 22.1908846,37.2197303 C22.3402204,37.1852378 22.466429,37.2689141 22.6461606,37.2938254 C22.7736907,37.3110717 22.9613517,37.2899929 23.1001151,37.2938254 C23.1635498,37.2951029 23.1728006,37.3704755 23.2507725,37.366643 C23.2415216,37.366643 23.2785251,37.2951029 23.3261011,37.2938254 C23.3406383,37.2925479 23.5058328,37.3493967 23.5534088,37.366643 C23.7271934,37.4343506 24.1917203,37.5467708 24.5373072,37.5135557 C24.6106536,37.5927608 24.7216643,37.6841022 24.8392827,37.7320085 C25.0923607,37.8354862 25.1848696,37.8048261 25.3698875,37.9517388 C25.4174635,37.9887864 25.4742904,38.0654365 25.5205448,38.097374 C25.6308948,38.1740241 25.7861776,38.1210078 25.8238419,38.3183818 C26.0385948,38.3305181 26.1396938,38.4525195 26.3531251,38.464017 C26.5070864,38.828105 26.8077404,39.0491128 27.2630164,39.1219304 C27.1559704,39.3799858 27.3845996,39.4259759 27.4896633,39.5601136 C27.5088258,39.5888573 27.4638929,39.6885025 27.4896633,39.7083038 C27.5134513,39.72555 27.6251227,39.7587651 27.6403206,39.7811214 C27.7242394,39.9095103 27.6396599,40.1266856 27.8669675,40.1464869 C27.8669675,40.2933996 27.8669675,40.4390348 27.8669675,40.5859475 C28.2145367,40.8599716 27.7685116,41.1442158 27.7916388,41.5364088 C27.6416422,41.5389638 27.6964868,41.7350603 27.4896633,41.6833215 C27.5127905,41.9733144 27.3138963,42.051242 27.3376843,42.3412349 C27.1936347,42.3731725 27.1473803,42.4983676 26.9590585,42.4868701 C26.9722741,42.6484741 26.8969454,42.7200142 26.7317509,42.7066004 C26.6907827,42.9608233 26.409952,42.9806246 26.3531251,43.2188786 C26.2487222,43.26423 26.1542309,43.2386799 26.0504888,43.2916962 C26.0194322,43.3089425 26.0015912,43.4271114 25.9744993,43.4386089 C25.8813296,43.479489 25.7557818,43.3907026 25.7478525,43.5114265 C25.7419055,43.6161817 25.4590925,43.6634493 25.3698875,43.7311568 C25.3024881,43.7828957 25.2806824,43.8927608 25.2185693,43.9508872 C25.1643855,44.000071 25.0176928,43.9496097 25.0672511,44.0977999 C24.7765088,43.9579134 24.5663814,44.2140525 24.3853283,44.3903478 C24.2333493,44.3903478 24.0826919,44.3903478 23.9313738,44.3903478 C23.606271,44.6126331 23.2243413,44.7767921 22.9481361,45.0482612 C22.737348,45.0246274 22.5087188,45.0469837 22.3415419,45.1210788 C22.3124677,45.1344925 22.3342734,45.1779276 22.2675348,45.1951739 C22.0911071,45.2366927 21.9014638,45.2814053 21.6616014,45.3408091 C21.4719581,45.3273953 21.4250429,45.4532292 21.3583043,45.5605394 C21.0629365,45.4430092 20.579247,45.5209368 20.3750666,45.7074521 C20.1411512,45.6097232 20.1576707,45.7259759 19.8444619,45.7074521 C19.6911614,45.6569908 19.680589,45.823066 19.6184758,45.8530873 C19.5338963,45.8926899 19.385882,45.8070972 19.3905074,45.9259049 C19.1711291,45.8556423 19.1043906,45.8518098 18.784574,45.9259049 C18.6900828,45.9482612 18.6345774,45.9987225 18.5579272,46 C18.3920719,46 18.3682839,45.9418737 18.2559516,45.9259049 C17.9942835,45.8888573 17.6995766,45.9086586 17.4233714,45.8530873 C17.2522299,45.8173172 17.2885726,45.7444996 17.1200743,45.7074521 C17.0064204,45.6812633 16.8491553,45.7483322 16.7421092,45.7074521 C16.7097311,45.6940383 16.7440916,45.6371895 16.6661198,45.633357 C16.5683246,45.6295245 16.5722893,45.5183818 16.5148016,45.4877218 C16.4229535,45.4378992 16.2980664,45.4749468 16.2115045,45.4149042 C16.1513737,45.3714691 15.8586491,45.0750887 15.7582108,44.9754436 C15.6419139,44.8591909 15.5771577,44.7454933 15.4555745,44.6100781 C15.4165886,44.5653655 15.4654862,44.5398155 15.3802458,44.535983 C15.1740831,44.5251242 15.3597617,44.2740951 15.2276061,44.1706175 C15.1879594,44.1386799 15.1093268,43.9802697 15.0009592,43.8767921 C15.0934682,43.674308 14.9890652,43.4322214 15.0009592,43.2188786 C15.0188002,42.9250532 15.1787085,42.6350603 15.0769487,42.3412349 C15.0908251,42.2633073 15.2593234,42.3176011 15.3042563,42.2684173 C15.3386168,42.2288148 15.2811291,42.0965933 15.3042563,42.048687 C15.308221,42.0378282 15.4555745,41.9733144 15.4555745,41.9758694 C15.4568961,41.9426544 15.320115,41.8685593 15.3042563,41.9017743 C15.3267228,41.8570617 15.4165886,41.7931867 15.4555745,41.7561391 C15.5057936,41.7069553 15.531564,41.6341377 15.6062319,41.6092264 C15.6062319,41.4878637 15.6062319,41.3652236 15.6062319,41.2438609 C15.6577726,41.1806246 15.8269317,41.2004258 15.8328787,41.0969482 C15.8408081,40.9749468 15.9795714,41.0132718 16.0601864,40.8784954 C16.0615079,40.8069553 16.1533561,40.8229241 16.2115045,40.8044003 C16.2795647,40.3566359 16.6053282,40.1611781 16.7421092,39.7811214 L16.7421092,39.7811214 Z" id="Fill-10" fill="#002A2E"></path>
                <polyline id="Fill-11" fill="#002A2E" points="4 19 4.00061681 0 8 0 7.99938319 19 4 19"></polyline>
                <polyline id="Fill-12" fill="#002A2E" points="34.0468019 19 29.6734269 18.9993434 26.4336973 6.83931718 23.1406656 18.9986869 18.7672907 18.9986869 14 0 18.5573323 0 21.2438898 12.6655724 24.7481799 0.00065655344 28.1731669 0.00065655344 31.676157 12.7200663 34.3640146 0.00131310688 39 0.00131310688 34.0468019 19"></polyline>
                <path d="M41.0006408,3.40631695 L41.0006408,0 L45,0.000656576128 L45,3.40697353 L41.0006408,3.40631695 Z M41,18.9993434 L41.0006408,4.78972286 L45,4.79037943 L44.9993592,19 L41,18.9993434 L41,18.9993434 Z" id="Fill-13" fill="#002A2E"></path>
                <polyline id="Fill-14" fill="#002A2E" points="48 19 48.0006408 0 52 0 51.9993592 19 48 19"></polyline>
                <polyline id="Fill-15" fill="#002A2E" points="56 18.9993434 56.0012814 0 60 0.000656576128 59.9993593 19 56 18.9993434"></polyline>
                <polyline id="Fill-16" fill="#002A2E" points="75.11322 3.83243486 75.1125598 19 70.8583925 19 70.8590526 3.83243486 65 3.83177828 65 0 81 0.00131315226 80.9993398 3.83309144 75.11322 3.83243486"></polyline>
                <path d="M89.7897633,10.7800476 C89.650798,9.00636764 88.3959824,8.06447326 86.7235828,8.06447326 C84.9665658,8.06447326 83.7681618,9.13969213 83.6003027,10.7793843 L89.7897633,10.7800476 Z M86.6396533,5 C91.2956797,5.00066331 94,8.01140879 94,12.1776332 C94,12.7699653 93.9442763,13.2263198 93.9160704,13.575882 L83.6003027,13.5752187 C83.6560264,15.4842131 85.1337369,16.3703898 87.2526142,16.3703898 C88.9250138,16.3710531 90.2912768,15.807243 91.2674739,14.7054919 L93.9160704,17.1782963 C92.1590534,19.0866274 89.9012108,20.0006629 87.0290314,19.9999996 C81.6761145,19.9999996 79,16.8008753 79,12.5809231 C79.0006879,8.25285214 81.8164557,5 86.6396533,5 L86.6396533,5 Z" id="Fill-17" fill="#002A2E"></path>
                <path d="M103.378803,12.7421067 C102.821394,13.4405678 101.973503,13.4949589 100.93981,13.6826744 C99.9852797,13.8445211 99.0307491,14.0859644 99.0307491,15.3223667 C99.0307491,16.3975856 99.7988224,16.8817989 100.912332,16.8817989 C102.291462,16.8817989 103.378803,16.0752189 103.378803,14.3274078 L103.378803,12.7421067 Z M95.5044161,6.66622446 C97.307491,5.56381003 99.3487079,5 101.549558,5 C105.023553,5 107.435721,6.37039002 107.435721,9.94627222 L107.435067,16.1289467 C107.435067,16.8008756 107.64704,17.0157867 108.097808,17.0157867 C108.283611,17.0157867 108.548577,16.9627222 108.708211,16.8552666 L109,19.51645 C108.442591,19.7850889 107.594046,19.8925444 107.037291,19.8925444 C105.711809,19.8925444 104.545306,19.3546033 104.094537,18.1453967 C103.140007,19.51645 101.363755,20 99.7988224,20 C97.0412169,19.9993367 95,18.4133722 95,15.5100822 C95,12.0423189 97.9165849,11.3159989 100.038273,11.1017511 C102.185476,10.88684 103.378803,10.7793845 103.378803,9.7313611 C103.378803,8.62894667 102.159961,8.36030777 101.178606,8.36030777 C99.7994766,8.36030777 98.1560353,8.81666224 96.8822375,9.70350226 L95.5044161,6.66622446 L95.5044161,6.66622446 Z" id="Fill-18" fill="#002A2E"></path>
                <path d="M120.882555,10.4039533 C120.215659,9.22061555 119.186126,8.54802335 117.849588,8.54802335 C115.734203,8.54802335 114.508929,10.1883789 114.508929,12.4728045 C114.508929,14.8653489 115.789148,16.4513133 117.932005,16.4513133 C119.40728,16.4513133 120.409341,15.6991244 121.18956,14.6511011 L124,16.9089944 C122.747253,18.54935 120.743132,20 117.598214,20 C112.978022,20 110,16.8008756 110,12.5271955 C110,8.22565667 113.006181,5 117.515797,5 C120.82761,5 122.887363,6.77500663 123.945055,8.54868665 L120.882555,10.4039533" id="Fill-19" fill="#002A2E"></path>
                <path d="M125,18.9993434 L125.000664,0 L129.146054,0 L129.146054,6.33333333 C130.006743,5.24276038 131.48705,4.47128343 133.26355,4.47128343 C136.33175,4.47128343 138.000664,6.70626857 138,9.55318267 L138,19 L133.85461,19 L133.855274,10.4848642 C133.855274,9.26100629 133.452158,8.09033105 131.78258,8.09033105 C130.302937,8.08967448 129.145389,9.07453867 129.145389,10.9096689 L129.144725,18.9993434 L125,18.9993434" id="Fill-20" fill="#002A2E"></path>
                <polyline id="Fill-21" fill="#002A2E" points="153.132014 11.0974497 153.132014 19 148.840185 18.9993434 148.840185 11.1230562 142 0 146.963007 0 151.013238 7.13172991 155.064132 0.000656576128 160 0.000656576128 153.132014 11.0974497"></polyline>
                <path d="M165.501002,8.44056787 C163.496637,8.43990457 162.413612,10.1333246 162.412944,12.4986734 C162.412944,14.8646856 163.495969,16.5587689 165.500334,16.5587689 C167.530756,16.5587689 168.613781,14.8653489 168.613781,12.4993367 C168.614449,10.1339879 167.531424,8.44056787 165.501002,8.44056787 Z M165.500334,20 C160.950425,19.9993367 157.999332,16.9885912 158,12.525869 C158,8.03727788 160.951762,4.9993368 165.501002,5.00000011 C170.076968,5.00000011 173.000668,8.03794119 173,12.5265323 C173,16.9892545 170.076299,20 165.500334,20 L165.500334,20 Z" id="Fill-22" fill="#002A2E"></path>
                <path d="M188,5.00067787 L187.999336,19.671231 L183.881175,19.6705531 L183.881175,18.0768709 C183.019821,19.2306128 181.512286,20 179.73645,20 C176.694815,20 175,17.6925163 175,14.7525759 L175.000664,5 L179.144725,5 L179.144061,13.7635575 C179.144061,15.0277928 179.547842,16.2635575 181.216756,16.2635575 C182.723627,16.2635575 183.881175,15.2474241 183.881175,13.35141 L183.881839,5 L188,5.00067787" id="Fill-23" fill="#002A2E"></path>
            </g>
        </g>
    </g>
</svg>