<?xml version="1.0" encoding="UTF-8"?>
<svg width="190px" height="134px" viewBox="0 0 190 134" version="1.1" xmlns="http://www.w3.org/2000/svg" xmlns:xlink="http://www.w3.org/1999/xlink">
    <!-- Generator: Sketch 40.3 (33839) - http://www.bohemiancoding.com/sketch -->
    <title>logo</title>
    <desc>Created with Sketch.</desc>
    <defs></defs>
    <g id="Page-1" stroke="none" stroke-width="1" fill="none" fill-rule="evenodd">
        <g id="logo">
            <rect id="Rectangle" fill="#FFFFFF" x="0" y="0" width="190" height="134"></rect>
            <path d="M0.108778626,43.6530612 C0.108778626,41.3634597 1.95801527,39.5170068 4.09732824,39.5170068 C6.34541985,39.5170068 8.04961832,41.3634597 8.04961832,43.6530612 L8.04961832,73.5286686 L24.1125954,73.5286686 C26.2156489,73.5286686 28.101145,75.3751215 28.101145,77.5539359 C28.101145,79.8066084 26.2881679,81.4684159 24.1125954,81.4684159 L4.75,81.4684159 C1.74045802,81.4684159 0.108778626,79.2896016 0.108778626,76.7414966 L0.108778626,43.6530612 L0.108778626,43.6530612 Z" id="Shape" fill="#002A2E"></path>
            <path d="M21.3568702,55.3965015 C20.0877863,52.3683188 22.1545802,49.5617104 25.0553435,49.5617104 C26.8683206,49.5617104 28.3187023,50.5587949 29.0438931,52.6268222 L35.4255725,69.3926142 C35.5343511,69.6880466 35.6431298,69.7619048 35.7881679,69.7619048 C35.8969466,69.7619048 36.0057252,69.7619048 36.1507634,69.3926142 L42.1698473,52.6268222 C42.8587786,50.6695821 44.3091603,49.5617104 46.1583969,49.5617104 C49.1679389,49.5617104 51.1622137,52.516035 49.8568702,55.4703596 L39.0152672,81.1729835 C36.5858779,86.9708455 33.5038168,90.6637512 31.2919847,92.1409135 C30.4217557,92.7317784 29.1889313,93.2487852 28.101145,93.2487852 C25.9980916,93.2487852 24.221374,91.845481 24.221374,89.5189504 C24.221374,88.1525753 24.8740458,87.1554908 25.9618321,86.3430515 C27.7022901,85.0874636 29.9503817,82.8717201 31.2919847,79.0680272 L21.3568702,55.3965015 L21.3568702,55.3965015 Z" id="Shape" fill="#002A2E"></path>
            <path d="M74.5496183,71.6452867 C74.5496183,78.2555879 69.1469466,81.9115646 62.4389313,81.9115646 C57,81.9115646 53.519084,80.3236152 51.379771,78.4771623 C50.0019084,77.2954325 49.5667939,75.04276 50.6908397,73.5655977 C51.851145,71.9776482 53.8091603,71.6083576 55.730916,72.8639456 C57.5438931,74.0456754 59.9007634,74.8211856 62.620229,74.8211856 C65.629771,74.8211856 67.0438931,73.7133139 67.0438931,72.0884354 C67.0438931,70.7959184 66.101145,69.909621 63.6717557,69.3187561 C61.5687023,68.8386783 61.6412214,68.9125364 59.3931298,68.3216715 C54.6431298,67.0660836 50.9446565,64.3702624 50.9446565,59.2740525 C50.9446565,52.8853256 55.9847328,49.4139942 62.7652672,49.4139942 C66.4274809,49.4139942 70.1984733,50.3741497 72.2290076,52.0728863 C73.8969466,53.4761905 73.7881679,55.9135083 72.5916031,57.3168124 C71.4312977,58.6093294 69.4732824,58.7939747 67.5515267,57.7968902 C66.028626,57.02138 63.9980916,56.5043732 62.5114504,56.5043732 C59.610687,56.5043732 58.3778626,57.6122449 58.3778626,59.0524781 C58.3778626,60.3080661 59.2480916,61.1205053 61.8587786,61.7113703 L65.9923664,62.6715258 C71.6851145,64.0748299 74.5496183,66.9922255 74.5496183,71.6452867 L74.5496183,71.6452867 Z" id="Shape" fill="#002A2E"></path>
            <path d="M86.4427481,81.9115646 C79.2633588,81.9115646 76,76.8892128 76,70.2789116 L76,46.9766764 C76,44.6870748 77.6679389,42.840622 79.879771,42.840622 C82.019084,42.840622 83.759542,44.6870748 83.759542,46.9766764 L83.759542,51.0019436 L91.0114504,51.0019436 C92.9332061,51.0019436 94.601145,52.4791059 94.601145,54.5471331 C94.601145,56.5043732 92.9332061,57.9815355 91.0114504,57.9815355 L83.759542,57.9815355 L83.759542,70.1311953 C83.759542,72.9747328 84.9923664,74.4888241 87.5305344,74.4888241 C88.7996183,74.4888241 90.0687023,74.1195335 91.120229,73.8241011 C94.0935115,73.122449 95.9427481,75.0058309 95.9427481,77.1846453 C95.9427481,78.4771623 95.2900763,79.8435374 93.5133588,80.6559767 C91.519084,81.6161322 88.6545802,81.9115646 86.4427481,81.9115646 L86.4427481,81.9115646 Z" id="Shape" fill="#002A2E"></path>
            <path d="M122.158397,75.8921283 C122.158397,77.2585034 121.795802,77.9601555 120.780534,78.6618076 C119.148855,79.7696793 114.979008,81.9115646 108.561069,81.9115646 C100.148855,81.9115646 96.3416031,77.1107872 96.3416031,71.5344995 C96.3416031,66.5121477 99.75,61.8960155 108.270992,61.8960155 C110.80916,61.8960155 112.513359,62.2653061 114.688931,62.7823129 L114.688931,61.1943635 C114.688931,58.1292517 113.23855,56.5782313 109.177481,56.5782313 C107.146947,56.5782313 105.043893,57.0952381 103.593511,57.5753158 C100.293893,58.6462585 98.2633588,56.9105928 98.2633588,54.5102041 C98.2633588,53.143829 98.8435115,51.7405248 100.801527,50.8911565 C102.433206,50.1895044 105.805344,49.4139942 109.322519,49.4139942 C117.480916,49.4139942 122.122137,53.0699708 122.122137,61.4159378 L122.122137,75.8921283 L122.158397,75.8921283 Z M114.652672,73.6394558 L114.652672,68.3216715 C112.694656,67.7308066 111.062977,67.361516 108.851145,67.361516 C105.732824,67.361516 103.811069,68.9494655 103.811069,71.202138 C103.811069,73.787172 105.841603,75.1535471 109.032443,75.1535471 C112.223282,75.1904762 114.03626,74.0826045 114.652672,73.6394558 L114.652672,73.6394558 Z" id="Shape" fill="#002A2E"></path>
            <path d="M151.129771,69.6511176 C150.477099,76.8522838 145.437023,81.9484937 137.387405,81.9484937 C131.477099,81.9484937 126.908397,79.4003887 125.204198,78.2186589 C124.152672,77.5170068 123.826336,76.7414966 123.826336,75.4489796 L123.826336,43.1360544 C123.826336,40.8464529 125.494275,39.0738581 127.706107,39.0738581 C129.84542,39.0738581 131.585878,40.8464529 131.585878,43.1360544 L131.585878,50.9280855 C133.326336,50.1525753 136.118321,49.4509232 138.438931,49.4509232 C146.089695,49.4509232 150.44084,54.1778426 151.129771,61.4897959 C151.311069,63.6686103 151.311069,67.5092323 151.129771,69.6511176 L151.129771,69.6511176 Z M143.370229,62.7823129 C143.152672,59.1263362 141.412214,56.9844509 137.677481,56.9844509 C135.139313,56.9844509 132.564885,57.9446064 131.585878,58.5724004 L131.585878,72.494655 C132.528626,73.3070943 135.139313,74.3411079 137.206107,74.3411079 C140.977099,74.3411079 143.043893,72.1622935 143.333969,68.3216715 C143.479008,66.7337221 143.406489,64.0748299 143.370229,62.7823129 L143.370229,62.7823129 Z" id="Shape" fill="#002A2E"></path>
            <path d="M160.883588,43.2468416 L160.883588,77.664723 C160.883588,79.9173955 159.251908,81.7269193 157.003817,81.7269193 C154.900763,81.7269193 153.124046,79.8804665 153.124046,77.664723 L153.124046,43.2468416 C153.124046,40.95724 154.791985,39.1107872 157.003817,39.1107872 C159.14313,39.1107872 160.883588,40.95724 160.883588,43.2468416 L160.883588,43.2468416 Z" id="Shape" fill="#002A2E"></path>
            <path d="M189.891221,64.4441205 C189.891221,66.7337221 188.730916,68.3955296 185.902672,68.3955296 L170.492366,68.3955296 L170.492366,68.9863946 C170.492366,72.7162293 173.284351,74.7103984 177.164122,74.7103984 C179.267176,74.7103984 181.406489,74.1933916 183.364504,73.4178814 C186.446565,72.2361516 188.477099,74.3780369 188.477099,76.5568513 C188.477099,77.664723 188.078244,78.920311 186.519084,79.8804665 C184.379771,81.1729835 180.681298,81.9484937 176.946565,81.9484937 C168.933206,81.9484937 163.566794,76.8153547 162.986641,69.4295432 C162.805344,67.1399417 162.877863,63.8901846 162.986641,62.0437318 C163.675573,54.3624879 169.078244,49.4509232 176.656489,49.4509232 C184.524809,49.4509232 189.927481,54.8425656 189.927481,63.1516035 L189.927481,64.4441205 L189.891221,64.4441205 Z M181.769084,63.0408163 C182.167939,63.0408163 182.421756,62.819242 182.421756,62.3391642 C182.603053,58.7201166 180.391221,56.3197279 176.620229,56.3197279 C172.486641,56.3197279 170.492366,58.97862 170.492366,63.0408163 L181.769084,63.0408163 L181.769084,63.0408163 Z" id="Shape" fill="#002A2E"></path>
        </g>
    </g>
</svg>