<?xml version="1.0" encoding="UTF-8" standalone="no"?>
<svg width="191px" height="134px" viewBox="0 0 191 134" version="1.1" xmlns="http://www.w3.org/2000/svg" xmlns:xlink="http://www.w3.org/1999/xlink" xmlns:sketch="http://www.bohemiancoding.com/sketch/ns">
    <!-- Generator: Sketch 3.4 (15575) - http://www.bohemiancoding.com/sketch -->
    <title>salesforce</title>
    <desc>Created with Sketch.</desc>
    <defs></defs>
    <g id="Page-1" stroke="none" stroke-width="1" fill="none" fill-rule="evenodd" sketch:type="MSPage">
        <g id="Artboard-1" sketch:type="MSArtboardGroup" transform="translate(-226.000000, -103.000000)">
            <g id="hero-img" sketch:type="MSLayerGroup" transform="translate(123.500000, 59.000000)">
                <g id="salesforce" transform="translate(103.000000, 44.000000)" sketch:type="MSShapeGroup">
                    <g id="Group" fill="#002A2E">
                        <path d="M132.075503,21.7990431 C126.432886,11.4444976 115.530201,4.39186603 102.937919,4.39186603 C93.5016779,4.39186603 85.0536913,8.36698565 78.9966443,14.6822967 C72.2063758,5.86650718 61.6224832,0.160287081 49.6996644,0.160287081 C29.2969799,0.224401914 12.7197987,16.862201 12.7197987,37.4110048 C12.7197987,42.5722488 13.7718121,47.5090909 15.6526846,51.9650718 C6.31208054,57.607177 0,67.9617225 0,79.7909091 C0,97.6789474 14.4412752,112.200957 32.2298658,112.200957 C34.238255,112.200957 36.2785235,112.008612 38.1912752,111.623923 C43.1006711,124.57512 55.5654362,133.775598 70.1661074,133.775598 C84.2567114,133.775598 96.3708054,125.216268 101.630872,112.938278 C105.583893,114.829665 109.951342,115.88756 114.605705,115.88756 C125.827181,115.88756 135.582215,109.732536 140.778523,100.660287 C143.265101,101.141148 145.879195,101.397608 148.525168,101.397608 C171.318792,101.397608 189.744966,82.8363636 189.744966,59.9473684 C189.776846,36.962201 171.286913,18.4009569 148.493289,18.4009569 C142.659396,18.4009569 137.144295,19.6191388 132.075503,21.7990431 Z" id="Shape"></path>
                    </g>
                    <path d="M93.7885906,53.7923445 L98.2516779,53.7923445 C100.515101,46.1626794 103.989933,42.3799043 108.166107,42.3799043 C111.481544,42.3799043 113.298658,44.3674641 113.298658,45.8100478 C113.298658,46.4832536 112.852349,46.9320574 112.151007,46.9320574 C110.142617,46.9320574 110.333893,43.4057416 107.719799,43.4057416 C104.818792,43.4057416 103.288591,46.9 101.375839,53.7923445 L105.360738,53.7923445 L105.073826,54.9143541 L100.993289,54.9143541 L95.8288591,72.1291866 C93.2466443,80.6564593 90.6006711,86.0100478 84.0973154,86.0100478 C81.1644295,86.0100478 79.0604027,84.6636364 79.0604027,82.6760766 C79.0604027,81.7464115 79.7298658,81.0732057 80.6543624,81.0732057 C81.6107383,81.0732057 82.1845638,81.7143541 82.1845638,82.8043062 C82.1845638,83.092823 82.0889262,83.4454545 82.0889262,83.7660287 C82.0889262,84.3430622 82.9177852,84.9842105 84.2885906,84.9842105 C88.3372483,84.9842105 90.25,80.3038278 92.864094,71.5842105 L97.9647651,54.8822967 L93.5016779,54.8822967 L93.7885906,53.7923445 L93.7885906,53.7923445 Z M111.162752,68.8913876 C109.377517,68.8913876 108.325503,68.154067 107.464765,66.9679426 C106.253356,65.2368421 106.030201,63.8263158 106.030201,61.7105263 C106.030201,58.8574163 106.572148,57.3186603 108.006711,55.8119617 C108.931208,54.8502392 109.887584,54.5937799 110.907718,54.5937799 C112.82047,54.5937799 115.848993,57.2545455 115.848993,61.4220096 C115.880872,65.3971292 114,68.8913876 111.162752,68.8913876 L111.162752,68.8913876 Z M110.748322,70.0133971 C115.370805,70.0133971 119.068792,65.845933 119.068792,61.7425837 C119.068792,59.2741627 118.208054,57.3507177 116.518456,55.5875598 C115.402685,54.4655502 113.298658,53.4076555 111.22651,53.4076555 C109.983221,53.4076555 108.134228,53.6961722 106.189597,55.2028708 C103.989933,56.9339713 102.969799,59.3703349 102.969799,61.2617225 C102.969799,63.922488 103.32047,65.3330144 105.041946,67.4167464 C106.540268,69.3401914 108.899329,70.0133971 110.748322,70.0133971 L110.748322,70.0133971 Z M122.479866,59.5626794 C122.479866,57.1583732 121.746644,56.7095694 121.364094,56.5492823 C121.077181,56.45311 120.503356,56.292823 120.407718,56.292823 C120.312081,56.2287081 120.120805,56.1966507 120.120805,56.0363636 L120.120805,55.7799043 C120.120805,55.6196172 120.216443,55.4913876 120.407718,55.4272727 C120.758389,55.3311005 122.511745,54.5617225 124.105705,53.5038278 C124.392617,53.3114833 124.870805,53.1191388 124.870805,53.7923445 L125.062081,56.3889952 L125.221477,56.3889952 C126.337248,54.6578947 128.122483,53.0870813 129.748322,53.0870813 C131.055369,53.0870813 131.661074,53.8564593 131.661074,54.7220096 C131.661074,55.8440191 130.736577,56.5492823 130.067114,56.5492823 C129.620805,56.5492823 129.302013,56.3889952 128.951342,56.2607656 C128.66443,56.0684211 128.186242,55.9722488 127.708054,55.9722488 C127.07047,55.9722488 126.114094,56.3569378 125.508389,57.5751196 C125.253356,58.0239234 125.125839,58.6971292 125.125839,58.7933014 L125.125839,66.7114833 C125.125839,67.8655502 125.380872,68.2502392 126.177852,68.2502392 L127.963087,68.2502392 C128.218121,68.2502392 128.218121,68.3464115 128.218121,68.6028708 L128.218121,69.2760766 C128.218121,69.5325359 128.154362,69.6287081 128.026846,69.6287081 C127.771812,69.6287081 126.050336,69.5325359 124.041946,69.5325359 C121.682886,69.5325359 120.152685,69.6287081 119.897651,69.6287081 C119.738255,69.6287081 119.642617,69.5325359 119.642617,69.2440191 L119.642617,68.6028708 C119.642617,68.3464115 119.738255,68.2502392 120.088926,68.2502392 L121.587248,68.2502392 C122.161074,68.2502392 122.416107,67.9937799 122.416107,67.5129187 C122.479866,66.2626794 122.479866,64.9483254 122.479866,63.0248804 L122.479866,59.4344498 L122.479866,59.4344498 L122.479866,59.5626794 Z M133.956376,60.4602871 C133.956376,62.4799043 134.880872,64.8200957 135.869128,66.1665072 C137.112416,67.8014354 138.706376,68.0899522 139.949664,68.0899522 C141.830537,68.0899522 142.786913,67.6411483 144.09396,66.4550239 C144.189597,66.3588517 144.285235,66.3588517 144.380872,66.4550239 L144.763423,66.8397129 C144.922819,67 144.954698,67.0961722 144.763423,67.3205742 C143.647651,68.5708134 141.256711,69.9813397 138.706376,69.9813397 C136.729866,69.9813397 134.625839,69.5325359 132.872483,67.3205742 C131.469799,65.4933014 131.182886,63.8904306 131.182886,62.1913876 C131.182886,57.7995215 134.275168,53.3435407 139.216443,53.3435407 C143.105705,53.3435407 144.317114,55.6196172 144.317114,56.3889952 C144.253356,57.2545455 143.67953,57.7033493 142.91443,57.7033493 C142.053691,57.7033493 141.416107,57.222488 140.842282,56.1966507 C140.013423,54.6578947 139.216443,54.5617225 138.355705,54.5617225 C136.219799,54.6258373 133.956376,56.5492823 133.956376,60.4602871 L133.956376,60.4602871 Z M148.270134,58.4406699 C149.003356,55.6196172 150.565436,54.5617225 152.223154,54.5617225 C154.677852,54.5617225 155.124161,57.0301435 155.124161,57.8956938 C155.124161,58.2483254 154.837248,58.4406699 154.104027,58.4406699 L148.270134,58.4406699 L148.270134,58.4406699 Z M157.387584,59.5626794 C157.961409,59.5626794 158.439597,59.4665072 158.439597,58.9856459 C158.439597,57.5430622 157.228188,53.4076555 152.892617,53.4076555 C151.011745,53.4076555 149.130872,53.7602871 147.505034,55.3952153 C145.528523,57.3827751 145.145973,59.8832536 145.145973,61.3899522 C145.145973,63.9866029 145.496644,65.3971292 146.771812,67.3526316 C148.174497,69.3722488 150.533557,70.0133971 152.701342,70.0133971 C156.080537,70.0133971 157.993289,67.4167464 158.662752,65.9100478 C158.854027,65.461244 158.758389,65.3650718 158.662752,65.3330144 L158.184564,65.076555 C158.088926,65.0124402 157.92953,65.1406699 157.833893,65.2688995 C157.196309,66.5191388 155.57047,67.8334928 153.275168,67.8334928 C150.246644,67.8334928 147.951342,65.0124402 147.951342,61.3578947 C147.951342,60.4923445 148.015101,59.915311 148.04698,59.5626794 L157.387584,59.5626794 L157.387584,59.5626794 Z" id="Shape" fill="#FFFFFF"></path>
                    <path d="M33.9513423,68.9555024 C33.7600671,68.8593301 33.7600671,68.6028708 33.6963087,68.4105263 L33.0587248,64.8200957 C32.9949664,64.6277512 33.1543624,64.5636364 33.3137584,64.5315789 L33.7919463,64.4354067 C33.9513423,64.3712919 34.0469799,64.4995215 34.1426174,64.691866 L35.0989933,66.5191388 C35.864094,67.9296651 36.4060403,68.8272727 38.3825503,68.8272727 C39.6895973,68.8272727 41.3791946,68.0578947 41.3791946,66.2626794 C41.3791946,64.5636364 40.5503356,63.6019139 37.7130872,62.7684211 C35.5134228,62.1272727 33.2818792,60.9732057 33.2818792,57.991866 C33.2818792,55.3952153 35.7365772,53.4076555 38.5738255,53.4076555 C40.3909396,53.4076555 41.3791946,53.8564593 42.0486577,54.1770335 C42.6224832,54.4334928 42.6862416,54.6258373 42.7181208,54.8502392 L43.2919463,57.5110048 C43.2919463,57.6712919 43.1963087,57.7674641 43.0369128,57.8636364 L42.590604,58.0239234 C42.4312081,58.0880383 42.3355705,58.0239234 42.2399329,57.8315789 L40.9328859,56.1004785 C40.4865772,55.3631579 39.7852349,54.6578947 38.2869128,54.6578947 C36.852349,54.6578947 35.385906,55.523445 35.385906,57.1263158 C35.385906,59.3062201 37.1711409,59.7229665 38.988255,60.2679426 C41.7298658,61.0373206 43.4513423,62.1913876 43.5151007,65.1086124 C43.4513423,68.154067 41.0285235,70.077512 37.7768456,70.077512 C35.9278523,70.0133971 34.4295302,69.2760766 33.9513423,68.9555024 L33.9513423,68.9555024 Z M63.6308725,58.3444976 C63.6308725,60.3320574 63.6308725,65.9741627 63.6946309,67.1602871 C63.7583893,67.8014354 63.885906,68.3143541 64.6510067,68.3143541 L66.340604,68.3143541 C66.6912752,68.3143541 66.7869128,68.4105263 66.7869128,68.6669856 L66.7869128,69.308134 C66.7869128,69.5645933 66.6912752,69.692823 66.5318792,69.692823 C66.2768456,69.692823 64.6191275,69.5966507 62.2919463,69.5966507 C59.9010067,69.5966507 59.5503356,69.692823 59.1996644,69.692823 C59.0083893,69.692823 58.9127517,69.5325359 58.9127517,69.308134 L58.9127517,68.6669856 C58.9127517,68.4105263 59.0083893,68.3143541 59.3909396,68.3143541 L60.0285235,68.3143541 C60.4748322,68.3143541 60.7936242,68.0578947 60.8573826,67.384689 C60.9211409,66.230622 60.9211409,59.7550239 60.9211409,57.5751196 L60.9211409,55.2028708 C60.9211409,52.5421053 60.8573826,49.1119617 60.8255034,48.1502392 C60.6661074,46.0665072 60.761745,46.0665072 59.1996644,45.7779904 C58.8171141,45.7138756 58.3389262,45.6818182 58.1795302,45.6177033 C58.0201342,45.5535885 57.9244966,45.5215311 57.9244966,45.4253589 L57.9244966,45.1368421 C57.9244966,45.0406699 58.0201342,44.9444976 58.2751678,44.8803828 C59.9647651,44.3033493 61.3036913,43.7583732 62.7063758,42.7004785 C63.057047,42.4440191 63.2802013,42.4119617 63.4714765,42.4119617 C63.7265101,42.4119617 63.8221477,42.6043062 63.7583893,43.0851675 C63.6946309,45.1688995 63.5989933,52.9909091 63.5989933,55.0746411 L63.5989933,58.3444976 L63.6308725,58.3444976 L63.6308725,58.3444976 Z M70.102349,58.4406699 C70.8355705,55.6196172 72.397651,54.5617225 74.0553691,54.5617225 C76.5100671,54.5617225 76.9563758,57.0301435 76.9563758,57.8956938 C76.9563758,58.2483254 76.6694631,58.4406699 75.9362416,58.4406699 L70.102349,58.4406699 L70.102349,58.4406699 Z M79.2197987,59.5626794 C79.8573826,59.5626794 80.2718121,59.4665072 80.2718121,58.9856459 C80.2718121,57.5430622 79.0604027,53.4076555 74.7248322,53.4076555 C72.8439597,53.4076555 70.9630872,53.7602871 69.3372483,55.3952153 C67.3288591,57.3827751 66.9781879,59.8832536 66.9781879,61.3899522 C66.9781879,63.9866029 67.3288591,65.3971292 68.6040268,67.3526316 C70.0067114,69.3722488 72.3657718,70.0133971 74.533557,70.0133971 C77.9127517,70.0133971 79.8255034,67.4167464 80.4949664,65.9100478 C80.6862416,65.461244 80.590604,65.3650718 80.4949664,65.3330144 L80.0167785,65.076555 C79.9211409,65.0124402 79.761745,65.1406699 79.6661074,65.2688995 C79.0285235,66.5191388 77.4026846,67.8334928 75.1073826,67.8334928 C72.0788591,67.8334928 69.783557,65.0124402 69.783557,61.3578947 C69.783557,60.4923445 69.8473154,59.915311 69.8791946,59.5626794 L79.2197987,59.5626794 L79.2197987,59.5626794 Z M82.7265101,68.9555024 C82.5352349,68.8593301 82.5352349,68.6028708 82.4714765,68.4105263 L81.8338926,64.8200957 C81.7701342,64.6277512 81.9295302,64.5636364 82.0889262,64.5315789 L82.5671141,64.4354067 C82.7265101,64.3712919 82.8221477,64.4995215 82.9177852,64.691866 L83.8741611,66.5191388 C84.6392617,67.9296651 85.1812081,68.8272727 87.1577181,68.8272727 C88.4647651,68.8272727 90.1543624,68.0578947 90.1543624,66.2626794 C90.1543624,64.5636364 89.3255034,63.6019139 86.488255,62.7684211 C84.2885906,62.1272727 82.057047,60.9732057 82.057047,57.991866 C82.057047,55.3952153 84.511745,53.4076555 87.3489933,53.4076555 C89.1661074,53.4076555 90.1543624,53.8564593 90.8238255,54.1770335 C91.397651,54.4334928 91.4614094,54.6258373 91.4932886,54.8502392 L92.0671141,57.5110048 C92.0671141,57.6712919 91.9714765,57.7674641 91.8120805,57.8636364 L91.3657718,58.0239234 C91.2063758,58.0880383 91.1107383,58.0239234 91.0151007,57.8315789 L89.7080537,56.1004785 C89.261745,55.3631579 88.5604027,54.6578947 87.0620805,54.6578947 C85.6275168,54.6578947 84.1610738,55.523445 84.1610738,57.1263158 C84.1610738,59.3062201 85.9463087,59.7229665 87.7634228,60.2679426 C90.5050336,61.0373206 92.2265101,62.1913876 92.2902685,65.1086124 C92.2265101,68.154067 89.8036913,70.077512 86.5520134,70.077512 C84.7030201,70.0133971 83.204698,69.2760766 82.7265101,68.9555024 L82.7265101,68.9555024 Z M53.3020134,66.1344498 C53.3020134,67.1602871 51.3255034,68.3464115 50.2097315,68.3143541 C49.0939597,68.2502392 48.2332215,67.5449761 48.2332215,66.1344498 C48.2332215,62.992823 51.9312081,62.4478469 53.2701342,61.4861244 L53.2701342,66.1344498 L53.3020134,66.1344498 Z M56.0436242,63.2492823 L56.0436242,57.3507177 C56.0436242,56.3248804 55.9798658,55.4593301 55.2147651,54.6258373 C54.6728188,54.0808612 53.9714765,53.5679426 52.1862416,53.4717703 C50.4966443,53.3755981 49.1577181,53.9526316 47.6275168,54.8181818 C46.0973154,55.6516746 45.045302,57.0301435 45.045302,58.2483254 C45.045302,59.1138756 45.3322148,59.4665072 45.9697987,59.4985646 C47.5,59.5947368 47.9463087,58.761244 47.9463087,57.4789474 C47.9463087,56.8057416 47.5956376,56.2287081 48.1375839,55.7478469 C48.6795302,55.2669856 49.8271812,54.7861244 50.5922819,54.8181818 C51.7080537,54.8822967 52.409396,55.2669856 52.8557047,55.7478469 C53.3020134,56.292823 53.3020134,57.2545455 53.397651,57.8636364 L53.397651,60.4282297 C52.7600671,60.9090909 50.8473154,61.7425837 49.1577181,62.4157895 C46.1610738,63.5698565 45.3959732,65.076555 45.3959732,66.7755981 C45.3959732,69.1478469 46.7348993,69.9813397 47.659396,70.0133971 C48.488255,70.077512 49.1577181,70.1095694 49.8590604,69.9172249 C51.5486577,69.4363636 52.7919463,68.6990431 53.557047,67.8014354 L53.6526846,67.8014354 C54.0033557,69.3401914 54.9597315,70.077512 56.3624161,70.077512 C57.988255,70.077512 58.6258389,68.923445 58.9127517,68.3784689 C59.1677852,67.9937799 59.0721477,67.8334928 58.9765101,67.7052632 L58.5939597,67.3526316 C58.4345638,67.2564593 58.3389262,67.2885167 58.2114094,67.5129187 C58.0201342,67.769378 57.8607383,68.0578947 57.2550336,67.9937799 C56.5855705,67.9296651 56.1392617,67.6411483 56.1392617,65.5253589 L56.1392617,63.2492823 L56.0436242,63.2492823 L56.0436242,63.2492823 Z" id="Shape" fill="#FFFFFF"></path>
                </g>
            </g>
        </g>
    </g>
</svg>