<?xml version="1.0" encoding="UTF-8" standalone="no"?>
<svg width="402px" height="169px" viewBox="0 0 402 169" version="1.1" xmlns="http://www.w3.org/2000/svg" xmlns:xlink="http://www.w3.org/1999/xlink" xmlns:sketch="http://www.bohemiancoding.com/sketch/ns">
    <!-- Generator: Sketch 3.4 (15575) - http://www.bohemiancoding.com/sketch -->
    <title>logo</title>
    <desc>Created with Sketch.</desc>
    <defs></defs>
    <g id="Page-1" stroke="none" stroke-width="1" fill="none" fill-rule="evenodd" sketch:type="MSPage">
        <g id="logo" sketch:type="MSLayerGroup">
            <g id="Group" sketch:type="MSShapeGroup">
                <g>
                    <rect id="Rectangle-1" fill="#FFFFFF" x="0" y="0" width="401" height="168"></rect>
                    <g transform="translate(141.000000, 83.000000)" fill="#002A2E">
                        <g id="Shape">
                            <path d="M0.7,40.2 L0.7,20.1 C0.7,17.9 1.7,16.8 3.8,16.8 C4.8,16.8 5.6,17.1 6.1,17.6 C6.6,18.3 6.9,19.1 6.9,20.1 L6.9,40 C6.9,46.5 9.8,49.8 15.7,49.8 C18.5,49.8 20.7,49 22.2,47.3 C23.7,45.7 24.4,43.2 24.4,40 L24.4,20.1 C24.4,17.9 25.4,16.8 27.5,16.8 C28.5,16.8 29.3,17.1 29.8,17.6 C30.3,18.3 30.6,19.1 30.6,20.1 L30.6,40.2 C30.6,45.3 29.2,49.1 26.3,51.5 C23.4,53.9 19.9,55.1 15.6,55.1 C11.3,55.1 7.7,53.9 4.8,51.5 C2.1,49.1 0.7,45.4 0.7,40.2 L0.7,40.2 Z"></path>
                            <path d="M37.3,51.8 L37.3,20.1 C37.3,17.9 38.3,16.8 40.4,16.8 C41.4,16.8 42.2,17.1 42.7,17.6 C43.2,18.3 43.5,19.1 43.5,20 L43.5,21.5 L43.5,21.6 C44.9,19.9 46.5,18.6 48.3,17.9 C50.1,17.1 52,16.7 54.1,16.7 C57.6,16.7 60.7,17.9 63.3,20.2 C65.9,22.5 67.3,26.1 67.3,31 L67.3,51.8 C67.3,54 66.3,55.1 64.2,55.1 C63.2,55.1 62.4,54.8 61.9,54.2 C61.3,53.6 61,52.8 61,51.8 L61,31.4 C61,28.3 60.1,26 58.4,24.5 C56.7,22.9 54.6,22.2 52.3,22.2 C50,22.2 47.9,23 46.2,24.5 C44.4,26.1 43.5,28.4 43.5,31.4 L43.5,51.9 C43.5,54.1 42.5,55.2 40.4,55.2 C39.4,55.2 38.6,54.9 38.1,54.3 C37.6,53.7 37.3,52.9 37.3,51.8 L37.3,51.8 Z"></path>
                            <path d="M73.9,51.8 L73.9,20.1 C73.9,17.9 74.9,16.8 77,16.8 C78,16.8 78.8,17.1 79.3,17.6 C79.8,18.3 80.1,19.1 80.1,20.1 L80.1,23.3 C81,21.7 82.2,20.2 83.9,18.8 C85.6,17.4 87.2,16.7 88.9,16.7 C89.9,16.7 90.8,17 91.4,17.6 C92,18.2 92.4,19 92.4,19.9 C92.4,21.7 91.2,22.8 88.8,23.2 C86.4,23.6 84.4,24.7 82.7,26.4 C81,28.1 80.2,30.6 80.2,33.9 L80.2,51.8 C80.2,54 79.2,55.1 77.1,55.1 C76.1,55.1 75.3,54.8 74.8,54.2 C74.2,53.7 73.9,52.9 73.9,51.8 L73.9,51.8 Z"></path>
                            <path d="M108.9,16.7 C113.9,16.7 117.9,18.6 120.9,22.3 C123.9,26.1 125.4,30.6 125.4,35.9 C125.4,41.2 123.9,45.7 121,49.5 C118,53.3 114,55.1 108.9,55.1 C103.8,55.1 99.7,53.2 96.8,49.5 C93.8,45.8 92.3,41.2 92.3,35.9 C92.3,30.6 93.8,26.1 96.7,22.3 C99.6,18.6 103.7,16.7 108.9,16.7 L108.9,16.7 Z M108.9,49.8 C112.4,49.8 115,48.4 116.7,45.6 C118.4,42.8 119.3,39.6 119.3,35.9 C119.3,32.2 118.5,29 116.8,26.2 C115.1,23.5 112.5,22.1 109,22.1 C105.5,22.1 102.8,23.5 101.1,26.3 C99.4,29.1 98.5,32.3 98.5,36 C98.5,39.7 99.3,42.9 101,45.7 C102.7,48.4 105.3,49.8 108.9,49.8 L108.9,49.8 Z"></path>
                            <path d="M136.8,3.4 L136.8,51.8 C136.8,54 135.8,55.1 133.7,55.1 C132.7,55.1 131.9,54.8 131.4,54.2 C130.8,53.6 130.5,52.8 130.5,51.8 L130.5,3.4 C130.5,1.2 131.5,0.1 133.6,0.1 C134.6,0.1 135.4,0.4 135.9,0.9 C136.5,1.6 136.8,2.4 136.8,3.4 L136.8,3.4 Z"></path>
                            <path d="M149.6,3.4 L149.6,51.8 C149.6,54 148.6,55.1 146.5,55.1 C145.5,55.1 144.7,54.8 144.2,54.2 C143.6,53.6 143.3,52.8 143.3,51.8 L143.3,3.4 C143.3,1.2 144.3,0.1 146.4,0.1 C147.4,0.1 148.2,0.4 148.7,0.9 C149.3,1.6 149.6,2.4 149.6,3.4 L149.6,3.4 Z"></path>
                        </g>
                        <path d="M157.755847,47.2502096 L164.985512,47.2502096 L164.985512,54.7912 L157.755847,54.7912 L157.755847,47.2502096 Z" id="."></path>
                        <g transform="translate(171.000000, 16.000000)" id="Shape">
                            <path d="M23.3,35.8 L23.3,14.8 C23.3,12.1 22.6,10 21.2,8.5 C19.8,6.9 17.8,6.2 15.2,6.2 C12.7,6.2 10.7,7 9.2,8.5 C7.8,10.1 7.1,12.2 7.1,14.8 L7.1,35.8 C7.1,38 6.1,39.1 4,39.1 C3,39.1 2.2,38.8 1.7,38.2 C1.1,37.6 0.8,36.8 0.8,35.8 L0.8,4.1 C0.8,1.9 1.8,0.8 3.9,0.8 C4.9,0.8 5.7,1.1 6.2,1.6 C6.7,2.3 7,3.1 7,4 L7,5.1 L7,5.2 C8,3.9 9.2,2.9 10.6,2 C12,1.1 14,0.7 16.6,0.7 C18.6,0.7 20.5,1.2 22.3,2.2 C24.1,3.2 25.6,4.8 27,7.1 C28.5,4.9 30.2,3.3 31.9,2.3 C33.7,1.3 35.9,0.7 38.5,0.7 C42,0.7 45.1,1.9 47.7,4.2 C50.3,6.5 51.7,10.1 51.7,15 L51.7,35.8 C51.7,38 50.6,39.1 48.5,39.1 C47.5,39.1 46.7,38.8 46.3,38.2 C45.7,37.6 45.5,36.8 45.5,35.8 L45.5,14.8 C45.5,12.1 44.8,10 43.4,8.5 C42,6.9 40,6.2 37.4,6.2 C34.9,6.2 32.9,7 31.5,8.5 C30.1,10.1 29.4,12.2 29.4,14.8 L29.4,35.8 C29.4,38 28.4,39.1 26.3,39.1 C25.3,39.1 24.5,38.8 24,38.2 C23.6,37.7 23.3,36.9 23.3,35.8 L23.3,35.8 Z"></path>
                            <path d="M86.1,22.4 L62.6,22.4 C62.6,25.6 63.6,28.3 65.6,30.5 C67.6,32.7 70.3,33.8 73.8,33.8 C76.5,33.8 78.9,33.3 80.8,32.3 L86.5,28.8 C87.1,28.8 87.6,29 88.1,29.5 C88.5,30 88.8,30.7 88.8,31.5 C88.8,33 87.1,34.7 83.8,36.5 C80.5,38.3 77.1,39.2 73.7,39.2 C68,39.2 63.7,37.4 60.7,33.7 C57.8,30 56.3,25.5 56.3,20 C56.3,14.7 57.8,10.2 60.9,6.4 C64,2.7 68.1,0.8 73.3,0.8 C78.2,0.8 82.1,2.6 85.1,6.3 C88.1,10 89.5,14.2 89.5,19 C89.5,20.2 89.3,21 88.8,21.5 C88.4,22.1 87.4,22.4 86.1,22.4 L86.1,22.4 Z M62.6,17.7 L83.4,17.7 C83.4,14.7 82.5,12.1 80.8,9.7 C79.1,7.3 76.6,6.1 73.4,6.1 C69.8,6.1 67.1,7.2 65.3,9.5 C63.5,11.8 62.6,14.5 62.6,17.7 L62.6,17.7 Z"></path>
                        </g>
                    </g>
                    <g transform="translate(1.000000, 35.000000)" id="Shape" fill="#002A2E">
                        <path d="M117.784666,9 L108.928222,9 L74,45 L117.784666,45 C127.337684,44.7024793 135,36.6694215 135,26.9504132 C135,17.231405 127.337684,9.39669421 117.784666,9 Z"></path>
                        <g>
                            <path d="M74.1,70.1 C74.1,83.1 70,93.7 56.9,93.7 C43.9,93.7 39.7,83.1 39.7,70.1 L39.7,22.3 L39.7,20.6 L39.7,19.7 C39.7,19.3 39.7,19.1 39.6,18.9 C38.7,8.7 30.4,0.9 20.1,0.9 C19.4,0.9 18.8,0.9 18.1,1 C8.4,1.9 0.8,9.7 0.3,19.5 L0.3,20.6 L0.3,70.1 C0.3,104.8 22.1,133.1 56.8,133.1 C91.1,133.1 112.6,105.6 113.3,71.4 L113.3,44.1 L74.1000031,44.9846176 C74.1000016,57.0827048 74.1,70.1 74.1,70.1 Z"></path>
                        </g>
                    </g>
                </g>
            </g>
        </g>
    </g>
</svg>